<svg xmlns="http://www.w3.org/2000/svg" width="830" height="70" viewBox="0 0 830 70" role="img" aria-labelledby="t d" shape-rendering="crispEdges"><title id="t">Footer</title><desc id="d">Back to Top. Built with love by @tannergolden. Distributed under the MIT License. Last updated September 25, 2026.</desc><!--markdown-kit v1 medieval-cathedral F1 dark--><g transform="scale(2)"><defs><pattern id="pq" width="12" height="12" patternUnits="userSpaceOnUse"><path stroke="#08080A" d="M0 .5h1m0 1h1m9 0h1m-10 1h1m7 0h1m-8 1h1m5 0h1m-6 1h1m3 0h1m-4 1h1m1 0h1m-2 1h1m-2 1h1m1 0h1m-4 1h1m3 0h1m-6 1h1m5 0h1m-8 1h1m7 0h1m-10 1h1m9 0h1"/><path stroke="#FFECAB" stroke-opacity=".16" d="M10 4.5h1m-2 1h1m-6 5h1m-2 1h1"/></pattern><pattern id="pc" width="24" height="24" patternUnits="userSpaceOnUse"><path stroke="#241B14" stroke-opacity=".3" d="M13 .5h11m-10 1h9m-8 1h7m-6 1h5m-4 1h3m-2 1h1m-13 2h1m-2 1h3m-4 1h5m-6 1h1m1 0h5m-8 1h1m1 0h7m-10 1h11m-10 1h9m-8 1h7m13 0h1m-20 1h5m13 0h2m-19 1h3m13 0h1m1 0h1m-18 1h1m13 0h1m1 0h2m-5 1h5m-4 1h4m-3 1h3m-2 1h2m-1 1h1"/><path stroke="#FAC774" stroke-opacity=".05" d="M12 1.5h1m-2 1h3m-4 1h5m-6 1h1m1 0h5m-8 1h1m1 0h7m-10 1h11m-10 1h9m-8 1h7m-6 1h5m-4 1h3m-2 1h1m-13 2h1m-1 1h2m-2 1h3m-3 1h4m-4 1h5m-5 1h6m-6 1h5m13 0h1m-19 1h4m13 0h3m-20 1h3m13 0h5m-21 1h2m13 0h1m1 0h5m-22 1h1m13 0h1m1 0h7"/></pattern><pattern id="frm" width="4" height="12" patternUnits="userSpaceOnUse"><path stroke="#120E0B" d="M.5 0v12"/><path stroke="#7A654C" d="M1.5 0v11"/><path stroke="#4E3E2E" d="M2.5 0v11"/><path stroke="#2C2219" d="M3.5 0v12"/><path stroke="#63503C" d="M1 11.5h1"/><path stroke="#3C2F22" d="M2 11.5h1"/></pattern><pattern id="fra" width="10" height="5" patternUnits="userSpaceOnUse"><rect width="10" height="5" fill="#4E3E2E"/><path stroke="#1E1711" d="M0 .5h10"/><path stroke="#7A654C" d="M1 1.5h4m1 0h4"/><path stroke="#63503C" d="M3 2.5h1m-2 1h1m-2 1h1"/><path stroke="#120E0B" d="M4 2.5h1m-2 1h3m-4 1h5"/><path stroke="#3C2F22" d="M9.5 2v3"/></pattern><pattern id="frs31" y="31" width="6" height="3" patternUnits="userSpaceOnUse"><path stroke="#7A654C" d="M0 .5h2m1 0h3m-4 1h1"/><path stroke="#1E1711" d="M2 .5h1m-2 1h1m1 0h1"/><path stroke="#4E3E2E" d="M0 1.5h1m3 0h2"/><path stroke="#2C2219" d="M0 2.5h2m1 0h3"/><path stroke="#120E0B" d="M2 2.5h1"/></pattern><path id="q1" d="M0 .5h2m-2 1h1m1 0h1m-3 1h2m-2 1h1m1 0h1m-3 1h2"/><path id="q2" d="M.5 0v4m2-4v4m-2.5 .5h3"/><path id="q3" d="M0 .5h3m-1.5 .5v3m-1.5 .5h3"/><path id="q4" d="M.5 0v4m-.5 .5h3"/><path id="q5" d="M0 .5h3m-1.5 .5v4"/><path id="q6" d="M.5 0v3m4-3v3m-2.5-.5h1m-3 1h2m1 0h2m-5 1h1m3 0h1"/><path id="q7" d="M.5 0v2m2-2v2m-2.5 .5h3m-2.5 .5v2m2-2v2"/><path id="q8" d="M.5 0v2m2-2v2m-1 0v3"/><path id="q9" d="M1 .5h3m-3.5 .5v5m3.5-4.5h1m-3 1h3m-3 1h1m1 0h1m-3 1h3m-4 2h4"/><path id="q10" d="M1.5 0v2m-1.5 .5h3m-1.5 .5v3m1.5-.5h1m-2 1h1"/><path id="q11" d="M1 2.5h3m0 1h1m-4 1h4m-5 1h1m3 0h1m-4 1h4"/><path id="q12" d="M0 2.5h1m1 0h2m-4 1h2m2.5-.5v4m-4-3v3"/><path id="q13" d="M1 2.5h3m-4 1h1m3 0h1m-5 1h5m-5 1h1m0 1h3"/><path id="q14" d="M0 2.5h1m1 0h2m-4 1h2m2 0h1m-4.5 .5v3"/><path id="q15" d="M1 2.5h4m-4.5 .5v2m4-2v2m-3.5 .5h4m-.5 .5v2m-4.5-.5h1m0 1h3"/><path id="q16" d="M1 2.5h3m-3.5 .5v3m4-3v3m-3.5 .5h3"/><path id="q17" d="M0 .5h2m-.5 .5v5m-1.5 .5h3"/><path id="q18" d="M4.5 0v3m-3.5-.5h2m-2.5 .5v3m2.5-2.5h2m-.5 .5v2m-3.5 .5h4"/><path id="q19" d="M1 .5h2m-2.5 .5v3m.5 .5h2"/><path id="q20" d="M0 .5h3m-3 1h1m-1 1h2m-2 1h1m-1 1h3"/><path id="q21" d="M0 .5h1m2.5-.5v2m-3.5-.5h2m-1.5 .5v3m1.5-2.5h2m-.5 .5v2"/><path id="q22" d="M1 .5h2m-3 1h1m0 1h1m0 1h1m-3 1h2"/><path id="q23" d="M0 .5h1m3 0h1m-5 1h2m1 0h2m-4.5 .5v5m2-5v2m2-2v5"/><path id="q24" d="M0 .5h3m-1.5 .5v5m-1.5 .5h3"/><path id="q25" d="M0 .5h5m-2.5 .5v6"/><path id="q26" d="M0 .5h2m-2 1h1m1 0h1m-3 1h2m-1.5 .5v2"/><path id="q27" d="M0 .5h2m-1.5 .5v3m2-3v3m-2.5 .5h2"/><path id="q28" d="M1 .5h1m-2 1h1m1 0h1m-3 1h3m-2.5 .5v2m2-2v2"/><path id="q29" d="M1 .5h3m-4 1h1m3.5-.5v2m-1.5 .5h1m-2 1h1m-2 1h1m-2 1h5"/><path id="q30" d="M1 .5h3m-3.5 .5v3m3.5-2.5h1m-2 1h2m-3 1h1m1.5-.5v3m-4.5-1.5h2m-2 1h1m0 1h3"/><path id="q31" d="M2 .5h2m-3 1h1m-2 1h1m-1 1h4m-3.5 .5v2m4-2v2m-3.5 .5h3"/><path id="q32" d="M0 3.5h3"/><path id="q33" d="M1 .5h3m-3.5 .5v2m4-2v2m-3.5 .5h4m-1 1h1m-2 1h1m-3 1h2"/><path id="q34" d="M0 .5h5m-5 1h1m-1 1h4m.5 .5v3m-4.5-.5h1m0 1h3"/><path id="q35" d="M0 .5h2m-2 1h1m1 0h1m-3 1h2m-1.5 .5v2m2-2v2"/><path id="q36" d="M1 .5h1m-1.5 .5v3m2-3v3m-1.5 .5h1"/><path id="q37" d="M0 .5h4m-3.5 .5v2m4-2v2m-4.5 .5h4m-3.5 .5v2m4-2v2m-4.5 .5h4"/><path id="q38" d="M1 2.5h3m-3.5 .5v3m3.5-.5h1m-4 1h3"/><path id="q39" d="M.5 0v4m2.5-1.5h1m-2 1h1m-3 1h2m-1.5 .5v2m1.5-1.5h1m0 1h1"/><path id="q40" d="M0 2.5h4m-3.5 .5v2m4-2v2m-4.5 .5h4m-3.5 .5v3"/><pattern id="w41" x="5" y="2" width="6" height="6" patternUnits="userSpaceOnUse"><rect width="6" height="6" fill="#F27A74"/><path stroke="#232327" d="M0 .5h1m0 1h1m3 0h1m-4 1h1m1 0h1m-2 1h1m-2 1h1m1 0h1m-4 1h1m3 0h1"/><path stroke="#FFB9AE" d="M2 .5h1m0 1h1m1 2h1m-6 1h1"/></pattern><pattern id="w42" x="3" y="2" width="6" height="6" patternUnits="userSpaceOnUse"><rect width="6" height="6" fill="#7EAAEE"/><path stroke="#232327" d="M0 .5h1m0 1h1m3 0h1m-4 1h1m1 0h1m-2 1h1m-2 1h1m1 0h1m-4 1h1m3 0h1"/><path stroke="#BBD3F7" d="M2 .5h1m0 1h1m1 2h1m-6 1h1"/></pattern><g id="q43"><ellipse rx="7" ry="6.5" fill="#E07A1F" fill-opacity=".06"/><ellipse rx="4.67" ry="4.33" fill="#E07A1F" fill-opacity=".06"/><ellipse rx="2.33" ry="2.17" fill="#E07A1F" fill-opacity=".09"/></g></defs><rect x="0" y="5" width="415" height="6" fill="#1F1813"/><rect x="0" y="11" width="415" height="6" fill="#271E16"/><rect x="0" y="17" width="415" height="7" fill="#2B2118"/><rect x="0" y="24" width="415" height="6" fill="#2D2319"/><rect x="0" y="5" width="415" height="25" fill="url(#pc)"/><rect x="0" y="5" width="415" height="25" fill="url(#pq)"/><ellipse cx="380.5" cy="17" rx="13.95" ry="13.95" fill="#E07A1F" fill-opacity=".05"/><ellipse cx="380.5" cy="17" rx="9.3" ry="9.3" fill="#E07A1F" fill-opacity=".05"/><ellipse cx="380.5" cy="17" rx="4.65" ry="4.65" fill="#E07A1F" fill-opacity=".07"/><use href="#q43" x="354.5" y="12.5"/><use href="#q43" x="406.5" y="12.5"/><path stroke="#8C8070" d="M40 5.5h1m108 2h1m46 0h1m-64 3h1m271 0h1m-266 1h1m4 0h1m-20 3h1m159 0h1m-79 6h1m63 2h1m-254 3h1m134 0h1m23 1h1m-25 3h1"/><rect x="0" y="5" width="4" height="25" fill="url(#frm)"/><rect x="411" y="5" width="4" height="25" fill="url(#frm)"/><rect x="0" y="0" width="415" height="5" fill="url(#fra)"/><rect x="0" y="31" width="415" height="3" fill="url(#frs31)"/><path stroke="url(#w41)" d="M360.5 14v14m1-16v16m1-18v18m1-19v19m1-18v18m1-16v16m1-14v14"/><path stroke="url(#w42)" d="M394.5 14v14m1-16v16m1-18v18m1-19v19m1-18v18m1-16v16m1-14v14"/><path stroke="#08080A" d="M371.5 14v6m1-8v10m1-11v12m1-13v14m1-15v16m1-17v18m1-18v18m1-18v18m1-18v18m1-19v20m1-19v18m1-18v18m1-18v18m1-18v18m1-17v16m1-15v14m1-13v12m1-11v10m1-8v6"/><path stroke="#C42634" d="M381 11.5h3m-3 1h3m-9 1h1m-2 1h3m-3 1h2m9 3h2m-3 1h3m-2 1h1m-9 1h3m-3 1h3"/><path stroke="#2A5AC4" d="M377 11.5h3m-3 1h3m5 1h1m-2 1h3m-2 1h2m-13 3h2m-2 1h3m-2 1h1m5 1h3m-3 1h3"/><path stroke="#146B3A" d="M377.5 16v2m3-4v1m0 4v1m3-4v2"/><path stroke="#B0700E" d="M378.5 14v2m0 2v2m4-6v2m0 2v2"/><path stroke="#07060A" stroke-opacity=".16" d="M4 28.5h85m1 0h39m1 0h66m1 0h155m18 0h21m18 0h2"/><path stroke="#07060A" stroke-opacity=".2" d="M4 5.5h85m1 0h39m1 0h66m1 0h214"/><path stroke="#08080A" d="M363 8.5h1m33 0h1m-36 1h1m1 0h1m31 0h1m1 0h1m-37.5 .5v2m4-2v2m30-2v2m4-2v2m-39 0v2m6-2v2m28-2v2m6-2v2m-41 0v14m8-14v14m26-14v14m8-14v14m-42.5 .5h9m25 0h9"/><path stroke="#1E1711" d="M362 6.5h3m31 0h3m-38 1h1m3 0h1m14 0h1m14 0h1m3 0h1m-40 1h1m5 0h1m9 0h3m3 0h3m9 0h1m5 0h1m-41.5 .5v2m8-2v2m7.5-1.5h1m9 0h1m7.5-.5v2m8-2v2m-27.5-.5h1m11 0h1m-28.5 .5v2m10-2v2m4.5-1.5h1m13 0h1m4.5-.5v2m10-2v2m-30-1v2m16-2v2m-31-1v16m12-16v16m22-16v16m12-16v16m-32-15v6m18-6v6m-17 0v2m16-2v2m-15.5 .5h1m13 0h1m-14 1h1m11 0h1m-12 1h1m9 0h1m-10 1h3m3 0h3m-5 1h1m-381 8h415"/><path stroke="#2A5AC4" d="M397 9.5h1m-2 1h1m1.5-.5v2m1 0v2m-4.5-.5h1m-2 1h1m5 0h1m-6.5 1.5v3m6-3v3m-6.5 1.5h1m5 0h1m-6.5 1.5v3m6-3v3m-6.5 1.5h1m5 0h1m-6 1h3m1 0h1"/><path stroke="#2C2219" d="M362 7.5h1m1 0h1m31 0h1m1 0h1m-38 1h1m3 0h1m29 0h1m3 0h1m-40 1h1m5.5-.5v2m27.5-1.5h1m5.5-.5v2m-41.5 .5h1m7.5-.5v2m25.5-1.5h1m7.5-.5v2m-43.5 .5h1m9.5-.5v16m23.5-15.5h1m9.5-.5v16m-23.5-3.5h1m1 0h1m-23 4h9m25 0h9"/><path stroke="#3C2F22" d="M384 10.5h2m0 1h1m.5 .5v2m1 0v6m-16.5-.5h1m.5 .5v2m14-2v2m-13.5 .5h1m11 0h1m-12 1h2m7 0h2m-10 1h4m1 0h4m-5 1h1m-374 4h1m11 0h1m11 0h1m11 0h1m11 0h1m11 0h1m11 0h1m11 0h1m11 0h1m11 0h1m11 0h1m11 0h1m11 0h1m11 0h1m11 0h1m11 0h1m11 0h1m11 0h1m11 0h1m11 0h1m11 0h1m11 0h1m11 0h1m11 0h1m11 0h1m11 0h1m11 0h1m11 0h1m11 0h1m11 0h1m23 0h1m11 0h1m11 0h1"/><path stroke="#4E3E2E" d="M379 8.5h1m1 0h1"/><path stroke="#63503C" d="M363 7.5h1m33 0h1m-36 1h1m1 0h1m15 0h1m15 0h1m1 0h1m-38 1h1m3 0h1m10 0h4m1 0h4m10 0h1m3 0h1m-39.5 .5v2m14.5-1.5h2m17.5-.5v2m-28.5-.5h1m7 0h1m25 0h1m-41.5 .5v2m14-2v2m20-2v2m-26.5-.5h1m33 0h1m-43.5 .5v15m14-15v5m20-5v16m-392.5-.5h7m1 0h11m1 0h11m1 0h11m1 0h11m1 0h11m1 0h11m1 0h9m1 0h1m1 0h11m1 0h11m1 0h11m1 0h1m1 0h9m1 0h11m1 0h11m1 0h11m1 0h11m1 0h8m1 0h2m1 0h11m1 0h11m1 0h11m1 0h11m1 0h11m1 0h11m1 0h11m1 0h11m1 0h11m1 0h11m1 0h11m1 0h11m1 0h11m1 0h3m9 0h11m1 0h11m11 0h1m1 0h11"/><path stroke="#64101C" d="M56 8.5h1m-2 1h1m-2 1h1m-2 1h1"/><path stroke="#6B5A47" d="M89.5 4v27m40-27v27m67-27v27"/><path stroke="#7A654C" d="M0 30.5h89m1 0h39m1 0h66m1 0h218"/><path stroke="#7E560C" d="M355 22.5h1m51 0h1m-53 5h1m51 0h1m-52 1h1m51 0h1"/><path stroke="#7EAAEE" d="M377 11.5h2m-5 7h1m0 1h1m5 2h2"/><path stroke="#A1370B" d="M354 10.5h1m51 0h1"/><path stroke="#AEB9B6" d="M355.5 15v7m52-7v7"/><path stroke="#B07E16" d="M354 23.5h1m51 0h1m-52.5 1.5v3m52-3v3m-51.5 .5h1m51 0h1"/><path stroke="#BBD3F7" d="M385 14.5h1"/><path stroke="#C42634" d="M51 6.5h2m1 0h2m-6 1h1m1 0h5m-7 1h6m-5 1h4m308 0h1m-312 1h2m308 0h1m1.5-.5v2m1 0v2m-4.5-.5h1m-2 1h1m5 0h1m-6.5 1.5v3m6-3v3m-6.5 1.5h1m5 0h1m-6.5 1.5v3m6-3v3m-6.5 1.5h1m5 0h1m-6 1h3m1 0h1"/><path stroke="#D9A626" d="M354 22.5h1m51 0h1m-54 5h1m51 0h1m-53 1h2m50 0h2"/><path stroke="#E04448" d="M380.5 16v2"/><path stroke="#E07A1F" d="M353 12.5h1m1 0h1m49 0h1m1 0h1"/><path stroke="#ECF1EE" d="M354.5 15v7m52-7v7"/><path stroke="#F27A74" d="M51 7.5h1m329 4h1m-8 3h2m9.5 3.5v2m-8.5 1.5h2"/><path stroke="#F2B82E" d="M204 17.5h1m-2 1h3m-4 1h1m1.5-.5v5m1.5-4.5h1m-6 1h1m5 0h1"/><path stroke="#F3C84A" d="M353 22.5h1m51 0h1m-52 2h1m51 0h1m-55 4h1m51 0h1"/><path stroke="#FAC774" d="M354 11.5h1m51 0h1m-54 2h1m1 0h1m49 0h1m1 0h1"/><path stroke="#FBE084" d="M379.5 16v2m2-2v2"/><path stroke="#FFB9AE" d="M382 11.5h1"/><path stroke="#FFECAB" d="M354 12.5h1m51 0h1"/><path stroke="#FFFACB" d="M354.5 13v2m52-2v2"/><g stroke="#C9B99C"><g transform="translate(0 7)"><use href="#q1" x="8"/><use href="#q2" x="12"/><use href="#q3" x="16"/><use href="#q4" x="20"/><use href="#q5" x="24"/><use href="#q6" x="31"/><use href="#q3" x="37"/><use href="#q5" x="41"/><use href="#q7" x="45"/><use href="#q1" x="59"/><use href="#q8" x="63"/><use href="#q4" x="94"/><use href="#q3" x="98"/><use href="#q19" x="102"/><use href="#q20" x="106"/><use href="#q21" x="110"/><use href="#q22" x="115"/><use href="#q20" x="119"/><use href="#q2" x="134"/><use href="#q26" x="138"/><use href="#q27" x="142"/><use href="#q28" x="146"/><use href="#q5" x="150"/><use href="#q20" x="154"/><use href="#q27" x="158"/><use href="#q35" x="201"/><use href="#q20" x="205"/><use href="#q5" x="209"/><use href="#q2" x="213"/><use href="#q35" x="217"/><use href="#q21" x="221"/><use href="#q5" x="229"/><use href="#q36" x="233"/></g></g><g stroke="#F2E8D4"><g transform="translate(0 17)"><use href="#q9" x="8"/><use href="#q10" x="14"/><use href="#q11" x="19"/><use href="#q12" x="25"/><use href="#q12" x="31"/><use href="#q13" x="37"/><use href="#q14" x="43"/><use href="#q15" x="49"/><use href="#q16" x="55"/><use href="#q17" x="61"/><use href="#q18" x="65"/><use href="#q13" x="71"/><use href="#q12" x="77"/><use href="#q23" x="94"/><use href="#q24" x="100"/><use href="#q25" x="104"/><use href="#q29" x="134"/><use href="#q30" x="140"/><use href="#q29" x="146"/><use href="#q31" x="152"/><use href="#q32" x="158"/><use href="#q30" x="162"/><use href="#q33" x="168"/><use href="#q32" x="174"/><use href="#q29" x="178"/><use href="#q34" x="184"/><use href="#q37" x="211"/><use href="#q11" x="217"/><use href="#q38" x="223"/><use href="#q39" x="229"/><use href="#q10" x="238"/><use href="#q16" x="243"/><use href="#q25" x="253"/><use href="#q16" x="259"/><use href="#q40" x="265"/></g></g><ellipse cx="380.5" cy="18.5" rx="26" ry="14.5" fill="#FAC774" fill-opacity=".05"/><ellipse cx="380.5" cy="18.5" rx="17.33" ry="9.67" fill="#FAC774" fill-opacity=".05"/><ellipse cx="380.5" cy="18.5" rx="8.67" ry="4.83" fill="#FAC774" fill-opacity=".08"/></g></svg>
