<svg xmlns="http://www.w3.org/2000/svg" width="830" height="282" viewBox="0 0 830 282" role="img" aria-labelledby="t d" shape-rendering="crispEdges"><title id="t">Milestones of driftmark</title><desc id="d">Fourteen releases from v0.1.0 in April 2025 to v1.4.0 in September 2026, with v1.5.0 planned for November.</desc><!--markdown-kit v1 medieval-cathedral elements milestones wide day--><g transform="scale(2)"><defs><pattern id="e23q" width="12" height="12" patternUnits="userSpaceOnUse"><path stroke="#C0BBB5" d="M0 .5h1m0 1h1m9 0h1m-10 1h1m7 0h1m-8 1h1m5 0h1m-6 1h1m3 0h1m-4 1h1m1 0h1m-2 1h1m-2 1h1m1 0h1m-4 1h1m3 0h1m-6 1h1m5 0h1m-8 1h1m7 0h1m-10 1h1m9 0h1"/><path stroke="#FFFFFF" d="M10 4.5h1m-2 1h1m-6 5h1m-2 1h1"/></pattern><pattern id="e23c" width="24" height="24" patternUnits="userSpaceOnUse"><path stroke="#E9D8C9" d="M13 .5h11m-10 1h9m-8 1h7m-6 1h5m-4 1h3m-2 1h1m-13 2h1m-2 1h3m-4 1h5m-6 1h1m1 0h5m-8 1h1m1 0h7m-10 1h11m-10 1h9m-8 1h7m13 0h1m-20 1h5m13 0h2m-19 1h3m13 0h1m1 0h1m-18 1h1m13 0h1m1 0h2m-5 1h5m-4 1h4m-3 1h3m-2 1h2m-1 1h1"/><path stroke="#ECE0CB" d="M0 1.5h1m-1 1h2m-2 1h3m-3 1h4m-4 1h5m-5 1h6m-6 1h5m13 0h1m-19 1h4m13 0h3m-20 1h3m13 0h5m-21 1h2m13 0h1m1 0h5m-22 1h1m13 0h1m1 0h7m-10 1h11m-10 1h9m-8 1h7m-6 1h5m-4 1h3m-2 1h1m-13 2h1m-2 1h3m-4 1h5m-6 1h1m1 0h5m-8 1h1m1 0h7"/><path stroke="#DCD9CF" d="M12 1.5h1m-2 1h3m-4 1h5m-6 1h1m1 0h5m-8 1h1m1 0h7m-10 1h11m-10 1h9m-8 1h7m-6 1h5m-4 1h3m-2 1h1m-13 2h1m-1 1h2m-2 1h3m-3 1h4m-4 1h5m-5 1h6m-6 1h5m13 0h1m-19 1h4m13 0h3m-20 1h3m13 0h5m-21 1h2m13 0h1m1 0h5m-22 1h1m13 0h1m1 0h7"/></pattern><pattern id="frm" width="4" height="12" patternUnits="userSpaceOnUse"><path stroke="#3A352E" d="M.5 0v12"/><path stroke="#F2EEE5" d="M1.5 0v11"/><path stroke="#C3BDB0" d="M2.5 0v11"/><path stroke="#807A6F" d="M3.5 0v12"/><path stroke="#DDD8CC" d="M1 11.5h1"/><path stroke="#A39D90" d="M2 11.5h1"/></pattern><pattern id="fra" width="10" height="5" patternUnits="userSpaceOnUse"><rect width="10" height="5" fill="#C3BDB0"/><path stroke="#5E584F" d="M0 .5h10"/><path stroke="#F2EEE5" d="M1 1.5h4m1 0h4"/><path stroke="#DDD8CC" d="M3 2.5h1m-2 1h1m-2 1h1"/><path stroke="#3A352E" d="M4 2.5h1m-2 1h3m-4 1h5"/><path stroke="#A39D90" d="M9.5 2v3"/></pattern><pattern id="frs137" y="137" width="6" height="3" patternUnits="userSpaceOnUse"><path stroke="#F2EEE5" d="M0 .5h2m1 0h3m-4 1h1"/><path stroke="#5E584F" d="M2 .5h1m-2 1h1m1 0h1"/><path stroke="#C3BDB0" d="M0 1.5h1m3 0h2"/><path stroke="#807A6F" d="M0 2.5h2m1 0h3"/><path stroke="#3A352E" d="M2 2.5h1"/></pattern><path id="q1" d="M0 .5h1m3 0h1m-5 1h2m1 0h2m-4.5 .5v3m1.5-2.5h1m1.5-.5v3"/><path id="q2" d="M0 .5h3m-1.5 .5v3m-1.5 .5h3"/><path id="q3" d="M.5 0v4m-.5 .5h3"/><path id="q4" d="M0 .5h3m-3 1h1m-1 1h2m-2 1h1m-1 1h3"/><path id="q5" d="M1 .5h2m-3 1h1m0 1h1m0 1h1m-3 1h2"/><path id="q6" d="M0 .5h3m-1.5 .5v4"/><path id="q7" d="M1 .5h1m-1.5 .5v3m2-3v3m-1.5 .5h1"/><path id="q8" d="M0 .5h1m2.5-.5v2m-3.5-.5h2m-1.5 .5v3m1.5-2.5h2m-.5 .5v2"/><path id="q9" d="M1 .5h1m-2 1h2m-.5 .5v2m-1.5 .5h3"/><path id="q10" d="M.5 0v2m2-2v2m-2.5 .5h3m-.5 .5v2"/><path id="q11" d="M0 .5h2m-2 1h1m1 0h1m-3 1h2m-1.5 .5v2m2-2v2"/><path id="q12" d="M1 .5h1m-2 1h1m1 0h1m-3 1h3m-2.5 .5v2m2-2v2"/><path id="q13" d="M1 .5h2m-2.5 .5v3m.5 .5h2"/><path id="q14" d="M0 .5h2m-2 1h1m1 0h1m-3 1h2m-1.5 .5v2"/><path id="q15" d="M0 .5h2m0 1h1m-2 1h1m-2 1h1m-1 1h3"/><path id="q16" d="M0 .5h3m-2.5 .5v3m2-3v3m-2.5 .5h3"/><path id="q17" d="M0 .5h3m-3 1h1m-1 1h2m0 1h1m-3 1h2"/><path id="q18" d="M4.5 0v3m-3.5-.5h2m-2.5 .5v3m2.5-2.5h2m-.5 .5v2m-3.5 .5h4"/><path id="q19" d="M0 2.5h1m1 0h2m-4 1h2m2 0h1m-4.5 .5v3"/><path id="q20" d="M1 .5h1m-2 2h2m-.5 .5v3m-1.5 .5h3"/><path id="q21" d="M2 .5h2m-2.5 .5v2m-1.5 .5h3m-1.5 .5v3"/><path id="q22" d="M1.5 0v2m-1.5 .5h3m-1.5 .5v3m1.5-.5h1m-2 1h1"/><path id="q23" d="M0 2.5h2m1 0h1m-3.5 .5v4m2-4v2m2-2v4"/><path id="q24" d="M1 2.5h3m0 1h1m-4 1h4m-5 1h1m3 0h1m-4 1h4"/><path id="q25" d="M.5 0v4m2.5-1.5h1m-2 1h1m-3 1h2m-1.5 .5v2m1.5-1.5h1m0 1h1"/><path id="q26" d="M4.5 0v2m-1.5 .5h1m-2 1h1m-2 1h1m-1.5 .5v2"/><pattern id="sc18" y="18" width="6" height="3" patternUnits="userSpaceOnUse"><path stroke="#F2EEE5" d="M0 .5h2m1 0h3m-4 1h1"/><path stroke="#5E584F" d="M2 .5h1m-2 1h1m1 0h1"/><path stroke="#C3BDB0" d="M0 1.5h1m3 0h2"/><path stroke="#807A6F" d="M0 2.5h2m1 0h3"/><path stroke="#3A352E" d="M2 2.5h1"/></pattern><path id="q28" d="M2.5 0v4m-2.5-.5h1m0 1h1"/><path id="q29" d="M.5 0v4m2-4v4m-2.5 .5h3"/><path id="q30" d="M1 .5h2m-3 1h1m-1 1h3m-3 1h1m1 0h1m-3 1h3"/><path id="q31" d="M0 .5h2m0 1h1m-2 1h1m0 1h1m-3 1h2"/><path id="q32" d="M1 .5h2m-2.5 .5v3m2-2v2m-1.5 .5h2"/><path id="q33" d="M0 .5h3m-3 1h1m-1 1h2m-1.5 .5v2"/><path id="q34" d="M.5 0v3m2-3v3m-1 0v2"/><path id="q35" d="M.5 0v2m2-2v2m-1 0v3"/><path id="q36" d="M0 .5h2m-2 1h1m1 0h1m-3 1h2m-2 1h1m1 0h1m-3 1h2"/><path id="q37" d="M0 .5h2m-1.5 .5v3m2-3v3m-2.5 .5h2"/><path id="q38" d="M.5 0v2m2-2v2m-2.5 .5h2m-1.5 .5v2m2-2v2"/><path id="q39" d="M0 2.5h3"/><path id="q40" d="M0 4.5h1"/><path id="q41" d="M0 .5h3m-3 1h1m1 0h1m-3 1h3m-1 1h1m-3 1h2"/><path id="q42" d="M0 .5h3m-1 1h1m-1.5 .5v3"/><path id="q43" d="M0 .5h3m-3 1h1m1 0h1m-3 1h3m-3 1h1m1 0h1m-3 1h3"/><path id="q44" d="M.5 0v2m2-2v2m-2.5 .5h3m-2.5 .5v2m2-2v2"/><path id="q45" d="M.5 3v2"/></defs><rect x="0" y="5" width="415" height="131" fill="#E7DCCD"/><rect x="0" y="5" width="415" height="131" fill="url(#e23c)"/><rect x="0" y="5" width="415" height="131" fill="url(#e23q)"/><rect x="0" y="5" width="4" height="131" fill="url(#frm)"/><rect x="411" y="5" width="4" height="131" fill="url(#frm)"/><rect x="0" y="0" width="415" height="5" fill="url(#fra)"/><rect x="0" y="137" width="415" height="3" fill="url(#frs137)"/><path stroke="#07060A" stroke-opacity=".16" d="M4 135.5h407"/><path stroke="#07060A" stroke-opacity=".2" d="M4 5.5h407"/><path stroke="#0C4D2A" d="M106 70.5h1m135 0h1"/><path stroke="#13276A" d="M213 69.5h5m-145 1h1m107 0h1m30.5-.5v2m6-2v2m125.5-1.5h5m-5.5 .5v4m-132-3v2m8-2v2m130-2v3m-137-1v2m6-2v2m125.5-.5h5m-136 1h5"/><path stroke="#151518" d="M213 68.5h5m-180 1h5m40 0h5m58 0h5m61 0h1m5 0h1m52 0h5m35 0h5m28 0h5m-312 1h1m5 0h1m38 0h1m5 0h1m56 0h1m5 0h1m59.5-.5v2m8-2v2m50.5-1.5h1m5 0h1m33 0h1m5 0h1m26 0h1m-307.5 .5v2m8-2v2m37-2v2m8-2v2m55-2v2m8-2v2m117-2v2m8-2v2m32-2v2m8-2v2m25-2v2m-132.5-.5h1m9 0h1m129.5-.5v3m-328.5-1.5h15m7 0h38m7 0h56m7 0h59m9 0h50m7 0h33m7 0h26m-307 1h1m7 0h1m36 0h1m7 0h1m54 0h1m7 0h1m58.5-.5v2m8-2v2m49.5-1.5h1m7 0h1m31 0h1m7 0h1m24 0h1m-306 1h1m5 0h1m38 0h1m5 0h1m56 0h1m5 0h1m118 0h1m5 0h1m33 0h1m5 0h1m26 0h1m5 0h1m-312 1h5m40 0h5m58 0h5m61 0h1m5 0h1m52 0h5m35 0h5m28 0h5m-136 1h5m-203 41h5m-6 1h1m5 0h1m-7.5 .5v4m8-4v4m-7.5 .5h1m5 0h1m-6 1h5m132 5h4"/><path stroke="#1E8C4A" d="M105 68.5h1m135 0h1m-138 1h3m133 0h3m-138 1h1m135 0h1"/><path stroke="#232327" d="M350 69.5h1m-196 56h1"/><path stroke="#2A0F3A" d="M9 16.5h50"/><path stroke="#2A5AC4" d="M72 68.5h1m107 0h1m-110 1h3m105 0h3m-110 1h1m107 0h1m34 0h3m-4 1h1m1 0h2m127 0h4m-137 1h3m1 0h3m125 0h5m-137 1h1m5 0h1m125 0h5m-136 1h2m1 0h2m126 0h5m-136 1h2m1 0h2"/><path stroke="#36363B" d="M379 69.5h1m-3 1h5m-321.5 .5v2m12-2v2m33-2v2m15-2v2m13-2v2m47-2v2m61-2v2m134.5-1.5h2m3 0h2m-6.5 .5v2m6-2v2m-6.5 .5h2m3 0h2m-6 1h5m-3 1h1m-273 42h1m-3 1h5m-41.5 .5v2m35.5-1.5h2m3 0h2m-6.5 .5v2m6-2v2m-6.5 .5h2m3 0h2m-6 1h5m-3 1h1"/><path stroke="#4A2A04" d="M83 70.5h5m33 0h1m24 0h5m120 0h5m-193.5 .5v4m6-4v4m57-4v4m6-4v4m119-4v4m6-4v4m-193.5 .5h5m58 0h5m120 0h5"/><path stroke="#4D4D54" d="M22 72.5h14m9 0h15m1 0h11m1 0h8m9 0h15m1 0h14m1 0h12m1 0h10m9 0h27m1 0h29m11 0h20m1 0h27m9 0h31m9 0h24m-190 57h4"/><path stroke="#4E3D2A" d="M40 68.5h1m51.5-.5v3m52-3v3m53-3v3m51-3v3m52-3v3m53-3v3"/><path stroke="#5E584F" d="M0 140.5h415"/><path stroke="#64101C" d="M38 70.5h5m18 0h1m72 0h1m176 0h5m-278.5 .5v4m6-4v4m267-4v4m6-4v4m-278.5 .5h5m268 0h5m-301 44h5m49 0h1m-55.5 .5v4m6-4v4m-5.5 .5h5"/><path stroke="#672A86" d="M9 9.5h50m-50 1h50m-50 1h50m-50 1h50m-50 1h50m-50 1h50m-50 1h50"/><path stroke="#6CCB86" d="M104 68.5h1m135 0h1"/><path stroke="#7EAAEE" d="M71 68.5h1m107 0h1m33 2h2m-2 1h1m130 0h1"/><path stroke="#9B958D" d="M4 20.5h407m-56 53h2m3 0h3m3 0h3m3 0h3m3 0h3m3 0h3m3 0h3"/><path stroke="#A75ECB" d="M9 8.5h50"/><path stroke="#B0700E" d="M120 68.5h1m-2 1h3m-2 1h1m-37 1h4m59 0h4m121 0h4m-193 1h5m58 0h5m120 0h5m-193 1h5m58 0h5m120 0h5m-193 1h5m58 0h5m120 0h5"/><path stroke="#C42634" d="M60 68.5h1m72 0h1m-75 1h3m70 0h3m-75 1h1m72 0h1m-95 1h4m269 0h4m-278 1h5m268 0h5m-278 1h5m268 0h5m-278 1h5m268 0h5m-248 43h1m-2 1h3m-2 1h1m-53 1h4m-5 1h5m-5 1h5m-5 1h5"/><path stroke="#DDE4E0" d="M351.5 70v2m-195 54v3"/><path stroke="#F27A74" d="M59 68.5h1m72 0h1m-95 3h1m272 0h1m-245 46h1m-53 3h1"/><path stroke="#F2B82E" d="M119 68.5h1m-37 3h1m62 0h1m124 0h1"/><path stroke="#F2EEE5" d="M0 136.5h415"/><path stroke="#F3C84A" d="M215.5 71v2m-2.5 .5h5m-2.5 .5v2"/><path stroke="#FAFCFA" d="M349 70.5h2m-2 1h2m-197 55h2m-2 1h2m-2 1h2"/><g stroke="#F3C84A"><g transform="translate(0 10)"><use href="#q1" x="13"/><use href="#q2" x="19"/><use href="#q3" x="23"/><use href="#q4" x="27"/><use href="#q5" x="31"/><use href="#q6" x="35"/><use href="#q7" x="39"/><use href="#q8" x="43"/><use href="#q4" x="48"/><use href="#q5" x="52"/></g></g><g stroke="#4E3D2A"><g transform="translate(0 10)"><use href="#q9" x="297"/><use href="#q10" x="301"/><use href="#q11" x="308"/><use href="#q4" x="312"/><use href="#q3" x="316"/><use href="#q4" x="320"/><use href="#q12" x="324"/><use href="#q5" x="328"/><use href="#q4" x="332"/><use href="#q5" x="336"/><use href="#q5" x="343"/><use href="#q2" x="347"/><use href="#q8" x="351"/><use href="#q13" x="356"/><use href="#q4" x="360"/><use href="#q12" x="367"/><use href="#q14" x="371"/><use href="#q11" x="375"/><use href="#q2" x="379"/><use href="#q3" x="383"/><use href="#q15" x="390"/><use href="#q16" x="394"/><use href="#q15" x="398"/><use href="#q17" x="402"/></g><g transform="translate(0 101)"><use href="#q12" x="35"/><use href="#q14" x="39"/><use href="#q11" x="43"/><use href="#q28" x="87"/><use href="#q29" x="91"/><use href="#q3" x="95"/><use href="#q7" x="139"/><use href="#q13" x="143"/><use href="#q6" x="147"/><use href="#q28" x="182"/><use href="#q12" x="186"/><use href="#q8" x="190"/><use href="#q15" x="198"/><use href="#q16" x="202"/><use href="#q15" x="206"/><use href="#q30" x="210"/><use href="#q12" x="243"/><use href="#q14" x="247"/><use href="#q11" x="251"/><use href="#q28" x="295"/><use href="#q29" x="299"/><use href="#q3" x="303"/><use href="#q7" x="348"/><use href="#q13" x="352"/><use href="#q6" x="356"/></g><g transform="translate(0 60)"><use href="#q31" x="22"/><use href="#q11" x="29"/><use href="#q4" x="33"/><use href="#q32" x="37"/><use href="#q2" x="41"/><use href="#q7" x="45"/><use href="#q8" x="49"/><use href="#q5" x="54"/><use href="#q36" x="130"/><use href="#q12" x="134"/><use href="#q5" x="138"/><use href="#q4" x="142"/><use href="#q3" x="146"/><use href="#q2" x="150"/><use href="#q8" x="154"/><use href="#q4" x="159"/><use href="#q5" x="163"/><use href="#q13" x="189"/><use href="#q7" x="193"/><use href="#q8" x="197"/><use href="#q33" x="202"/><use href="#q2" x="206"/><use href="#q32" x="210"/><use href="#q33" x="217"/><use href="#q7" x="221"/><use href="#q11" x="225"/><use href="#q1" x="229"/><use href="#q12" x="235"/><use href="#q6" x="239"/><use href="#q14" x="256"/><use href="#q12" x="260"/><use href="#q32" x="264"/><use href="#q4" x="268"/><use href="#q11" x="272"/><use href="#q37" x="276"/><use href="#q29" x="280"/><use href="#q6" x="284"/><use href="#q35" x="288"/><use href="#q15" x="327"/><use href="#q10" x="331"/><use href="#q11" x="338"/><use href="#q4" x="342"/><use href="#q32" x="346"/><use href="#q2" x="350"/><use href="#q7" x="354"/><use href="#q8" x="358"/><use href="#q5" x="363"/></g><g transform="translate(0 53)"><use href="#q33" x="17"/><use href="#q2" x="21"/><use href="#q11" x="25"/><use href="#q5" x="29"/><use href="#q6" x="33"/><use href="#q5" x="40"/><use href="#q29" x="44"/><use href="#q11" x="48"/><use href="#q34" x="52"/><use href="#q4" x="56"/><use href="#q35" x="60"/><use href="#q5" x="204"/><use href="#q6" x="208"/><use href="#q12" x="212"/><use href="#q36" x="216"/><use href="#q3" x="220"/><use href="#q4" x="224"/><use href="#q5" x="256"/><use href="#q3" x="260"/><use href="#q12" x="264"/><use href="#q13" x="268"/><use href="#q38" x="272"/><use href="#q12" x="279"/><use href="#q8" x="283"/><use href="#q37" x="288"/></g><g transform="translate(0 50)"><use href="#q9" x="66"/><use href="#q15" x="70"/><use href="#q11" x="77"/><use href="#q4" x="81"/><use href="#q32" x="85"/><use href="#q2" x="89"/><use href="#q7" x="93"/><use href="#q8" x="97"/><use href="#q5" x="102"/></g><g transform="translate(0 43)"><use href="#q36" x="361"/><use href="#q12" x="365"/><use href="#q5" x="369"/><use href="#q4" x="373"/><use href="#q3" x="377"/><use href="#q2" x="381"/><use href="#q8" x="385"/><use href="#q4" x="390"/><use href="#q5" x="394"/></g><g transform="translate(0 36)"><use href="#q14" x="355"/><use href="#q4" x="359"/><use href="#q11" x="363"/><use href="#q39" x="367"/><use href="#q4" x="371"/><use href="#q8" x="375"/><use href="#q37" x="380"/><use href="#q14" x="384"/><use href="#q7" x="388"/><use href="#q2" x="392"/><use href="#q8" x="396"/><use href="#q6" x="401"/></g><g transform="translate(0 93)"><use href="#q15" x="22"/><use href="#q12" x="29"/><use href="#q14" x="33"/><use href="#q11" x="37"/><use href="#q15" x="44"/><use href="#q16" x="48"/><use href="#q15" x="52"/><use href="#q17" x="56"/><use href="#q9" x="74"/><use href="#q41" x="78"/><use href="#q28" x="85"/><use href="#q29" x="89"/><use href="#q8" x="93"/><use href="#q42" x="139"/><use href="#q7" x="146"/><use href="#q13" x="150"/><use href="#q6" x="154"/><use href="#q15" x="206"/><use href="#q33" x="213"/><use href="#q4" x="217"/><use href="#q36" x="221"/><use href="#q9" x="261"/><use href="#q10" x="265"/><use href="#q1" x="272"/><use href="#q12" x="278"/><use href="#q35" x="282"/><use href="#q15" x="302"/><use href="#q15" x="306"/><use href="#q28" x="313"/><use href="#q29" x="317"/><use href="#q3" x="321"/><use href="#q9" x="335"/><use href="#q43" x="339"/><use href="#q5" x="346"/><use href="#q4" x="350"/><use href="#q14" x="354"/><use href="#q8" x="362"/><use href="#q7" x="367"/><use href="#q34" x="371"/><use href="#q4" x="375"/><use href="#q1" x="379"/><use href="#q36" x="385"/><use href="#q4" x="389"/><use href="#q11" x="393"/></g><g transform="translate(0 86)"><use href="#q34" x="111"/><use href="#q16" x="115"/><use href="#q40" x="119"/><use href="#q30" x="121"/><use href="#q40" x="125"/><use href="#q16" x="127"/><use href="#q34" x="169"/><use href="#q16" x="173"/><use href="#q40" x="177"/><use href="#q9" x="179"/><use href="#q16" x="183"/><use href="#q40" x="187"/><use href="#q16" x="189"/><use href="#q34" x="232"/><use href="#q9" x="236"/><use href="#q40" x="240"/><use href="#q9" x="242"/><use href="#q40" x="246"/><use href="#q16" x="248"/></g><g transform="translate(0 126)"><use href="#q11" x="24"/><use href="#q4" x="28"/><use href="#q3" x="32"/><use href="#q4" x="36"/><use href="#q12" x="40"/><use href="#q5" x="44"/><use href="#q4" x="48"/><use href="#q37" x="52"/><use href="#q14" x="75"/><use href="#q12" x="79"/><use href="#q6" x="83"/><use href="#q13" x="87"/><use href="#q44" x="91"/><use href="#q14" x="114"/><use href="#q3" x="118"/><use href="#q12" x="122"/><use href="#q8" x="126"/><use href="#q8" x="131"/><use href="#q4" x="136"/><use href="#q37" x="140"/><use href="#q6" x="163"/><use href="#q7" x="167"/><use href="#q37" x="171"/><use href="#q12" x="175"/><use href="#q35" x="179"/><use href="#q45" x="183"/><use href="#q15" x="188"/><use href="#q17" x="192"/><use href="#q5" x="199"/><use href="#q4" x="203"/><use href="#q14" x="207"/></g></g><g stroke="#22180F"><g transform="translate(0 9)"><use href="#q18" x="65"/><use href="#q19" x="71"/><use href="#q20" x="77"/><use href="#q21" x="81"/><use href="#q22" x="86"/><use href="#q23" x="91"/><use href="#q24" x="97"/><use href="#q19" x="103"/><use href="#q25" x="109"/><use href="#q26" x="114"/><use href="#q18" x="120"/><use href="#q19" x="126"/><use href="#q20" x="132"/><use href="#q21" x="136"/><use href="#q22" x="141"/><use href="#q23" x="146"/><use href="#q24" x="152"/><use href="#q19" x="158"/><use href="#q25" x="164"/></g><g transform="translate(0 86)"><use href="#q34" x="31"/><use href="#q16" x="35"/><use href="#q40" x="39"/><use href="#q9" x="41"/><use href="#q40" x="45"/><use href="#q16" x="47"/><use href="#q34" x="76"/><use href="#q16" x="80"/><use href="#q40" x="84"/><use href="#q10" x="86"/><use href="#q40" x="90"/><use href="#q16" x="92"/><use href="#q34" x="139"/><use href="#q16" x="143"/><use href="#q40" x="147"/><use href="#q41" x="149"/><use href="#q40" x="153"/><use href="#q16" x="155"/><use href="#q34" x="206"/><use href="#q9" x="210"/><use href="#q40" x="214"/><use href="#q16" x="216"/><use href="#q40" x="220"/><use href="#q16" x="222"/><use href="#q34" x="264"/><use href="#q9" x="268"/><use href="#q40" x="272"/><use href="#q15" x="274"/><use href="#q40" x="278"/><use href="#q16" x="280"/><use href="#q34" x="304"/><use href="#q9" x="308"/><use href="#q40" x="312"/><use href="#q31" x="314"/><use href="#q40" x="318"/><use href="#q16" x="320"/><use href="#q34" x="337"/><use href="#q9" x="341"/><use href="#q40" x="345"/><use href="#q10" x="347"/><use href="#q40" x="351"/><use href="#q16" x="353"/><use href="#q34" x="370"/><use href="#q9" x="374"/><use href="#q40" x="378"/><use href="#q17" x="380"/><use href="#q40" x="384"/><use href="#q16" x="386"/></g></g><rect x="5" y="18" width="57" height="3" fill="url(#sc18)"/><rect x="62" y="19" width="109" height="2" fill="url(#sc18)"/><rect x="171" y="18" width="239" height="3" fill="url(#sc18)"/></g></svg>
