<svg xmlns="http://www.w3.org/2000/svg" width="830" height="70" viewBox="0 0 830 70" role="img" aria-labelledby="t d" shape-rendering="crispEdges"><title id="t">Footer</title><desc id="d">Back to Top. Built with love by @tannergolden. Distributed under the MIT License. Last updated September 25, 2026.</desc><!--markdown-kit v1 medieval-chessmen F1 dark--><g transform="scale(2)"><defs><pattern id="pw" width="168" height="96" patternUnits="userSpaceOnUse"><path stroke="#090604" d="M94 29.5h1m1 0h5m14 0h8m1 0h7m1 0h1m1 0h2m1 0h1m1 0h15m-53 1h8m1 0h2m1 0h2m-114 1h4m147 0h6m1 0h9m-163 1h5m130 0h12m-140 1h1m0 1h2m1 0h7m4 4h7m1 0h10m1 0h11m1 0h1m93 0h5m1 0h2m-156 1h1m2 0h4m1 0h5m1 0h8m-18 9h10m117 2h3m10 0h1m1 0h3m1 0h2m1 0h5m-144 6h3m-4 1h1m3 0h15m-30 1h9m21 0h2m-37 1h3m1 0h1m41 4h1m74 0h6m2 0h5m-87 1h7m2 0h5m73 0h2m1 0h6m2 0h17m1 0h3m-105 1h8m1 0h5m2 0h16m1 0h6m1 0h2m4 0h2m1 0h1m1 0h8m1 0h15m1 0h3m-39 14h1m1 0h3m1 0h11m1 0h1m1 0h24m1 0h12"/><path stroke="#20160F" d="M66 16.5h8m-15 1h2m1 0h4m8 0h13m1 0h1m1 0h3m12 0h12m2 0h1m1 0h1m-69 1h6m34 0h4m1 0h2m1 0h4m-71 1h5m1 0h12m46 11h3m8 0h1m-15 1h1m16 0h7m-56 1h9m1 0h1m1 0h33m1 0h5m1 0h7m-116 2h2m1 0h4m-13 1h6m153 0h9m-140 1h3m113 0h3m1 0h7m1 0h3m-157 1h2m1 0h3m9 0h11m3 0h8m20 1h2m1 0h1m-37 1h4m2 0h2m1 0h8m1 0h10m1 0h3m73 0h10m2 0h2m1 0h2m1 0h2m1 0h2m-116 9h1m1 0h4m1 0h3m-48 1h14m1 0h7m1 0h9m1 0h1m1 0h3m67 0h17m13 0h1m9 0h18m1 0h4m-46 1h7m1 0h2m1 0h2m3 0h10m1 0h1m-121 11h4m2 0h2m1 0h13m1 0h18m1 0h2m20 0h17m1 0h5m1 0h8m1 0h4m1 0h2m-111 1h7m60 0h4m-5 1h1m-68 8h2m1 0h25m1 0h1m1 0h5m1 0h4m1 0h4m1 0h1m1 0h2m24 1h13m1 0h9m1 0h16m0 6h14m1 0h7m-33 2h2m1 0h2m1 0h1m-132 8h47m1 0h1m1 0h1m102 0h1m1 0h13m-116 1h11m1 0h2"/><path stroke="#2B1E14" d="M7 19.5h6m-9 1h3m1 0h1m4 0h6m-19 1h4m5.5-.5v2m5.5-1.5h2m2 0h4m144 0h1m-153 1h2m-7 1h1m5 0h1m-9 14h9m-17 1h2m2 0h1m2 0h1m2 0h1m149 0h8m-166 1h2m1 0h2m4.5-.5v3m156-3v3m-162.5-1.5h1m0 1h1m64 0h2m4 0h5m-9 1h4m5 0h1m11 0h2m-19.5 .5v3m6.5-2.5h11m-77 21h2m-12 1h10m87 0h4m2 0h1m-97.5 .5v2m85.5-1.5h5m4 0h2m1 0h12m-6.5 .5v3m6.5-2.5h1m-110 1h1m109 0h1m-110 1h1m109 0h1m-9 1h1"/></pattern><pattern id="frc" width="8" height="8" patternUnits="userSpaceOnUse"><path stroke="#330B07" d="M7.5 1v2m-2.5 .5h3m-4.5 1.5v2m-2.5 .5h3"/><path fill="#771F15" d="M5 1h2v2h-2zm-4 4h2v2h-2z"/><path stroke="#957651" d="M3.5 1v2m-2.5 .5h3m3.5 1.5v2m-2.5 .5h3"/><path stroke="#B84631" d="M4 .5h4m-3.5 .5v3m-4.5 .5h4m-3.5 .5v3"/><path fill="#D6BF97" d="M1 1h2v2h-2zm4 4h2v2h-2z"/><path stroke="#EADAB9" d="M0 .5h4m-3.5 .5v3m3.5 .5h4m-3.5 .5v3"/></pattern><g id="q0"><path stroke="#4A331A" d="M0 .5h8m-7.5 .5v6m7-6v6m-4.5-4.5h2m-2.5 .5v2m2.5-1.5h1m-2 1h2m-3 1h2m-5 2h8"/><path stroke="#6E5132" d="M6 5.5h1m-2 1h2"/><path stroke="#957651" d="M6.5 2v3m-1.5 .5h1m-3 1h2"/><path stroke="#B99C73" d="M5 2.5h1m-2 1h1m-2 1h1m-1.5 .5v2"/><path stroke="#D6BF97" d="M6 1.5h1m-5 1h1m0 1h1m-2.5 1.5v2"/><path stroke="#EADAB9" d="M1 1.5h5m-4.5 .5v3"/></g><path id="q1" d="M0 .5h2m-2 1h1m1 0h1m-3 1h2m-2 1h1m1 0h1m-3 1h2"/><path id="q2" d="M.5 0v4m2-4v4m-2.5 .5h3"/><path id="q3" d="M0 .5h3m-1.5 .5v3m-1.5 .5h3"/><path id="q4" d="M.5 0v4m-.5 .5h3"/><path id="q5" d="M0 .5h3m-1.5 .5v4"/><path id="q6" d="M.5 0v3m4-3v3m-2.5-.5h1m-3 1h2m1 0h2m-5 1h1m3 0h1"/><path id="q7" d="M.5 0v2m2-2v2m-2.5 .5h3m-2.5 .5v2m2-2v2"/><path id="q8" d="M.5 0v2m2-2v2m-1 0v3"/><path id="q9" d="M1 .5h3m-3.5 .5v5m3.5-4.5h1m-3 1h3m-3 1h1m1 0h1m-3 1h3m-4 2h4"/><path id="q10" d="M1.5 0v2m-1.5 .5h3m-1.5 .5v3m1.5-.5h1m-2 1h1"/><path id="q11" d="M1 2.5h3m0 1h1m-4 1h4m-5 1h1m3 0h1m-4 1h4"/><path id="q12" d="M0 2.5h1m1 0h2m-4 1h2m2.5-.5v4m-4-3v3"/><path id="q13" d="M1 2.5h3m-4 1h1m3 0h1m-5 1h5m-5 1h1m0 1h3"/><path id="q14" d="M0 2.5h1m1 0h2m-4 1h2m2 0h1m-4.5 .5v3"/><path id="q15" d="M1 2.5h4m-4.5 .5v2m4-2v2m-3.5 .5h4m-.5 .5v2m-4.5-.5h1m0 1h3"/><path id="q16" d="M1 2.5h3m-3.5 .5v3m4-3v3m-3.5 .5h3"/><path id="q17" d="M0 .5h2m-.5 .5v5m-1.5 .5h3"/><path id="q18" d="M4.5 0v3m-3.5-.5h2m-2.5 .5v3m2.5-2.5h2m-.5 .5v2m-3.5 .5h4"/><path id="q19" d="M1 .5h2m-2.5 .5v3m.5 .5h2"/><path id="q20" d="M0 .5h3m-3 1h1m-1 1h2m-2 1h1m-1 1h3"/><path id="q21" d="M0 .5h1m2.5-.5v2m-3.5-.5h2m-1.5 .5v3m1.5-2.5h2m-.5 .5v2"/><path id="q22" d="M1 .5h2m-3 1h1m0 1h1m0 1h1m-3 1h2"/><path id="q23" d="M0 .5h1m3 0h1m-5 1h2m1 0h2m-4.5 .5v5m2-5v2m2-2v5"/><path id="q24" d="M0 .5h3m-1.5 .5v5m-1.5 .5h3"/><path id="q25" d="M0 .5h5m-2.5 .5v6"/><path id="q26" d="M0 .5h2m-2 1h1m1 0h1m-3 1h2m-1.5 .5v2"/><path id="q27" d="M0 .5h2m-1.5 .5v3m2-3v3m-2.5 .5h2"/><path id="q28" d="M1 .5h1m-2 1h1m1 0h1m-3 1h3m-2.5 .5v2m2-2v2"/><path id="q29" d="M1 .5h3m-4 1h1m3.5-.5v2m-1.5 .5h1m-2 1h1m-2 1h1m-2 1h5"/><path id="q30" d="M1 .5h3m-3.5 .5v3m3.5-2.5h1m-2 1h2m-3 1h1m1.5-.5v3m-4.5-1.5h2m-2 1h1m0 1h3"/><path id="q31" d="M2 .5h2m-3 1h1m-2 1h1m-1 1h4m-3.5 .5v2m4-2v2m-3.5 .5h3"/><path id="q32" d="M0 3.5h3"/><path id="q33" d="M1 .5h3m-3.5 .5v2m4-2v2m-3.5 .5h4m-1 1h1m-2 1h1m-3 1h2"/><path id="q34" d="M0 .5h5m-5 1h1m-1 1h4m.5 .5v3m-4.5-.5h1m0 1h3"/><path id="q35" d="M0 .5h2m-2 1h1m1 0h1m-3 1h2m-1.5 .5v2m2-2v2"/><path id="q36" d="M1 .5h1m-1.5 .5v3m2-3v3m-1.5 .5h1"/><path id="q37" d="M0 .5h4m-3.5 .5v2m4-2v2m-4.5 .5h4m-3.5 .5v2m4-2v2m-4.5 .5h4"/><path id="q38" d="M1 2.5h3m-3.5 .5v3m3.5-.5h1m-4 1h3"/><path id="q39" d="M.5 0v4m2.5-1.5h1m-2 1h1m-3 1h2m-1.5 .5v2m1.5-1.5h1m0 1h1"/><path id="q40" d="M0 2.5h4m-3.5 .5v2m4-2v2m-4.5 .5h4m-3.5 .5v3"/><g id="q41"><path stroke="#330B07" d="M3 .5h4m0 1h1m.5 .5v2m-7.5 .5h8m-1.5 .5v5m1 0v2m-6.5 .5h6"/><path stroke="#53140E" d="M7 2.5h1m-2 1h2m-3 2h2m-2 1h2m-2 1h2m-2 1h2m-3 1h3m-1 1h2m-3 1h3"/><path stroke="#771F15" d="M6.5 1v2m-2.5 .5h2m-1.5 1.5v4m-.5 1.5h2m-3 1h2"/><path stroke="#992E1F" d="M5 1.5h1m-3 1h3m-3 1h1m-1 7h1"/><path stroke="#A1370B" d="M2 .5h1m-2 1h1m-1.5 .5v3m1 0v5m-1 0v2m.5 .5h1"/><path stroke="#B84631" d="M4 1.5h1"/><path stroke="#D27156" d="M3 1.5h1m-1.5 .5v2m1 1v5m-1 0v2"/><path stroke="#FAC774" d="M2 1.5h1m-1.5 .5v2m1 1v5m-1 0v2"/></g><g id="q42"><path stroke="#090604" d="M5 5.5h1m1 0h1m7 2h1"/><path stroke="#3D2508" d="M12 16.5h2"/><path stroke="#4A331A" d="M7 1.5h1m0 1h1m0 1h1m-6 1h7m-2 1h1m4 0h1m-7 1h1m3 0h1m2 0h1m-6 1h2m1 0h1m3.5-.5v4m-8-3v5m2-5v2m3.5 .5h1m0 1h1m-15 1h2m10 0h2m-12 1h1m3 0h1m5.5-.5v4m-9.5-2.5h1m1 0h1m-2 1h1m-5 2h1m1 0h2m1.5-.5v3m4.5-2.5h2m1.5-.5v3m-11.5-1.5h2m6 0h2m-10 1h2m6 0h2m2 1h1m-15 1h14"/><path stroke="#5E3D0E" d="M16 10.5h1m-2 1h1m-3 2h1m-2 1h2m-3 1h3m-10 1h8m-5.5 .5v2m8.5 1.5h1"/><path stroke="#6E5132" d="M16 8.5h1m-2 1h2m-9 1h1m5 0h1m-8 1h2m4 0h2m-8 1h2m3 0h2m-7 1h1m3 0h2m-3 1h2m-9 1h2m3 0h3m-8 1h1m2 3h1m5 1h3"/><path stroke="#957651" d="M8 3.5h1m-1 2h1m-2 1h1m4 1h1m3 0h1m-9 1h1m5 0h2m-10 1h3m1 0h1m2 0h2m-10 1h3m4 0h2m-9 1h2m4 0h2m-8 1h2m3 0h2m-9 1h1m2.5-.5v2m2.5-1.5h2m-8 1h2m3 0h2m-5 1h1m1 0h1m-5 2h1m10.5-.5v2m-6.5 1.5h4"/><path stroke="#A1370B" d="M6 .5h1m4.5-.5v4m-6.5-2.5h1m-1.5 .5v2m-1.5 .5h1m.5 .5v2m7-2v2m1.5-1.5h1m-11.5 1.5v5m-1.5 .5h1m-1.5 .5v4m.5 .5h1m8.5-.5v3m-8-2v2m-2.5 .5h1m0 1h1"/><path stroke="#B99C73" d="M7.5 2v2m3.5 .5h1m1 2h2m-6 1h1m4 0h1m-10 1h3m2 0h1m1 0h2m-9 1h1m6 0h1m-3 1h2m-2 1h1m-7 1h1m0 1h1m8 6h1m-12 1h5"/><path stroke="#D6BF97" d="M6 5.5h1m-2 2h4"/><path stroke="#EADAB9" d="M6.5 2v2m-.5 2.5h1m-2.5 .5v5m-2 1v4m-.5 3.5h1"/><path stroke="#FFECAB" d="M6 1.5h1m-1.5 .5v2m-.5 2.5h1m-2.5 .5v5m-2 1v4m10 0v3m-8-2v2m-2.5 .5h1"/></g><g id="q43"><path stroke="#4A331A" d="M3 .5h4m0 1h1m.5 .5v2m-7.5 .5h8m-1.5 .5v5m1 0v2m-6.5 .5h6"/><path stroke="#6E5132" d="M4 9.5h1m-2 2h1"/><path stroke="#957651" d="M3 3.5h2m-.5 1.5v3m-.5 .5h2m-1 1h1m-3 1h2m-1 1h3"/><path stroke="#A1370B" d="M2 .5h1m-2 1h1m-1.5 .5v3m1 0v5m-1 0v2m.5 .5h1"/><path stroke="#B99C73" d="M3 2.5h3m-1 1h2m-1.5 1.5v3m1 0v2m-1.5 .5h2m0 1h1"/><path stroke="#D6BF97" d="M4 1.5h3m-1 1h2m-1 1h1m-1.5 1.5v3m.5 2.5h1"/><path stroke="#EADAB9" d="M3 1.5h1m-1.5 .5v2m1 1v5m-1 0v2"/><path stroke="#FFECAB" d="M2 1.5h1m-1.5 .5v2m1 1v5m-1 0v2"/></g><g id="q44"><path stroke="#090604" d="M8 7.5h1m1 0h1"/><path stroke="#330B07" d="M2 .5h3m.5 .5v2m4.5-1.5h1m-9 1h2m7.5-.5v2m-9-1v6m7-6v2m3-1v2m-4.5-.5h1m1 0h1m-5 1h7m-.5 .5v2m-10.5 .5h2m2.5-.5v4m4.5-3.5h1m-9 1h2m4.5-.5v2m2.5-1.5h1m-10 1h1m9.5-.5v3m-5.5-1.5h1m2.5-.5v3m-7.5-1.5h1m2 0h1m-5 1h1m2 0h1m7.5-.5v6m-10.5 .5h2m1 0h2m1 0h1m1 0h2m0 1h1m-11 1h10"/><path stroke="#53140E" d="M7.5 9v4m-2.5 .5h1m-2 1h1m2 0h1m-2 1h1m-2 1h2m-2 1h3m-3 1h3m-3 1h4m-3 1h1"/><path stroke="#771F15" d="M8 8.5h1m-1 1h2m-1.5 .5v2m-4.5-.5h1m1 2h1m2 0h1m-4.5 .5v2m2.5-1.5h2m-3 1h3m2.5-.5v2m-5.5-.5h3m-2 1h3m2.5-.5v2m-5.5-.5h3m-2 1h5m-5 1h1m-5 1h4"/><path stroke="#992E1F" d="M3 1.5h1m0 1h1m3 2h1m1 0h1m-2 1h1m1 0h1m-3 2h1m1 0h1m-3 1h3m-1.5 .5v3m-5-2v3m3.5-.5h2m-3 1h1m1.5-.5v2m1.5-1.5h1m-1 1h2m-4 1h2m1.5-.5v2m-3.5-.5h2m-1 1h2m-2 1h2m-2 2h1m-3 1h3"/><path stroke="#A1370B" d="M1 .5h1m7 0h1m-9.5 .5v10m7.5-9.5h1m-2 1h1m-4 1h1m1 0h1m-1.5 .5v6m-4.5 1.5h1m.5 .5v2m-1.5 .5h1m.5 .5v5m.5 .5h1m-2 1h1m0 1h1"/><path stroke="#B84631" d="M4 1.5h1m5.5 .5v2m.5 .5h1m-1 6h1m-1 1h2m-1 1h1m-1 9h2"/><path stroke="#D27156" d="M2 1.5h1m6 1h1m-2 1h1m-1.5 .5v2m0 1v2m-5.5 1.5h1m1 2h1m-.5 2.5v5m-.5 1.5h1"/><path stroke="#FAC774" d="M1.5 1v10m7.5-9.5h1m-2 1h1m-2 1h1m-1.5 .5v2m0 1v2m-4.5 2.5h1m.5 .5v2m-1.5 .5h1m.5 .5v5m-.5 1.5h1"/></g><g id="q45"><path stroke="#090604" d="M5 5.5h1m2 0h1"/><path stroke="#4A331A" d="M7 .5h1m-6.5 .5v6m6.5-5.5h1m.5 .5v2m-5.5 .5h7m-5 1h1m2 0h1m1 0h1m.5 .5v2m-11.5-.5h2m1 0h1m5 0h1m-9.5 .5v2m2-2v2m1.5-1.5h1m1 0h1m1 0h1m1 0h1m.5 .5v7m-11.5-5.5h2m1 0h1m-2 1h1m1 0h1m-4 1h1m1.5-.5v2m-.5 .5h2m-1.5 .5v4m6.5-2.5h1m-2 1h1m-8 2h1m1 0h2m3 0h1m-6 1h1m5 0h1m0 1h1m-11 1h10"/><path stroke="#5E3D0E" d="M11 6.5h1m-1 9h1"/><path stroke="#6E5132" d="M10.5 5v2m-2.5-.5h1m2 1h1m-.5 1.5v2m-1.5 .5h2m-2 1h2m-2 1h2m-2 1h2m-3 1h2m-1 1h1m-1 5h2"/><path stroke="#957651" d="M8 2.5h1m-2 1h2m-2 3h1m1 0h1m-1 3h2m-2 1h2m-2 1h1m-3 1h3m-2 1h2m-2 1h2m-3 7h3"/><path stroke="#A1370B" d="M.5 0v12m5.5-11.5h1m-2 1h1m-1.5 .5v2m-1 0v3m-2.5 5.5h1m.5 .5v8m3.5-5.5h1m0 1h1m0 1h1m0 1h1m-1.5 .5v2m-8.5 .5h1m0 1h1"/><path stroke="#B99C73" d="M7 2.5h1m-2 4h1m-4.5 1.5v2m4.5-.5h2m-6 1h1m2 0h3m-5 1h1m1 0h3m-6 1h1m2 0h1m-1 1h2m-1 1h1m-4 5h1m-2 2h4"/><path stroke="#D6BF97" d="M7 5.5h1m-5 2h1m1 0h5m-6 1h1m1 0h1m1 0h1m1 0h1m-7 1h3m-2 1h1m-.5 1.5v2m.5 .5h1"/><path stroke="#EADAB9" d="M7 1.5h1m-1.5 .5v2m-1.5 2.5h1m-4 5h1m5 4h1m0 1h1m-6 4h1m5 0h1m-9 1h1"/><path stroke="#FFECAB" d="M6 1.5h1m-1.5 .5v2m-1 1v2m-3.5 4.5h1m1.5 1.5v6m3.5-3.5h1m0 1h1m0 1h1m-.5 1.5v2m-6.5-.5h1m-3 1h1"/></g></defs><rect y="0" width="415" height="7" fill="#140E0A"/><rect y="7" width="415" height="7" fill="#150F0A"/><rect y="14" width="415" height="7" fill="#17100B"/><rect y="21" width="415" height="7" fill="#18110C"/><rect y="28" width="415" height="7" fill="#1A120D"/><rect width="415" height="35" fill="url(#pw)"/><ellipse cx="-33.2" cy="25.2" rx="323.7" ry="60" fill="#A1370B" fill-opacity=".04"/><ellipse cx="-33.2" cy="25.2" rx="215.8" ry="40" fill="#A1370B" fill-opacity=".04"/><ellipse cx="-33.2" cy="25.2" rx="107.9" ry="20" fill="#A1370B" fill-opacity=".05"/><ellipse cx="394.5" cy="13.5" rx="9" ry="8" fill="#E07A1F" fill-opacity=".1"/><ellipse cx="394.5" cy="13.5" rx="6" ry="5.33" fill="#E07A1F" fill-opacity=".11"/><ellipse cx="394.5" cy="13.5" rx="3" ry="2.67" fill="#E07A1F" fill-opacity=".15"/><rect x="0" y="0" width="4" height="35" fill="url(#frc)"/><rect x="411" y="0" width="4" height="35" fill="url(#frc)"/><rect x="4" y="0" width="407" height="4" fill="url(#frc)"/><path stroke="#0A0604" stroke-opacity=".16" d="M4 4.5h85m1 0h39m1 0h66m1 0h214m-406.5 .5v26"/><path stroke="#100B07" d="M387 21.5h1m-1 2h1"/><path stroke="#1A1109" d="M308 25.5h11m11 0h11m11 0h11m11 0h2m-72 1h4m11 0h11m11 0h11m11 0h11m-70 1h4m11 0h1m2 0h8m11 0h11m11 0h11"/><path stroke="#291B0F" d="M308 21.5h11m11 0h11m11 0h11m11 0h7m-73 1h11m11 0h11m11 0h11m11 0h8m-74 1h11m11 0h11m11 0h11m11 0h9m-75 1h11m11 0h11m11 0h11m11 0h8m23.5-.5v2m-119.5-.5h11m79 0h7m-97.5 .5v2m11.5-1.5h7m-7 1h5m1 0h1m16 0h2m-18 1h4m11 0h11m11 0h11m11 0h11m11 0h1m-82 1h4m11 0h11m11 0h11m11 0h11m11 0h2m-297 1h6m6 0h6m6 0h6m6 0h3m1 0h2m6 0h6m6 0h6m6 0h6m6 0h6m6 0h6m112 0h4m11 0h11m11 0h11m11 0h11m11 0h11"/><path stroke="#330B07" d="M115 22.5h1m4 0h2m-6 1h4m2.5-.5v5m-3-4v3m-3.5 .5h4m-5 1h1m4 0h2"/><path stroke="#3B2816" d="M287 21.5h11m83 0h2m22.5-.5v3m-118.5-1.5h11m-11 1h10m-10 1h10m-22 2h10m-10 1h10m17 0h1m-28 1h11m11 0h7m-214 1h6m6 0h6m6 0h6m6 0h3m1 0h2m6 0h6m6 0h6m6 0h6m6 0h6m6 0h6m83 0h11m11 0h7m-29 1h11m11 0h7"/><path stroke="#3D2508" d="M388 26.5h1m-1 1h4"/><path stroke="#4A331A" d="M274 19.5h106m-105.5 1.5v5m130-2v5m-100.5-3.5h4m11 0h11m11 0h11m11 0h11m10 0h2m-112.5 .5v5m34.5-4.5h11m11 0h11m11 0h11m11 0h11m16 0h1m-94 1h11m11 0h11m11 0h3m2 0h6m34 0h5m-312 1h24m2 0h3m3 0h7m1 0h66m192 1h16"/><path stroke="#53140E" d="M51 6.5h2m1 0h2m-5.5 .5v2m2.5-1.5h1m2.5-.5v2m-5.5 .5h1m3 0h1m-4 1h1m1 0h1m-2 1h1m66 16h1m-117 5h4m4 0h4m4 0h4m4 0h4m4 0h4m4 0h4m4 0h4m4 0h4m4 0h4m4 0h4m4 0h4m4 0h4m4 0h4m4 0h4m4 0h4m4 0h4m4 0h4m4 0h4m4 0h4m4 0h4m4 0h4m4 0h4m4 0h4m4 0h4m4 0h4m4 0h4m4 0h4m4 0h4m4 0h4m4 0h4m4 0h4m4 0h4m4 0h4m4 0h4m4 0h4m4 0h4m4 0h4m4 0h4m4 0h4m4 0h4m4 0h4m4 0h4m4 0h4m4 0h4m4 0h4m4 0h4m4 0h4m4 0h4m4 0h4m4 0h4m4 0h4m4 0h3m-411 1h4m4 0h4m4 0h4m4 0h4m4 0h4m4 0h4m4 0h4m4 0h4m4 0h4m4 0h4m4 0h4m4 0h4m4 0h4m4 0h4m4 0h4m4 0h4m4 0h4m4 0h4m4 0h4m4 0h4m4 0h4m4 0h4m4 0h4m4 0h4m4 0h4m4 0h4m4 0h4m4 0h4m4 0h4m4 0h4m4 0h4m4 0h4m4 0h4m4 0h4m4 0h4m4 0h4m4 0h4m4 0h4m4 0h4m4 0h4m4 0h4m4 0h4m4 0h4m4 0h4m4 0h4m4 0h4m4 0h4m4 0h4m4 0h4m4 0h4m4 0h4m4 0h3m-411 1h4m4 0h4m4 0h4m4 0h4m4 0h4m4 0h4m4 0h4m4 0h4m4 0h4m4 0h4m4 0h4m4 0h4m4 0h4m4 0h4m4 0h4m4 0h4m4 0h4m4 0h4m4 0h4m4 0h4m4 0h4m4 0h4m4 0h4m4 0h4m4 0h4m4 0h4m4 0h4m4 0h4m4 0h4m4 0h4m4 0h4m4 0h4m4 0h4m4 0h4m4 0h4m4 0h4m4 0h4m4 0h4m4 0h4m4 0h4m4 0h4m4 0h4m4 0h4m4 0h4m4 0h4m4 0h4m4 0h4m4 0h4m4 0h4m4 0h4m4 0h4m4 0h3"/><path stroke="#5A4632" d="M89.5 4v26m40-26v26m67-26v26"/><path stroke="#5E3D0E" d="M403.5 16v2m-15.5 .5h1m0 8h3"/><path stroke="#6E5132" d="M402 15.5h2m.5 .5v3m-3-2v3m-21.5-.5h3m1 0h2m18 0h2m-15 1h2m11.5-.5v4m-19.5-2.5h1m7.5-.5v3m8-2v2m-16.5-.5h1m5 1h2m-108 1h1m11 0h7m99.5-.5v3m-117.5-1.5h11m97 0h1m-109 1h11m99.5-.5v2m2.5-.5h3m-402 6h4m4 0h4m4 0h4m4 0h4m4 0h4m4 0h4m4 0h4m4 0h4m4 0h4m4 0h4m4 0h4m4 0h4m4 0h4m4 0h4m4 0h4m4 0h4m4 0h4m4 0h4m4 0h4m4 0h4m4 0h4m4 0h4m4 0h4m4 0h4m4 0h4m4 0h4m4 0h4m4 0h4m4 0h4m4 0h4m4 0h4m4 0h4m4 0h4m4 0h4m4 0h4m4 0h4m4 0h4m4 0h4m4 0h4m4 0h4m4 0h4m4 0h4m4 0h4m4 0h4m4 0h4m4 0h4m4 0h4m4 0h4m4 0h4m4 0h4m4 0h4m4 0h4"/><path stroke="#771F15" d="M117 26.5h2m1 0h1m0 1h1"/><path stroke="#835A17" d="M401 16.5h2m-15 1h4m-3 1h3m8 0h1m2.5-.5v5m-17.5-3.5h4m9 0h2m-4.5 .5v6m-7-5v3m-3.5 1.5h4m1 0h1"/><path stroke="#957651" d="M388 15.5h14m-7 2h6m1.5-.5v3m-8.5-1.5h1m-121 2h107m5.5-.5v2m2.5-1.5h1m4 0h1m2 0h5m-126.5 .5v5m28.5-4.5h4m11 0h11m11 0h11m11 0h11m23 0h1m-94 1h4m11 0h11m11 0h11m11 0h11m25 0h2m-97 1h4m11 0h11m11 0h11m11 0h11m26 0h1m2.5-.5v2m-99.5-.5h4m11 0h11m11 0h11m11 0h11m16 1h1m-116.5 .5v5m125.5-4.5h1m4 0h2m-52 1h2m17 0h11m20 0h2m-99 1h11m11 0h11m11 0h11m11 0h11m12 0h2m4 0h1m1 0h2m-311 1h6m6 0h6m6 0h6m6 0h6m6 0h6m6 0h6m6 0h6m6 0h6m6 0h4m112 0h11m11 0h11m11 0h11m11 0h11m19 0h3m-99 1h11m11 0h11m11 0h11m11 0h11m11 0h11m-407 3h4m4 0h4m4 0h4m4 0h4m4 0h4m4 0h4m4 0h4m4 0h4m4 0h4m4 0h4m4 0h4m4 0h4m4 0h4m4 0h4m4 0h4m4 0h4m4 0h4m4 0h4m4 0h4m4 0h4m4 0h4m4 0h4m4 0h4m4 0h4m4 0h4m4 0h4m4 0h4m4 0h4m4 0h4m4 0h4m4 0h4m4 0h4m4 0h4m4 0h4m4 0h4m4 0h4m4 0h4m4 0h4m4 0h4m4 0h4m4 0h4m4 0h4m4 0h4m4 0h4m4 0h4m4 0h4m4 0h4m4 0h4m4 0h4m4 0h4m4 0h4m4 0h4"/><path stroke="#992E1F" d="M51 7.5h2m1 0h2m-5 1h5m-4 1h3m-2 1h1m66.5 13.5v2m-3.5-.5h2m2 1h1m-118 5h4m4 0h4m4 0h4m4 0h4m4 0h4m4 0h4m4 0h4m4 0h4m4 0h4m4 0h4m4 0h4m4 0h4m4 0h4m4 0h4m4 0h4m4 0h4m4 0h4m4 0h4m4 0h4m4 0h4m4 0h4m4 0h4m4 0h4m4 0h4m4 0h4m4 0h4m4 0h4m4 0h4m4 0h4m4 0h4m4 0h4m4 0h4m4 0h4m4 0h4m4 0h4m4 0h4m4 0h4m4 0h4m4 0h4m4 0h4m4 0h4m4 0h4m4 0h4m4 0h4m4 0h4m4 0h4m4 0h4m4 0h4m4 0h4m4 0h4m4 0h4m4 0h3"/><path stroke="#A1370B" d="M387 15.5h1m-2 1h1m-1.5 .5v2m-2.5 .5h1m-2 1h1m0 1h1m-269.5 .5v7m4.5-6.5h1m262 0h1m0 1h1m-2 1h1m0 1h1m1.5 .5v2m-266.5 .5h1m266 0h1m0 1h1"/><path stroke="#A57724" d="M397 16.5h4m-9 1h3m1 1h4m-10 1h2m4 0h1"/><path stroke="#B84631" d="M120 23.5h2m-5 1h2m2.5-.5v2"/><path stroke="#B99C73" d="M389 16.5h8m-5 2h2m-2 1h3m2 0h2m-18 1h1m3 0h1m1 0h2m1 0h1m2 0h1m8 0h1m2 0h1m-130 1h11m11 0h6m87 0h2m1.5-.5v3m3.5-2.5h5m-127 1h11m11 0h6m82.5-.5v3m1.5-2.5h1m8 0h2m3.5-.5v2m-126.5-.5h11m10 0h7m88 0h1m4 0h3m-124 1h11m10 0h7m85 0h1m3 0h2m2 0h1m1 0h3m-126 1h9m108 0h1m3 0h2m-3 1h1m2 0h1m2.5-.5v2m-10.5-.5h4m-110 1h11m92 0h6m-109 1h11m-201 1h6m6 0h6m6 0h6m6 0h6m6 0h6m6 0h6m6 0h6m6 0h6m6 0h4m90 0h11m-297 2h4m4 0h4m4 0h4m4 0h4m4 0h4m4 0h4m4 0h4m4 0h4m4 0h4m4 0h4m4 0h4m4 0h4m4 0h4m4 0h4m4 0h4m4 0h4m4 0h4m4 0h4m4 0h4m4 0h4m4 0h4m4 0h4m4 0h4m4 0h4m4 0h4m4 0h4m4 0h4m4 0h4m4 0h4m4 0h4m4 0h4m4 0h4m4 0h4m4 0h4m4 0h4m4 0h4m4 0h4m4 0h4m4 0h4m4 0h4m4 0h4m4 0h4m4 0h4m4 0h4m4 0h4m4 0h4m4 0h4m4 0h4m4 0h4m4 0h4m4 0h4m4 0h4"/><path stroke="#D27156" d="M116.5 24v3"/><path stroke="#D6BF97" d="M388 21.5h1m1 0h1m-6 1h1m4 0h3m-5 1h1m2 0h1m-7 1h1m1 0h2m1 0h1m7 0h1m3 0h1m-11 1h1m1 0h1m4 0h4m-11 1h2m3 0h2m-4 2h1m6 0h1m-403 3h4m4 0h4m4 0h4m4 0h4m4 0h4m4 0h4m4 0h4m4 0h4m4 0h4m4 0h4m4 0h4m4 0h4m4 0h4m4 0h4m4 0h4m4 0h4m4 0h4m4 0h4m4 0h4m4 0h4m4 0h4m4 0h4m4 0h4m4 0h4m4 0h4m4 0h4m4 0h4m4 0h4m4 0h4m4 0h4m4 0h4m4 0h4m4 0h4m4 0h4m4 0h4m4 0h4m4 0h4m4 0h4m4 0h4m4 0h4m4 0h4m4 0h4m4 0h4m4 0h4m4 0h4m4 0h4m4 0h4m4 0h4m4 0h4m4 0h4m4 0h4m4 0h4"/><path stroke="#E6A55A" d="M204 17.5h1m-2 1h3m-4 1h1m1.5-.5v5m1.5-4.5h1m-6 1h1m5 0h1"/><path stroke="#EADAB9" d="M395.5 20v7m-8.5-4.5h1m2 1h1m-7 1h1m2.5 1.5v2m.5 .5h1"/><path stroke="#F9F1E0" d="M388 16.5h1m-1.5 .5v2m8-1v2m-11.5 .5h1m-1 2h1"/><path stroke="#FAC774" d="M394 12.5h1m-1.5 .5v2m2-2v2m-280 8v5"/><path stroke="#FFECAB" d="M387 16.5h1m-1.5 .5v2m-3.5 1.5h1m0 1h1m-2 1h1m0 1h1m-2 1h1m2.5 1.5v2m.5 .5h1"/><path stroke="#FFFACB" d="M394.5 13v2"/><use href="#q0" x="0" y="27"/><use href="#q0" x="407" y="27"/><use href="#q0" x="0" y="0"/><use href="#q0" x="407" y="0"/><use href="#q41" x="282" y="13"/><use href="#q43" x="319" y="13"/><use href="#q42" x="296" y="4"/><use href="#q44" x="332" y="3"/><use href="#q45" x="352" y="3"/><g stroke="#C9B99C"><g transform="translate(0 7)"><use href="#q1" x="8"/><use href="#q2" x="12"/><use href="#q3" x="16"/><use href="#q4" x="20"/><use href="#q5" x="24"/><use href="#q6" x="31"/><use href="#q3" x="37"/><use href="#q5" x="41"/><use href="#q7" x="45"/><use href="#q1" x="59"/><use href="#q8" x="63"/><use href="#q4" x="94"/><use href="#q3" x="98"/><use href="#q19" x="102"/><use href="#q20" x="106"/><use href="#q21" x="110"/><use href="#q22" x="115"/><use href="#q20" x="119"/><use href="#q2" x="134"/><use href="#q26" x="138"/><use href="#q27" x="142"/><use href="#q28" x="146"/><use href="#q5" x="150"/><use href="#q20" x="154"/><use href="#q27" x="158"/><use href="#q35" x="201"/><use href="#q20" x="205"/><use href="#q5" x="209"/><use href="#q2" x="213"/><use href="#q35" x="217"/><use href="#q21" x="221"/><use href="#q5" x="229"/><use href="#q36" x="233"/></g></g><g stroke="#F2E8D4"><g transform="translate(0 17)"><use href="#q9" x="8"/><use href="#q10" x="14"/><use href="#q11" x="19"/><use href="#q12" x="25"/><use href="#q12" x="31"/><use href="#q13" x="37"/><use href="#q14" x="43"/><use href="#q15" x="49"/><use href="#q16" x="55"/><use href="#q17" x="61"/><use href="#q18" x="65"/><use href="#q13" x="71"/><use href="#q12" x="77"/><use href="#q23" x="94"/><use href="#q24" x="100"/><use href="#q25" x="104"/><use href="#q29" x="134"/><use href="#q30" x="140"/><use href="#q29" x="146"/><use href="#q31" x="152"/><use href="#q32" x="158"/><use href="#q30" x="162"/><use href="#q33" x="168"/><use href="#q32" x="174"/><use href="#q29" x="178"/><use href="#q34" x="184"/><use href="#q37" x="211"/><use href="#q11" x="217"/><use href="#q38" x="223"/><use href="#q39" x="229"/><use href="#q10" x="238"/><use href="#q16" x="243"/><use href="#q25" x="253"/><use href="#q16" x="259"/><use href="#q40" x="265"/></g></g></g></svg>
