<svg xmlns="http://www.w3.org/2000/svg" width="360" height="386" viewBox="0 0 360 386" role="img" aria-labelledby="t d" shape-rendering="crispEdges"><title id="t">banners</title><desc id="d">Blueprint headers and footers a README draws for itself. Measured nightly, never fetched, so they are up for as long as GitHub is. Project: tannergolden/banners. Release: v1.0.0. Stars: 0. Forks: 0. Open issues: 0. Language: Python. License: MIT.</desc><!--markdown-kit v1 thanksgiving H2 day narrow still--><g transform="scale(2)"><defs><pattern id="pd" width="8" height="8" patternUnits="userSpaceOnUse"><rect x="4" y="4" width="1" height="1" fill="#E6DAC6"/></pattern><pattern id="rodh" width="8" height="3" patternUnits="userSpaceOnUse"><path stroke="#4A2B1A" d="M1 2.5h1"/><path stroke="#6A4B10" d="M0 2.5h1m1 0h1"/><path stroke="#8C5A37" d="M5 1.5h1"/><path stroke="#977019" d="M3 2.5h5"/><path stroke="#B07E55" d="M1 .5h1"/><path stroke="#C39A2C" d="M4 1.5h1m1 0h1"/><path stroke="#DDBB52" d="M0 .5h1m1 0h1m-3 1h4m3 0h1"/><path stroke="#EDD58C" d="M3 .5h5"/></pattern><pattern id="rodv" width="3" height="8" patternUnits="userSpaceOnUse"><path stroke="#4A2B1A" d="M2 1.5h1"/><path stroke="#6A4B10" d="M2 .5h1m-1 2h1"/><path stroke="#8C5A37" d="M1 5.5h1"/><path stroke="#977019" d="M2.5 3v5"/><path stroke="#B07E55" d="M0 1.5h1"/><path stroke="#C39A2C" d="M1 4.5h1m-1 2h1"/><path stroke="#DDBB52" d="M0 .5h2m-1 1h1m-2 1h2m-1 1h1m-1 4h1"/><path stroke="#EDD58C" d="M.5 3v5"/></pattern><rect id="rodH" width="180" height="3" fill="url(#rodh)"/><rect id="rodV" width="3" height="187" fill="url(#rodv)"/><g id="q0"><path stroke="#4A2B1A" d="M26.5 4v2"/><path stroke="#6B4026" d="M0 .5h2m27 0h1m3 0h1m-32 1h2m24 0h1m1 0h1m1 0h1m-29 1h7m1 0h1m11 0h6m-19 1h2m1 0h8m1 0h2m-5 1h1m3 0h2m-3 1h1m1 0h1"/><path stroke="#8C5A37" d="M29-1.5h1m-2 1h3m-3 1h1m-6 4h1m0 1h1"/><path stroke="#977019" d="M26.5 6v2m-1.5 .5h1"/><path stroke="#9B2335" d="M3 3.5h2m-4 1h2m6 0h1m-8 1h1m5 0h1m8 0h1m-2 1h1"/><path stroke="#B07E55" d="M28.5-3v2m-2.5-.5h1m-1 1h2m-1 1h1m-24 1h1m26 0h1m-19 2h1m8 0h1"/><path stroke="#BF3E4A" d="M5 3.5h1m2 0h1m-6 1h3m1 0h1m8 0h1m-14 1h2m10 0h1m-15 1h4m-4 1h1m1 0h1"/><path stroke="#C05A1C" d="M11 1.5h1"/><path stroke="#C39A2C" d="M19 5.5h2m-4 1h2m6.5-.5v2m-7.5-.5h1"/><path stroke="#DDBB52" d="M21 5.5h1m-3 1h3m2.5-.5v2m-5.5-.5h2m-4 1h4m-4 1h1m1 0h1"/><path stroke="#DE6E6E" d="M6 4.5h1m1 0h1m-4 1h2m9 0h1m-12 1h3m-4 1h2m1 0h1m-4 1h1"/><path stroke="#E07E2E" d="M11-.5h1m-2 1h3m-1 1h1"/><path stroke="#EDD58C" d="M22 6.5h2m-3 1h2m-2 1h3m-4 1h2m1 0h1m-4 1h1"/><path stroke="#F2A65A" d="M12.5-2v2m1.5-.5h1m-2 1h2m-2 1h1"/></g><g id="q1"><path stroke="#4A2B1A" d="M18 5.5h1"/><path stroke="#5E7438" d="M29 .5h1"/><path stroke="#6B4026" d="M0 .5h2m31 0h1m-32 1h2m24 0h1m1 0h1m1 0h1m-29 1h7m1 0h1m11 0h6m-27 1h2m6 0h2m1 0h8m1 0h1m-23 1h2m13 0h1m3 0h1m-19 1h1m13 0h2m-3 1h1"/><path stroke="#7E934E" d="M29-1.5h1m-2 1h3m-3 1h1"/><path stroke="#8C5A37" d="M5 3.5h1m-3 1h3m-3 1h2m10 0h1m-15 1h4m11 0h1m-16 1h1m1 0h1"/><path stroke="#9B2335" d="M9 4.5h1m15 0h1m-18 1h1m10 0h2m3 0h1m-8 1h2m-1 1h1"/><path stroke="#A6B676" d="M28.5-3v2m-2.5-.5h1m-1 1h2m-1 1h1"/><path stroke="#B07E55" d="M4 1.5h1m26 0h1m-19 2h1m8 0h1m-17 1h1m-2 1h2m-2 1h3m-4 1h2m1 0h1m-4 1h1"/><path stroke="#BF3E4A" d="M8 3.5h1m15 0h1m-18 1h1m15 0h1m-3 1h1m-3 1h3m-3 1h2m-4 1h4m-4 1h1m1 0h1"/><path stroke="#C05A1C" d="M13 1.5h1"/><path stroke="#C39A2C" d="M17 7.5h1"/><path stroke="#DDBB52" d="M16.5 7v2"/><path stroke="#DE6E6E" d="M8 4.5h1m15 0h1m-3 2h2m-3 1h2m-2 1h3m-4 1h2m1 0h1m-4 1h1"/><path stroke="#E07E2E" d="M13-.5h1m-2 1h3m-3 1h1"/><path stroke="#F2A65A" d="M12.5-2v2m-2.5-.5h1m-1 1h2m-1 1h1"/></g><g id="q2"><path stroke="#4A2B1A" d="M3 1.5h1m2.5 .5v2"/><path stroke="#6B4026" d="M1 .5h1m-1 1h2m1 0h1m-5 1h1m1 0h1m1 0h2m-3 1h1m1 0h1"/><path stroke="#8C5A37" d="M0 1.5h1m0 1h1m1 0h1m0 1h1"/><path stroke="#977019" d="M3 4.5h1m2.5-.5v2m-4.5-.5h1m2 1h1"/><path stroke="#C39A2C" d="M2.5 3v2m3-1v2"/><path stroke="#DDBB52" d="M1.5 3v2m3-1v2"/></g><path id="q3" d="M0 .5h4m-3.5 .5v2m4-2v2m-4.5 .5h4m-3.5 .5v2m4-2v2m-4.5 .5h4"/><g id="q4"><use href="#q3" x=".33" y=".33" stroke="#C9BCA8"/><g stroke="#2E1A10"><use href="#q3" x="-.33"/><use href="#q3" x=".33"/><use href="#q3" y="-.33"/><use href="#q3" y=".33"/></g></g><path id="q5" d="M1 .5h3m-3.5 .5v2m4-2v2m-4.5 .5h5m-4.5 .5v3m4-3v3"/><g id="q6"><use href="#q5" x=".33" y=".33" stroke="#C9BCA8"/><g stroke="#2E1A10"><use href="#q5" x="-.33"/><use href="#q5" x=".33"/><use href="#q5" y="-.33"/><use href="#q5" y=".33"/></g></g><path id="q7" d="M0 .5h1m3.5-.5v3m-4.5-1.5h2m-1.5 .5v5m1.5-4.5h1m0 1h2m-.5 .5v3"/><g id="q8"><use href="#q7" x=".33" y=".33" stroke="#C9BCA8"/><g stroke="#2E1A10"><use href="#q7" x="-.33"/><use href="#q7" x=".33"/><use href="#q7" y="-.33"/><use href="#q7" y=".33"/></g></g><path id="q9" d="M0 .5h5m-4.5 .5v2m-.5 .5h4m-3.5 .5v2m-.5 .5h5"/><g id="q10"><use href="#q9" x=".33" y=".33" stroke="#C9BCA8"/><g stroke="#2E1A10"><use href="#q9" x="-.33"/><use href="#q9" x=".33"/><use href="#q9" y="-.33"/><use href="#q9" y=".33"/></g></g><path id="q11" d="M0 .5h4m-3.5 .5v2m4-2v2m-4.5 .5h4m-3.5 .5v3m1.5-2.5h1m0 1h1m0 1h1"/><g id="q12"><use href="#q11" x=".33" y=".33" stroke="#C9BCA8"/><g stroke="#2E1A10"><use href="#q11" x="-.33"/><use href="#q11" x=".33"/><use href="#q11" y="-.33"/><use href="#q11" y=".33"/></g></g><path id="q13" d="M1 .5h4m-4.5 .5v2m.5 .5h3m.5 .5v2m-4.5 .5h4"/><g id="q14"><use href="#q13" x=".33" y=".33" stroke="#C9BCA8"/><g stroke="#2E1A10"><use href="#q13" x="-.33"/><use href="#q13" x=".33"/><use href="#q13" y="-.33"/><use href="#q13" y=".33"/></g></g><pattern id="paautumn3d" width="4" height="7" patternUnits="userSpaceOnUse"><path fill="#DDBB52" d="M0 0h4v1h-4z"/><path fill="#C39A2C" d="M0 1h4v1h-4z"/><path fill="#E07E2E" d="M0 2h4v1h-4z"/><path fill="#C05A1C" d="M0 3h4v1h-4z"/><path fill="#BF3E4A" d="M0 4h4v1h-4z"/><path fill="#9B2335" d="M0 5h4v1h-4z"/><path fill="#74142A" d="M0 6h4v1h-4z"/></pattern><g id="q16"><path stroke="#C05A1C" d="M2 1.5h1"/><path stroke="#E07E2E" d="M1 1.5h1"/><path stroke="#F2A65A" d="M1 .5h1m-2 1h1"/></g><g id="q17"><path stroke="#9B2335" d="M0 1.5h1"/><path stroke="#BF3E4A" d="M1 1.5h1"/><path stroke="#DE6E6E" d="M1 .5h1m0 1h1"/></g><path id="q18" d="M1 .5h2m-3 1h1m0 1h1m0 1h1m-3 1h2"/><path id="q19" d="M0 .5h3m-3 1h1m-1 1h2m-2 1h1m-1 1h3"/><path id="q20" d="M1 .5h2m-2.5 .5v3m.5 .5h2"/><path id="q21" d="M0 .5h3m-1.5 .5v4"/><path id="q22" d="M0 .5h3m-1.5 .5v3m-1.5 .5h3"/><path id="q23" d="M1 .5h1m-1.5 .5v3m2-3v3m-1.5 .5h1"/><path id="q24" d="M0 .5h1m2.5-.5v2m-3.5-.5h2m-1.5 .5v3m1.5-2.5h2m-.5 .5v2"/><path id="q25" d="M1 .5h1m-2 1h1m1 0h1m-3 1h3m-2.5 .5v2m2-2v2"/><path id="q26" d="M0 2.5h3"/><path id="q27" d="M0 .5h2m-.5 .5v5m-1.5 .5h3"/><path id="q28" d="M.5 2v4m4-4v3m-1.5 .5h2m-4 1h2m1 0h1"/><path id="q29" d="M1 2.5h3m-4 1h1m3 0h1m-5 1h5m-5 1h1m0 1h3"/><path id="q30" d="M0 2.5h4m-3.5 .5v2m4-2v2m-4.5 .5h4m-3.5 .5v3"/><path id="q31" d="M0 2.5h1m1 0h2m-4 1h2m2 0h1m-4.5 .5v3"/><path id="q32" d="M1 .5h1m-2 2h2m-.5 .5v3m-1.5 .5h3"/><path id="q33" d="M0 2.5h1m1 0h2m-4 1h2m2.5-.5v4m-4-3v3"/><path id="q34" d="M1.5 0v2m-1.5 .5h3m-1.5 .5v3m1.5-.5h1m-2 1h1"/><path id="q35" d="M.5 0v3m1.5-.5h2m-4 1h2m2.5-.5v4m-4-3v3"/><path id="q36" d="M1 2.5h3m0 1h1m-4 1h4m-5 1h1m3 0h1m-4 1h4"/><path id="q37" d="M4.5 0v3m-3.5-.5h2m-2.5 .5v3m2.5-2.5h2m-.5 .5v2m-3.5 .5h4"/><path id="q38" d="M1 2.5h4m-5 1h1m0 1h3m0 1h1m-5 1h4"/><path id="q39" d="M2 .5h2m-2.5 .5v2m-1.5 .5h3m-1.5 .5v3"/><path id="q40" d="M1 2.5h3m-3.5 .5v3m4-3v3m-3.5 .5h3"/><path id="q41" d="M0 .5h3m-2.5 .5v5m2.5-4.5h1m.5 .5v3m-1.5 .5h1m-4 1h3"/><path id="q42" d="M0 .5h1m3 0h1m-5 1h2m1 0h2m-4.5 .5v5m2-5v2m2-2v5"/><path id="q43" d="M.5 2v4m4-4v4m-2-2v2m-1.5 .5h1m1 0h1"/><path id="q44" d="M0 6.5h1"/><path id="q45" d="M1 2.5h4m-4.5 .5v2m4-2v2m-3.5 .5h4m-.5 .5v2m-4.5-.5h1m0 1h3"/><path id="q46" d="M.5 2v3m4-3v3m-3.5 .5h4m-.5 .5v2m-4.5-.5h1m0 1h3"/><path id="q47" d="M1.5 5v2m-1.5 .5h1"/><path id="q48" d="M.5 2v3m4-3v3m-3.5 .5h1m1 0h1m-2 1h1"/><path id="q49" d="M1 2.5h3m-3.5 .5v3m3.5-.5h1m-4 1h3"/><path id="q50" d="M1 .5h3m-3.5 .5v5m3.5-4.5h1m-3 2h3m-.5 .5v2m-3.5 .5h4"/><path id="q51" d="M.5 0v3m4-3v3m-4.5 .5h5m-4.5 .5v3m4-3v3"/><path id="q52" d="M.5 0v3m1.5-.5h2m-4 1h2m2.5-.5v3m-4-2v2m-.5 .5h4"/><g id="q53"><path stroke="#6B4026" d="M0 1.5h1"/><path stroke="#8C5A37" d="M1 1.5h1"/><path stroke="#B07E55" d="M1 .5h1m0 1h1"/></g><g id="q54"><path stroke="#C39A2C" d="M0 1.5h1"/><path stroke="#DDBB52" d="M1 1.5h1"/><path stroke="#EDD58C" d="M1 .5h1m0 1h1"/></g><g id="q55"><path stroke="#9B2335" d="M2 1.5h1"/><path stroke="#BF3E4A" d="M1 1.5h1"/><path stroke="#DE6E6E" d="M1 .5h1m-2 1h1"/></g><g id="q56"><path stroke="#C39A2C" d="M2 1.5h1"/><path stroke="#DDBB52" d="M1 1.5h1"/><path stroke="#EDD58C" d="M1 .5h1m-2 1h1"/></g><g id="q57"><path stroke="#6B4026" d="M2 1.5h1"/><path stroke="#8C5A37" d="M1 1.5h1"/><path stroke="#B07E55" d="M1 .5h1m-2 1h1"/></g><g id="q58"><path stroke="#C05A1C" d="M0 1.5h1"/><path stroke="#E07E2E" d="M1 1.5h1"/><path stroke="#F2A65A" d="M1 .5h1m0 1h1"/></g><path id="q59" d="M0 .5h2m-2 1h1m1 0h1m-3 1h2m-1.5 .5v2"/><path id="q60" d="M0 .5h2m-2 1h1m1 0h1m-3 1h2m-1.5 .5v2m2-2v2"/><path id="q61" d="M2.5 0v4m-2.5-.5h1m0 1h1"/><path id="q62" d="M4.5 0v2m-1.5 .5h1m-2 1h1m-2 1h1m-1.5 .5v2"/><path id="q63" d="M.5 0v4m-.5 .5h3"/><path id="q64" d="M1 .5h1m-2 1h2m-.5 .5v4m-1.5 .5h3"/><path id="q65" d="M1 .5h3m-3.5 .5v3m3.5-2.5h1m-2 1h2m-3 1h1m1.5-.5v3m-4.5-1.5h2m-2 1h1m0 1h3"/><path id="q66" d="M0 .5h3m-3 1h1m-1 1h2m-1.5 .5v2"/><path id="q67" d="M.5 0v2m2-2v2m-2.5 .5h2m-1.5 .5v2m2-2v2"/><path id="q68" d="M.5 0v4m2-4v4m-2.5 .5h3"/><path id="q69" d="M1 .5h2m-2.5 .5v3m2-2v2m-1.5 .5h2"/><path id="q70" d="M0 .5h4m-3.5 .5v2m4-2v2m-4.5 .5h4m-3.5 .5v3"/><path id="q71" d="M0 .5h3m-1.5 .5v5m-1.5 .5h3"/><path id="q72" d="M0 .5h5m-2.5 .5v6"/></defs><rect x="0" y="0" width="180" height="193" fill="#F8F2E7"/><rect x="0" y="0" width="180" height="193" fill="url(#pd)"/><use href="#rodH" x="0" y="0"/><use href="#rodH" x="0" y="190"/><use href="#rodV" x="0" y="3"/><use href="#rodV" x="177" y="3"/><path stroke="#4A2B1A" d="M36.5 118v2"/><path stroke="#6B4026" d="M72 58.5h1m89 1h1m-129 58h1m-1 1h2m-3 1h1m1 0h1"/><path stroke="#8C5A37" d="M33 118.5h1m0 1h1m-31 4h172m-37.5 .5v21m-134.5 .5h172m-127.5 .5v21m44-21v21m-88.5 .5h172m-79.5 .5v21"/><path stroke="#977019" d="M36.5 120v2m-1.5 .5h1"/><path stroke="#9B2335" d="M3 3.5h174m-173.5 .5v185m173-185v185m-102.5-133.5h1m-1 1h2m-4 1h2m-71 132h174"/><path stroke="#BF3E4A" d="M73 53.5h1m1 0h1m-4 1h4m-4 1h2m-3 1h3m-3 1h1"/><path stroke="#C05A1C" d="M166 56.5h1m-2 1h1m-3 1h1"/><path stroke="#C39A2C" d="M35.5 120v2"/><path stroke="#DDBB52" d="M34.5 120v2"/><path stroke="#DE6E6E" d="M72 52.5h1m-4 1h1m1 0h2m-4 1h3m-2 1h2m-3 1h2"/><path stroke="#E07E2E" d="M163.5 52v2m2.5-.5h1m-5 1h2m1 0h2m-5 1h4m-4 1h4m-5 1h4m-3 1h1"/><path stroke="#F2A65A" d="M162 51.5h1m-2 1h2m-5 1h1m2 0h2m-5 1h2m1 0h1m-3 1h3m-4 1h4m-3 1h2m0 1h1"/><use href="#q4" transform="translate(22 28) scale(3)"/><use href="#q6" transform="translate(40 28) scale(3)"/><use href="#q8" transform="translate(58 28) scale(3)"/><use href="#q8" transform="translate(76 28) scale(3)"/><use href="#q10" transform="translate(94 28) scale(3)"/><use href="#q12" transform="translate(112 28) scale(3)"/><use href="#q14" transform="translate(130 28) scale(3)"/><g transform="translate(0 5)"><use href="#q0" x="5"/><use href="#q1" x="39"/><use href="#q0" x="73"/><use href="#q1" x="107"/><use href="#q0" x="141"/></g><g transform="translate(0 4)"><use href="#q2" x="2"/><use href="#q2" x="36"/><use href="#q2" x="70"/><use href="#q2" x="104"/><use href="#q2" x="138"/><use href="#q2" x="168"/></g><g transform="translate(0 121)"><use href="#q53" x="6"/><use href="#q54" x="8"/><use href="#q55" x="19"/><use href="#q55" x="55"/><use href="#q16" x="62"/><use href="#q56" x="74"/><use href="#q16" x="93"/><use href="#q17" x="95"/><use href="#q57" x="104"/><use href="#q54" x="106"/><use href="#q17" x="115"/><use href="#q17" x="117"/><use href="#q56" x="127"/><use href="#q17" x="140"/><use href="#q54" x="142"/><use href="#q58" x="149"/><use href="#q56" x="169"/><use href="#q53" x="171"/></g><g stroke="url(#paautumn3d)"><use href="#q3" transform="translate(22 28) scale(3)"/><use href="#q5" transform="translate(40 28) scale(3)"/><use href="#q7" transform="translate(58 28) scale(3)"/><use href="#q7" transform="translate(76 28) scale(3)"/><use href="#q9" transform="translate(94 28) scale(3)"/><use href="#q11" transform="translate(112 28) scale(3)"/><use href="#q13" transform="translate(130 28) scale(3)"/></g><g stroke="#9E3413"><g transform="translate(0 54)"><use href="#q18" x="22"/><use href="#q19" x="26"/><use href="#q20" x="30"/><use href="#q21" x="34"/><use href="#q22" x="38"/><use href="#q23" x="42"/><use href="#q24" x="46"/><use href="#q25" x="54"/><use href="#q26" x="58"/><use href="#q25" x="62"/></g></g><g stroke="#2A1A10"><g transform="translate(0 66)"><use href="#q3" x="22"/><use href="#q27" x="28"/><use href="#q28" x="32"/><use href="#q29" x="38"/><use href="#q30" x="44"/><use href="#q31" x="50"/><use href="#q32" x="56"/><use href="#q33" x="60"/><use href="#q34" x="66"/><use href="#q35" x="75"/><use href="#q29" x="81"/><use href="#q36" x="87"/><use href="#q37" x="93"/><use href="#q29" x="99"/><use href="#q31" x="105"/><use href="#q38" x="111"/><use href="#q36" x="121"/><use href="#q33" x="127"/><use href="#q37" x="133"/></g><g transform="translate(0 76)"><use href="#q39" x="22"/><use href="#q40" x="27"/><use href="#q40" x="33"/><use href="#q34" x="39"/><use href="#q29" x="44"/><use href="#q31" x="50"/><use href="#q38" x="56"/><use href="#q36" x="66"/><use href="#q11" x="76"/><use href="#q9" x="82"/><use href="#q5" x="88"/><use href="#q41" x="94"/><use href="#q42" x="100"/><use href="#q9" x="106"/><use href="#q37" x="116"/><use href="#q31" x="122"/><use href="#q36" x="128"/><use href="#q43" x="134"/><use href="#q38" x="140"/><use href="#q39" x="150"/><use href="#q40" x="155"/><use href="#q31" x="161"/></g><g transform="translate(0 86)"><use href="#q32" x="22"/><use href="#q34" x="26"/><use href="#q38" x="31"/><use href="#q29" x="37"/><use href="#q27" x="43"/><use href="#q39" x="47"/><use href="#q44" x="52"/><use href="#q42" x="58"/><use href="#q29" x="64"/><use href="#q36" x="70"/><use href="#q38" x="76"/><use href="#q28" x="82"/><use href="#q31" x="88"/><use href="#q29" x="94"/><use href="#q37" x="100"/><use href="#q33" x="110"/><use href="#q32" x="116"/><use href="#q45" x="120"/><use href="#q35" x="126"/><use href="#q34" x="132"/><use href="#q27" x="137"/><use href="#q46" x="141"/><use href="#q47" x="147"/></g><g transform="translate(0 96)"><use href="#q33" x="22"/><use href="#q29" x="28"/><use href="#q48" x="34"/><use href="#q29" x="40"/><use href="#q31" x="46"/><use href="#q39" x="56"/><use href="#q29" x="61"/><use href="#q34" x="67"/><use href="#q49" x="72"/><use href="#q35" x="78"/><use href="#q29" x="84"/><use href="#q37" x="90"/><use href="#q47" x="96"/><use href="#q38" x="103"/><use href="#q40" x="109"/><use href="#q34" x="119"/><use href="#q35" x="124"/><use href="#q29" x="130"/><use href="#q46" x="136"/><use href="#q36" x="146"/><use href="#q31" x="152"/><use href="#q29" x="158"/></g><g transform="translate(0 106)"><use href="#q28" x="22"/><use href="#q30" x="28"/><use href="#q39" x="38"/><use href="#q40" x="43"/><use href="#q31" x="49"/><use href="#q36" x="59"/><use href="#q38" x="65"/><use href="#q27" x="75"/><use href="#q40" x="79"/><use href="#q33" x="85"/><use href="#q45" x="91"/><use href="#q36" x="101"/><use href="#q38" x="107"/><use href="#q50" x="117"/><use href="#q32" x="123"/><use href="#q34" x="127"/><use href="#q51" x="132"/><use href="#q28" x="138"/><use href="#q52" x="144"/><use href="#q32" x="154"/><use href="#q38" x="158"/><use href="#q44" x="164"/></g><g transform="translate(0 134)"><use href="#q34" x="8"/><use href="#q36" x="13"/><use href="#q33" x="19"/><use href="#q33" x="25"/><use href="#q29" x="31"/><use href="#q31" x="37"/><use href="#q45" x="43"/><use href="#q40" x="49"/><use href="#q27" x="55"/><use href="#q37" x="59"/><use href="#q29" x="65"/><use href="#q33" x="71"/><use href="#q62" x="77"/><use href="#q52" x="83"/><use href="#q36" x="89"/><use href="#q33" x="95"/><use href="#q33" x="101"/><use href="#q29" x="107"/><use href="#q31" x="113"/><use href="#q38" x="119"/><use href="#q48" x="142"/><use href="#q64" x="148"/><use href="#q44" x="152"/><use href="#q65" x="154"/><use href="#q44" x="160"/><use href="#q65" x="162"/></g><g transform="translate(0 156)"><use href="#q65" x="8"/><use href="#q65" x="52"/><use href="#q65" x="96"/></g><g transform="translate(0 178)"><use href="#q70" x="8"/><use href="#q46" x="14"/><use href="#q34" x="20"/><use href="#q35" x="25"/><use href="#q40" x="31"/><use href="#q33" x="37"/><use href="#q42" x="100"/><use href="#q71" x="106"/><use href="#q72" x="110"/></g></g><g stroke="#6B4F3D"><g transform="translate(0 127)"><use href="#q59" x="8"/><use href="#q60" x="12"/><use href="#q23" x="16"/><use href="#q61" x="20"/><use href="#q19" x="24"/><use href="#q20" x="28"/><use href="#q21" x="32"/><use href="#q60" x="142"/><use href="#q19" x="146"/><use href="#q63" x="150"/><use href="#q19" x="154"/><use href="#q25" x="158"/><use href="#q18" x="162"/><use href="#q19" x="166"/></g><g transform="translate(0 149)"><use href="#q18" x="8"/><use href="#q21" x="12"/><use href="#q25" x="16"/><use href="#q60" x="20"/><use href="#q18" x="24"/><use href="#q66" x="52"/><use href="#q23" x="56"/><use href="#q60" x="60"/><use href="#q67" x="64"/><use href="#q18" x="68"/><use href="#q23" x="96"/><use href="#q59" x="100"/><use href="#q19" x="104"/><use href="#q24" x="108"/><use href="#q22" x="116"/><use href="#q18" x="120"/><use href="#q18" x="124"/><use href="#q68" x="128"/><use href="#q19" x="132"/><use href="#q18" x="136"/></g><g transform="translate(0 171)"><use href="#q63" x="8"/><use href="#q25" x="12"/><use href="#q24" x="16"/><use href="#q69" x="21"/><use href="#q68" x="25"/><use href="#q25" x="29"/><use href="#q69" x="33"/><use href="#q19" x="37"/><use href="#q63" x="100"/><use href="#q22" x="104"/><use href="#q20" x="108"/><use href="#q19" x="112"/><use href="#q24" x="116"/><use href="#q18" x="121"/><use href="#q19" x="125"/></g></g><use href="#q16" x="45" y="26"/><use href="#q17" x="99" y="26"/></g></svg>
