<svg xmlns="http://www.w3.org/2000/svg" width="360" height="356" viewBox="0 0 360 356" role="img" aria-labelledby="t d" shape-rendering="crispEdges"><title id="t">banners</title><desc id="d">Blueprint headers and footers a README draws for itself. Measured nightly, never fetched, so they are up for as long as GitHub is. Project: tannergolden/banners. Release: v1.0.0. Stars: 0. Forks: 0. Open issues: 0. Language: Python. License: MIT.</desc><!--markdown-kit v1 thanksgiving H3 dark narrow still--><g transform="scale(2)"><defs><pattern id="pd" width="8" height="8" patternUnits="userSpaceOnUse"><rect x="4" y="4" width="1" height="1" fill="#2A1B18"/></pattern><pattern id="rodh" width="8" height="3" patternUnits="userSpaceOnUse"><path stroke="#2E1A10" d="M1 2.5h1"/><path stroke="#3E2A08" d="M0 2.5h1m1 0h1"/><path stroke="#6A4B10" d="M3 2.5h5"/><path stroke="#6B4026" d="M5 1.5h1"/><path stroke="#8C5A37" d="M1 .5h1"/><path stroke="#977019" d="M4 1.5h1m1 0h1"/><path stroke="#C39A2C" d="M0 .5h1m1 0h1m-3 1h4m3 0h1"/><path stroke="#DDBB52" d="M3 .5h5"/></pattern><pattern id="rodv" width="3" height="8" patternUnits="userSpaceOnUse"><path stroke="#2E1A10" d="M2 1.5h1"/><path stroke="#3E2A08" d="M2 .5h1m-1 2h1"/><path stroke="#6A4B10" d="M2.5 3v5"/><path stroke="#6B4026" d="M1 5.5h1"/><path stroke="#8C5A37" d="M0 1.5h1"/><path stroke="#977019" d="M1 4.5h1m-1 2h1"/><path stroke="#C39A2C" d="M0 .5h2m-1 1h1m-2 1h2m-1 1h1m-1 4h1"/><path stroke="#DDBB52" d="M.5 3v5"/></pattern><rect id="rodH" width="180" height="3" fill="url(#rodh)"/><rect id="rodV" width="3" height="172" fill="url(#rodv)"/><g id="q0"><path stroke="#2E1A10" d="M26.5 4v2"/><path stroke="#4A2B1A" d="M29 .5h1m-2 1h1m-25 1h1m7 0h1m11 1h1m-5 1h1m3 0h2m-3 1h1m1 0h1"/><path stroke="#6A4B10" d="M26.5 6v2m-1.5 .5h1"/><path stroke="#6B4026" d="M29-1.5h1m-2 1h3m-3 1h1m-6 4h1m0 1h1"/><path stroke="#74142A" d="M3 3.5h2m-4 1h2m6 0h1m-8 1h1m5 0h1m8 0h1m-2 1h1"/><path stroke="#8C5A37" d="M28.5-3v2m-2.5-.5h1m-1 1h2m-28 1h2m25 0h1m5 0h1m-32 1h2m26 0h1m1 0h1m-28 1h6m13 0h6m-19 1h2m1 0h8m1 0h1"/><path stroke="#8F3A12" d="M11 1.5h1"/><path stroke="#977019" d="M19 5.5h2m-4 1h2m6.5-.5v2m-7.5-.5h1"/><path stroke="#9B2335" d="M5 3.5h1m2 0h1m-6 1h3m1 0h1m8 0h1m-14 1h2m10 0h1m-15 1h4m-4 1h1m1 0h1"/><path stroke="#B07E55" d="M4 1.5h1m26 0h1m-19 2h1m8 0h1"/><path stroke="#BF3E4A" d="M6 4.5h1m1 0h1m-4 1h2m9 0h1m-12 1h3m-4 1h2m1 0h1m-4 1h1"/><path stroke="#C05A1C" d="M11-.5h1m-2 1h3m-1 1h1"/><path stroke="#C39A2C" d="M21 5.5h1m-3 1h3m2.5-.5v2m-5.5-.5h2m-4 1h4m-4 1h1m1 0h1"/><path stroke="#DDBB52" d="M22 6.5h2m-3 1h2m-2 1h3m-4 1h2m1 0h1m-4 1h1"/><path stroke="#E07E2E" d="M12.5-2v2m1.5-.5h1m-2 1h2m-2 1h1"/></g><g id="q1"><path stroke="#2E1A10" d="M18 5.5h1"/><path stroke="#43562A" d="M29 .5h1"/><path stroke="#4A2B1A" d="M28 1.5h1m-25 1h1m7 0h1m-10 1h2m-4 1h2m13 0h1m3 0h1m-19 1h1m13 0h2m-3 1h1"/><path stroke="#5E7438" d="M29-1.5h1m-2 1h3m-3 1h1"/><path stroke="#6B4026" d="M5 3.5h1m-3 1h3m-3 1h2m10 0h1m-15 1h4m11 0h1m-16 1h1m1 0h1"/><path stroke="#74142A" d="M9 4.5h1m15 0h1m-18 1h1m10 0h2m3 0h1m-8 1h2m-1 1h1"/><path stroke="#7E934E" d="M28.5-3v2m-2.5-.5h1m-1 1h2m-1 1h1"/><path stroke="#8C5A37" d="M0 .5h2m31 0h1m-32 1h2m26 0h1m1 0h1m-28 1h6m13 0h6m-19 1h2m1 0h8m1 0h1m-18 1h1m-2 1h2m-2 1h3m-4 1h2m1 0h1m-4 1h1"/><path stroke="#8F3A12" d="M13 1.5h1"/><path stroke="#977019" d="M17 7.5h1"/><path stroke="#9B2335" d="M8 3.5h1m15 0h1m-18 1h1m15 0h1m-3 1h1m-3 1h3m-3 1h2m-4 1h4m-4 1h1m1 0h1"/><path stroke="#B07E55" d="M4 1.5h1m26 0h1m-19 2h1m8 0h1"/><path stroke="#BF3E4A" d="M8 4.5h1m15 0h1m-3 2h2m-3 1h2m-2 1h3m-4 1h2m1 0h1m-4 1h1"/><path stroke="#C05A1C" d="M13-.5h1m-2 1h3m-3 1h1"/><path stroke="#C39A2C" d="M16.5 7v2"/><path stroke="#E07E2E" d="M12.5-2v2m-2.5-.5h1m-1 1h2m-1 1h1"/></g><g id="q2"><path stroke="#2E1A10" d="M3 1.5h1m2.5 .5v2"/><path stroke="#4A2B1A" d="M1 .5h1m-1 1h2m1 0h1m-5 1h1m1 0h1m1 0h2m-3 1h1m1 0h1"/><path stroke="#6A4B10" d="M3 4.5h1m2.5-.5v2m-4.5-.5h1m2 1h1"/><path stroke="#6B4026" d="M0 1.5h1m0 1h1m1 0h1m0 1h1"/><path stroke="#977019" d="M2.5 3v2m3-1v2"/><path stroke="#C39A2C" d="M1.5 3v2m3-1v2"/></g><path id="q3" d="M0 .5h4m-3.5 .5v2m4-2v2m-4.5 .5h4m-3.5 .5v2m4-2v2m-4.5 .5h4"/><path id="q4" d="M1 .5h3m-3.5 .5v2m4-2v2m-4.5 .5h5m-4.5 .5v3m4-3v3"/><path id="q5" d="M0 .5h1m3.5-.5v3m-4.5-1.5h2m-1.5 .5v5m1.5-4.5h1m0 1h2m-.5 .5v3"/><path id="q6" d="M0 .5h5m-4.5 .5v2m-.5 .5h4m-3.5 .5v2m-.5 .5h5"/><path id="q7" d="M0 .5h4m-3.5 .5v2m4-2v2m-4.5 .5h4m-3.5 .5v3m1.5-2.5h1m0 1h1m0 1h1"/><path id="q8" d="M1 .5h4m-4.5 .5v2m.5 .5h3m.5 .5v2m-4.5 .5h4"/><pattern id="paautumn3n" width="4" height="7" patternUnits="userSpaceOnUse"><path fill="#EDD58C" d="M0 0h4v1h-4z"/><path fill="#DDBB52" d="M0 1h4v1h-4z"/><path fill="#F2A65A" d="M0 2h4v1h-4z"/><path fill="#E07E2E" d="M0 3h4v1h-4z"/><path fill="#E8664A" d="M0 4h4v1h-4zM0 5h4v1h-4z"/><path fill="#D9573F" d="M0 6h4v1h-4z"/></pattern><g id="q10"><path stroke="#8F3A12" d="M2 1.5h1"/><path stroke="#C05A1C" d="M1 1.5h1"/><path stroke="#E07E2E" d="M1 .5h1m-2 1h1"/></g><g id="q11"><path stroke="#74142A" d="M0 1.5h1"/><path stroke="#9B2335" d="M1 1.5h1"/><path stroke="#BF3E4A" d="M1 .5h1m0 1h1"/></g><path id="q12" d="M0 .5h2m-.5 .5v5m-1.5 .5h3"/><path id="q13" d="M.5 2v4m4-4v3m-1.5 .5h2m-4 1h2m1 0h1"/><path id="q14" d="M1 2.5h3m-4 1h1m3 0h1m-5 1h5m-5 1h1m0 1h3"/><path id="q15" d="M0 2.5h4m-3.5 .5v2m4-2v2m-4.5 .5h4m-3.5 .5v3"/><path id="q16" d="M0 2.5h1m1 0h2m-4 1h2m2 0h1m-4.5 .5v3"/><path id="q17" d="M1 .5h1m-2 2h2m-.5 .5v3m-1.5 .5h3"/><path id="q18" d="M0 2.5h1m1 0h2m-4 1h2m2.5-.5v4m-4-3v3"/><path id="q19" d="M1.5 0v2m-1.5 .5h3m-1.5 .5v3m1.5-.5h1m-2 1h1"/><path id="q20" d="M.5 0v3m1.5-.5h2m-4 1h2m2.5-.5v4m-4-3v3"/><path id="q21" d="M1 2.5h3m0 1h1m-4 1h4m-5 1h1m3 0h1m-4 1h4"/><path id="q22" d="M4.5 0v3m-3.5-.5h2m-2.5 .5v3m2.5-2.5h2m-.5 .5v2m-3.5 .5h4"/><path id="q23" d="M1 2.5h4m-5 1h1m0 1h3m0 1h1m-5 1h4"/><path id="q24" d="M2 .5h2m-2.5 .5v2m-1.5 .5h3m-1.5 .5v3"/><path id="q25" d="M1 2.5h3m-3.5 .5v3m4-3v3m-3.5 .5h3"/><path id="q26" d="M0 .5h3m-2.5 .5v5m2.5-4.5h1m.5 .5v3m-1.5 .5h1m-4 1h3"/><path id="q27" d="M0 .5h1m3 0h1m-5 1h2m1 0h2m-4.5 .5v5m2-5v2m2-2v5"/><path id="q28" d="M.5 2v4m4-4v4m-2-2v2m-1.5 .5h1m1 0h1"/><path id="q29" d="M0 6.5h1"/><path id="q30" d="M1 2.5h4m-4.5 .5v2m4-2v2m-3.5 .5h4m-.5 .5v2m-4.5-.5h1m0 1h3"/><path id="q31" d="M.5 2v3m4-3v3m-3.5 .5h4m-.5 .5v2m-4.5-.5h1m0 1h3"/><path id="q32" d="M1.5 5v2m-1.5 .5h1"/><path id="q33" d="M.5 2v3m4-3v3m-3.5 .5h1m1 0h1m-2 1h1"/><path id="q34" d="M1 2.5h3m-3.5 .5v3m3.5-.5h1m-4 1h3"/><path id="q35" d="M1 .5h3m-3.5 .5v5m3.5-4.5h1m-3 2h3m-.5 .5v2m-3.5 .5h4"/><path id="q36" d="M.5 0v3m4-3v3m-4.5 .5h5m-4.5 .5v3m4-3v3"/><path id="q37" d="M.5 0v3m1.5-.5h2m-4 1h2m2.5-.5v3m-4-2v2m-.5 .5h4"/><g id="q38"><path stroke="#8F3A12" d="M0 1.5h1"/><path stroke="#C05A1C" d="M1 1.5h1"/><path stroke="#E07E2E" d="M1 .5h1m0 1h1"/></g><g id="q39"><path stroke="#4A2B1A" d="M0 1.5h1"/><path stroke="#6B4026" d="M1 1.5h1"/><path stroke="#8C5A37" d="M1 .5h1m0 1h1"/></g><g id="q40"><path stroke="#977019" d="M2 1.5h1"/><path stroke="#C39A2C" d="M1 1.5h1"/><path stroke="#DDBB52" d="M1 .5h1m-2 1h1"/></g><g id="q41"><path stroke="#74142A" d="M2 1.5h1"/><path stroke="#9B2335" d="M1 1.5h1"/><path stroke="#BF3E4A" d="M1 .5h1m-2 1h1"/></g><g id="q42"><path stroke="#977019" d="M0 1.5h1"/><path stroke="#C39A2C" d="M1 1.5h1"/><path stroke="#DDBB52" d="M1 .5h1m0 1h1"/></g><g id="q43"><path stroke="#4A2B1A" d="M2 1.5h1"/><path stroke="#6B4026" d="M1 1.5h1"/><path stroke="#8C5A37" d="M1 .5h1m-2 1h1"/></g><path id="q44" d="M0 .5h2m-2 1h1m1 0h1m-3 1h2m-1.5 .5v2"/><path id="q45" d="M0 .5h2m-2 1h1m1 0h1m-3 1h2m-1.5 .5v2m2-2v2"/><path id="q46" d="M1 .5h1m-1.5 .5v3m2-3v3m-1.5 .5h1"/><path id="q47" d="M2.5 0v4m-2.5-.5h1m0 1h1"/><path id="q48" d="M0 .5h3m-3 1h1m-1 1h2m-2 1h1m-1 1h3"/><path id="q49" d="M1 .5h2m-2.5 .5v3m.5 .5h2"/><path id="q50" d="M0 .5h3m-1.5 .5v4"/><path id="q51" d="M4.5 0v2m-1.5 .5h1m-2 1h1m-2 1h1m-1.5 .5v2"/><path id="q52" d="M.5 0v4m-.5 .5h3"/><path id="q53" d="M1 .5h1m-2 1h1m1 0h1m-3 1h3m-2.5 .5v2m2-2v2"/><path id="q54" d="M1 .5h2m-3 1h1m0 1h1m0 1h1m-3 1h2"/><path id="q55" d="M1 .5h1m-2 1h2m-.5 .5v4m-1.5 .5h3"/><path id="q56" d="M1 .5h3m-3.5 .5v3m3.5-2.5h1m-2 1h2m-3 1h1m1.5-.5v3m-4.5-1.5h2m-2 1h1m0 1h3"/><path id="q57" d="M0 .5h3m-3 1h1m-1 1h2m-1.5 .5v2"/><path id="q58" d="M.5 0v2m2-2v2m-2.5 .5h2m-1.5 .5v2m2-2v2"/><path id="q59" d="M0 .5h1m2.5-.5v2m-3.5-.5h2m-1.5 .5v3m1.5-2.5h2m-.5 .5v2"/><path id="q60" d="M0 .5h3m-1.5 .5v3m-1.5 .5h3"/><path id="q61" d="M.5 0v4m2-4v4m-2.5 .5h3"/><path id="q62" d="M1 .5h2m-2.5 .5v3m2-2v2m-1.5 .5h2"/><path id="q63" d="M0 .5h4m-3.5 .5v2m4-2v2m-4.5 .5h4m-3.5 .5v3"/><path id="q64" d="M0 .5h3m-1.5 .5v5m-1.5 .5h3"/><path id="q65" d="M0 .5h5m-2.5 .5v6"/></defs><rect x="0" y="0" width="180" height="36" fill="#0C0708"/><rect x="0" y="36" width="180" height="35" fill="#120A0C"/><rect x="0" y="71" width="180" height="36" fill="#190E10"/><rect x="0" y="107" width="180" height="35" fill="#211315"/><rect x="0" y="142" width="180" height="36" fill="#2A1819"/><rect x="0" y="0" width="180" height="178" fill="url(#pd)"/><path stroke="#3A2A28" d="M169 20.5h1"/><path stroke="#FAF0CC" d="M159 25.5h1"/><use href="#rodH" x="0" y="0"/><use href="#rodH" x="0" y="175"/><use href="#rodV" x="0" y="3"/><use href="#rodV" x="177" y="3"/><path stroke="#2E1A10" d="M170.5 39v2"/><path stroke="#4A2B1A" d="M160 38.5h1m7 0h1m-1 1h2m-3 1h1m1 0h1"/><path stroke="#6A4B10" d="M170.5 41v2m-1.5 .5h1"/><path stroke="#6B4026" d="M167 39.5h1m0 1h1"/><path stroke="#977019" d="M164 35.5h1m-2 1h1m-3 1h1m7.5 3.5v2"/><path stroke="#BF3E4A" d="M3 3.5h174m-173.5 .5v170m173-170v170m-173.5 .5h174"/><path stroke="#C39A2C" d="M161.5 31v2m2.5-.5h1m-5 1h2m1 0h2m-5 1h4m-4 1h4m-5 1h4m-3 1h1m7.5 3.5v2"/><path stroke="#C79A6B" d="M4 108.5h172m-37.5 .5v21m-134.5 .5h172m-127.5 .5v21m44-21v21m-88.5 .5h172m-79.5 .5v21"/><path stroke="#DDBB52" d="M160 30.5h1m-2 1h2m-5 1h1m2 0h2m-5 1h2m1 0h1m-3 1h3m-4 1h4m-3 1h2m0 1h1"/><g transform="translate(0 5)"><use href="#q0" x="5"/><use href="#q1" x="39"/><use href="#q0" x="73"/><use href="#q1" x="107"/><use href="#q0" x="141"/></g><g transform="translate(0 4)"><use href="#q2" x="2"/><use href="#q2" x="36"/><use href="#q2" x="70"/><use href="#q2" x="104"/><use href="#q2" x="138"/><use href="#q2" x="168"/></g><g transform="translate(0 106)"><use href="#q38" x="10"/><use href="#q39" x="24"/><use href="#q11" x="43"/><use href="#q40" x="50"/><use href="#q41" x="57"/><use href="#q42" x="59"/><use href="#q38" x="67"/><use href="#q38" x="69"/><use href="#q42" x="89"/><use href="#q10" x="103"/><use href="#q43" x="114"/><use href="#q11" x="128"/><use href="#q40" x="136"/><use href="#q38" x="138"/><use href="#q41" x="152"/><use href="#q42" x="154"/><use href="#q10" x="165"/><use href="#q38" x="167"/></g><g stroke="url(#paautumn3n)"><use href="#q3" transform="translate(12 26) scale(3)"/><use href="#q4" transform="translate(30 26) scale(3)"/><use href="#q5" transform="translate(48 26) scale(3)"/><use href="#q5" transform="translate(66 26) scale(3)"/><use href="#q6" transform="translate(84 26) scale(3)"/><use href="#q7" transform="translate(102 26) scale(3)"/><use href="#q8" transform="translate(120 26) scale(3)"/></g><g stroke="#F6EEE2"><g transform="translate(0 54)"><use href="#q3" x="12"/><use href="#q12" x="18"/><use href="#q13" x="22"/><use href="#q14" x="28"/><use href="#q15" x="34"/><use href="#q16" x="40"/><use href="#q17" x="46"/><use href="#q18" x="50"/><use href="#q19" x="56"/><use href="#q20" x="65"/><use href="#q14" x="71"/><use href="#q21" x="77"/><use href="#q22" x="83"/><use href="#q14" x="89"/><use href="#q16" x="95"/><use href="#q23" x="101"/><use href="#q21" x="111"/><use href="#q18" x="117"/><use href="#q22" x="123"/></g><g transform="translate(0 64)"><use href="#q24" x="12"/><use href="#q25" x="17"/><use href="#q25" x="23"/><use href="#q19" x="29"/><use href="#q14" x="34"/><use href="#q16" x="40"/><use href="#q23" x="46"/><use href="#q21" x="56"/><use href="#q7" x="66"/><use href="#q6" x="72"/><use href="#q4" x="78"/><use href="#q26" x="84"/><use href="#q27" x="90"/><use href="#q6" x="96"/><use href="#q22" x="106"/><use href="#q16" x="112"/><use href="#q21" x="118"/><use href="#q28" x="124"/><use href="#q23" x="130"/><use href="#q24" x="140"/><use href="#q25" x="145"/><use href="#q16" x="151"/></g><g transform="translate(0 74)"><use href="#q17" x="12"/><use href="#q19" x="16"/><use href="#q23" x="21"/><use href="#q14" x="27"/><use href="#q12" x="33"/><use href="#q24" x="37"/><use href="#q29" x="42"/><use href="#q27" x="48"/><use href="#q14" x="54"/><use href="#q21" x="60"/><use href="#q23" x="66"/><use href="#q13" x="72"/><use href="#q16" x="78"/><use href="#q14" x="84"/><use href="#q22" x="90"/><use href="#q18" x="100"/><use href="#q17" x="106"/><use href="#q30" x="110"/><use href="#q20" x="116"/><use href="#q19" x="122"/><use href="#q12" x="127"/><use href="#q31" x="131"/><use href="#q32" x="137"/></g><g transform="translate(0 84)"><use href="#q18" x="12"/><use href="#q14" x="18"/><use href="#q33" x="24"/><use href="#q14" x="30"/><use href="#q16" x="36"/><use href="#q24" x="46"/><use href="#q14" x="51"/><use href="#q19" x="57"/><use href="#q34" x="62"/><use href="#q20" x="68"/><use href="#q14" x="74"/><use href="#q22" x="80"/><use href="#q32" x="86"/><use href="#q23" x="93"/><use href="#q25" x="99"/><use href="#q19" x="109"/><use href="#q20" x="114"/><use href="#q14" x="120"/><use href="#q31" x="126"/><use href="#q21" x="136"/><use href="#q16" x="142"/><use href="#q14" x="148"/></g><g transform="translate(0 94)"><use href="#q13" x="12"/><use href="#q15" x="18"/><use href="#q24" x="28"/><use href="#q25" x="33"/><use href="#q16" x="39"/><use href="#q21" x="49"/><use href="#q23" x="55"/><use href="#q12" x="65"/><use href="#q25" x="69"/><use href="#q18" x="75"/><use href="#q30" x="81"/><use href="#q21" x="91"/><use href="#q23" x="97"/><use href="#q35" x="107"/><use href="#q17" x="113"/><use href="#q19" x="117"/><use href="#q36" x="122"/><use href="#q13" x="128"/><use href="#q37" x="134"/><use href="#q17" x="144"/><use href="#q23" x="148"/><use href="#q29" x="154"/></g><g transform="translate(0 119)"><use href="#q19" x="8"/><use href="#q21" x="13"/><use href="#q18" x="19"/><use href="#q18" x="25"/><use href="#q14" x="31"/><use href="#q16" x="37"/><use href="#q30" x="43"/><use href="#q25" x="49"/><use href="#q12" x="55"/><use href="#q22" x="59"/><use href="#q14" x="65"/><use href="#q18" x="71"/><use href="#q51" x="77"/><use href="#q37" x="83"/><use href="#q21" x="89"/><use href="#q18" x="95"/><use href="#q18" x="101"/><use href="#q14" x="107"/><use href="#q16" x="113"/><use href="#q23" x="119"/><use href="#q33" x="142"/><use href="#q55" x="148"/><use href="#q29" x="152"/><use href="#q56" x="154"/><use href="#q29" x="160"/><use href="#q56" x="162"/></g><g transform="translate(0 141)"><use href="#q56" x="8"/><use href="#q56" x="52"/><use href="#q56" x="96"/></g><g transform="translate(0 163)"><use href="#q63" x="8"/><use href="#q31" x="14"/><use href="#q19" x="20"/><use href="#q20" x="25"/><use href="#q25" x="31"/><use href="#q18" x="37"/><use href="#q27" x="100"/><use href="#q64" x="106"/><use href="#q65" x="110"/></g></g><g stroke="#CDB79F"><g transform="translate(0 112)"><use href="#q44" x="8"/><use href="#q45" x="12"/><use href="#q46" x="16"/><use href="#q47" x="20"/><use href="#q48" x="24"/><use href="#q49" x="28"/><use href="#q50" x="32"/><use href="#q45" x="142"/><use href="#q48" x="146"/><use href="#q52" x="150"/><use href="#q48" x="154"/><use href="#q53" x="158"/><use href="#q54" x="162"/><use href="#q48" x="166"/></g><g transform="translate(0 134)"><use href="#q54" x="8"/><use href="#q50" x="12"/><use href="#q53" x="16"/><use href="#q45" x="20"/><use href="#q54" x="24"/><use href="#q57" x="52"/><use href="#q46" x="56"/><use href="#q45" x="60"/><use href="#q58" x="64"/><use href="#q54" x="68"/><use href="#q46" x="96"/><use href="#q44" x="100"/><use href="#q48" x="104"/><use href="#q59" x="108"/><use href="#q60" x="116"/><use href="#q54" x="120"/><use href="#q54" x="124"/><use href="#q61" x="128"/><use href="#q48" x="132"/><use href="#q54" x="136"/></g><g transform="translate(0 156)"><use href="#q52" x="8"/><use href="#q53" x="12"/><use href="#q59" x="16"/><use href="#q62" x="21"/><use href="#q61" x="25"/><use href="#q53" x="29"/><use href="#q62" x="33"/><use href="#q48" x="37"/><use href="#q52" x="100"/><use href="#q60" x="104"/><use href="#q49" x="108"/><use href="#q48" x="112"/><use href="#q59" x="116"/><use href="#q54" x="121"/><use href="#q48" x="125"/></g></g><use href="#q10" x="35" y="24"/><use href="#q11" x="89" y="24"/></g></svg>
