<svg xmlns="http://www.w3.org/2000/svg" width="830" height="432" viewBox="0 0 830 432" role="img" aria-labelledby="t d" shape-rendering="crispEdges"><title id="t">Schematic of driftmark</title><desc id="d">The survey file drives the scheduler, which runs a probe in each region; the collector compares results with the baselines, writes the report and raises alerts past the threshold.</desc><!--markdown-kit v1 medieval-forge elements schematic wide day--><g transform="scale(2)"><defs><pattern id="e21d" width="40" height="40" patternUnits="userSpaceOnUse"><path stroke="#8D98A6" d="M22 2.5h3m-4 1h4m-21 1h3m15 0h2m-21 1h4m-3 1h2m25 7h3m-4 1h4m-3 1h2m-23 2h3m-4 1h4m-3 1h2m5 8h3m-4 1h4m-3 1h2m15 1h3m-4 1h4m-3 1h2m-10 4h3m-4 1h4m-3 1h2"/><path stroke="#BBC7D4" d="M25 3.5h1m-2 1h1m-18 1h1m15 0h1m-18 1h1m-2 1h1m28 7h1m-2 1h1m-2 1h1m-20 2h1m-2 1h1m-2 1h1m8 8h1m-2 1h1m-2 1h1m18 1h1m-2 1h1m-2 1h1m-7 4h1m-2 1h1m-2 1h1"/><path stroke="#D6DFEA" d="M22 1.5h3m-4 1h1m-18 1h3m13 0h1m-18 1h1m17 0h1m-20 1h1m0 1h1m27 6h3m-4 1h1m-2 1h1m0 1h1m-21 1h3m-4 1h1m-2 1h1m0 1h1m7 7h3m-4 1h1m-2 1h1m0 1h1m17 0h3m-4 1h1m-2 1h1m0 1h1m-8 3h3m-4 1h1m-2 1h1m0 1h1"/><path stroke="#A6B0BF" d="M10 1.5h9m-17 5h4m20 1h12m-38 5h7m24 3h8m-3 3h4m-32 2h11m3 4h6m-27 3h5m29 2h5m-37 6h10m5 3h9"/></pattern><pattern id="frh" width="10" height="4" patternUnits="userSpaceOnUse"><path stroke="#171A22" d="M0 .5h10"/><path stroke="#E2EAF2" d="M0 1.5h4m2 0h4"/><path stroke="#9AA6B6" d="M5 1.5h1m-6 1h5m1 0h4"/><path stroke="#161A24" d="M0 3.5h10"/><path stroke="#FFFFFF" d="M4 1.5h1"/><path stroke="#242A38" d="M5 2.5h1"/></pattern><pattern id="frv" width="4" height="10" patternUnits="userSpaceOnUse"><path stroke="#171A22" d="M.5 0v10"/><path stroke="#E2EAF2" d="M1.5 0v4m0 2v4"/><path stroke="#9AA6B6" d="M2.5 0v5m-1.5 .5h1m.5 .5v4"/><path stroke="#161A24" d="M3.5 0v10"/><path stroke="#FFFFFF" d="M1 4.5h1"/><path stroke="#242A38" d="M2 5.5h1"/></pattern><path id="q0" d="M1 .5h2m-3 1h1m0 1h1m0 1h1m-3 1h2"/><path id="q1" d="M1 .5h2m-2.5 .5v3m.5 .5h2"/><path id="q2" d="M.5 0v2m2-2v2m-2.5 .5h3m-2.5 .5v2m2-2v2"/><path id="q3" d="M0 .5h3m-3 1h1m-1 1h2m-2 1h1m-1 1h3"/><path id="q4" d="M0 .5h1m3 0h1m-5 1h2m1 0h2m-4.5 .5v3m1.5-2.5h1m1.5-.5v3"/><path id="q5" d="M1 .5h1m-2 1h1m1 0h1m-3 1h3m-2.5 .5v2m2-2v2"/><path id="q6" d="M0 .5h3m-1.5 .5v4"/><path id="q7" d="M0 .5h3m-1.5 .5v3m-1.5 .5h3"/><path id="q8" d="M0 .5h2m-1.5 .5v3m2-3v3m-2.5 .5h2"/><path id="q9" d="M0 .5h3m-3 1h1m-1 1h2m-1.5 .5v2"/><path id="q10" d="M.5 0v4m-.5 .5h3"/><path id="q11" d="M1 .5h1m-1.5 .5v3m2-3v3m-1.5 .5h1"/><path id="q12" d="M.5 0v3m4-3v3m-2.5-.5h1m-3 1h2m1 0h2m-5 1h1m3 0h1"/><path id="q13" d="M0 2.5h1"/><path id="q14" d="M0 .5h1m2.5-.5v2m-3.5-.5h2m-1.5 .5v3m1.5-2.5h2m-.5 .5v2"/><path id="q15" d="M4.5 0v3m-3.5-.5h2m-2.5 .5v3m2.5-2.5h2m-.5 .5v2m-3.5 .5h4"/><path id="q16" d="M0 2.5h1m1 0h2m-4 1h2m2 0h1m-4.5 .5v3"/><path id="q17" d="M1 .5h1m-2 2h2m-.5 .5v3m-1.5 .5h3"/><path id="q18" d="M2 .5h2m-2.5 .5v2m-1.5 .5h3m-1.5 .5v3"/><path id="q19" d="M1.5 0v2m-1.5 .5h3m-1.5 .5v3m1.5-.5h1m-2 1h1"/><path id="q20" d="M0 2.5h2m1 0h1m-3.5 .5v4m2-4v2m2-2v4"/><path id="q21" d="M1 2.5h3m0 1h1m-4 1h4m-5 1h1m3 0h1m-4 1h4"/><path id="q22" d="M.5 0v4m2.5-1.5h1m-2 1h1m-3 1h2m-1.5 .5v2m1.5-1.5h1m0 1h1"/><path id="q23" d="M4.5 0v2m-1.5 .5h1m-2 1h1m-2 1h1m-1.5 .5v2"/><pattern id="rv14d" width="14" height="2" patternUnits="userSpaceOnUse"><path stroke="#242A38" d="M1 1.5h1"/><path stroke="#9AA6B6" d="M1 .5h1m-2 1h1"/><path stroke="#FFFFFF" d="M0 .5h1"/></pattern><path id="q25" d="M.5 0v2m2-2v2m-1 0v3"/><path id="q26" d="M.5 0v4m2-4v4m-2.5 .5h3"/><path id="q27" d="M0 .5h2m-2 1h1m1 0h1m-3 1h2m-1.5 .5v2m2-2v2"/><path id="q28" d="M1 .5h2m-3 1h1m-1 1h3m-3 1h1m1 0h1m-3 1h3"/><path id="q29" d="M1 .5h2m-2.5 .5v3m2-2v2m-1.5 .5h2"/><path id="q30" d="M0 .5h2m0 1h1m-2 1h1m-2 1h1m-1 1h3"/><path id="q31" d="M0 .5h3m-2.5 .5v3m2-3v3m-2.5 .5h3"/><path id="q32" d="M0 .5h2m-2 1h1m1 0h1m-3 1h2m-1.5 .5v2"/><path id="q33" d="M0 .5h2m-2 1h1m1 0h1m-3 1h2m-2 1h1m1 0h1m-3 1h2"/><path id="q34" d="M0 .5h5m-2.5 .5v6"/><path id="q35" d="M.5 0v3m1.5-.5h2m-4 1h2m2.5-.5v4m-4-3v3"/><path id="q36" d="M1 2.5h3m-4 1h1m3 0h1m-5 1h5m-5 1h1m0 1h3"/><path id="q37" d="M1 2.5h4m-5 1h1m0 1h3m0 1h1m-5 1h4"/><path id="q38" d="M.5 2v4m4-4v3m-1.5 .5h2m-4 1h2m1 0h1"/><path id="q39" d="M.5 2v3m4-3v3m-3.5 .5h1m1 0h1m-2 1h1"/><path id="q40" d="M.5 2v3m4-3v3m-3.5 .5h4m-.5 .5v2m-4.5-.5h1m0 1h3"/><path id="q41" d="M.5 0v2m2-2v2m-2.5 .5h2m-1.5 .5v2m2-2v2"/><path id="q42" d="M0 4.5h1"/><path id="q43" d="M1 .5h1m-2 1h2m-.5 .5v2m-1.5 .5h3"/><path id="q44" d="M1 2.5h3m-3.5 .5v3m3.5-.5h1m-4 1h3"/><path id="q45" d="M0 .5h2m-.5 .5v5m-1.5 .5h3"/><path id="q46" d="M2.5 0v2m-1.5 .5h1m-1.5 .5v2"/><path id="q47" d="M0 .5h4m-3.5 .5v2m4-2v2m-4.5 .5h4m-3.5 .5v3"/><path id="q48" d="M1 2.5h3m-3.5 .5v3m4-3v3m-3.5 .5h3"/><path id="q49" d="M.5 0v3m1.5-.5h2m-4 1h2m2.5-.5v3m-4-2v2m-.5 .5h4"/><path id="q50" d="M0 .5h4m-3.5 .5v2m4-2v2m-4.5 .5h4m-3.5 .5v2m4-2v2m-4.5 .5h4"/><path id="q51" d="M0 2.5h1m1 0h2m-4 1h2m2.5-.5v4m-4-3v3"/><path id="q52" d="M.5 0v3m2-3v3m-1 0v2"/><path id="q53" d="M1 .5h1m-1.5 .5v2m2-2v2m-2.5 .5h2m-1 1h2"/><path id="q54" d="M0 2.5h4m-3.5 .5v2m4-2v2m-4.5 .5h4m-3.5 .5v3"/><path id="q55" d="M0 2.5h3"/><path id="q56" d="M0 .5h3m-3 1h1m1 0h1m-3 1h3m-1 1h1m-3 1h2"/><path id="q57" d="M0 .5h3m-3 1h1m-1 1h2m0 1h1m-3 1h2"/><path id="q58" d="M0 .5h2m0 1h1m-2 1h1m0 1h1m-3 1h2"/><path id="q59" d="M1 .5h3m-3.5 .5v2m4-2v2m-4.5 .5h5m-4.5 .5v3m4-3v3"/><path id="q60" d="M.5 3v2"/><path id="q61" d="M0 1.5h1m-1 2h1"/><g id="q62"><path stroke="#3F4A5D" d="M5.5 0v2m-1.5 .5h2m-6 1h6"/><path stroke="#788496" d="M1 1.5h4m-4 1h3"/><path stroke="#BCC7D4" d="M1 .5h4m-4.5 .5v2"/><path stroke="#E2EAF2" d="M0 .5h1"/></g></defs><rect x="0" y="0" width="415" height="216" fill="#AEBAC8"/><rect x="0" y="0" width="415" height="216" fill="url(#e21d)"/><path stroke="#07060A" stroke-opacity=".32" d="M9.5 1v3m-5.5 .5h5m1 0h401m-406.5 .5v4m3.5-3.5h1m1 0h397m-397.5 .5v3m-8.5 .5h3m1 0h4m1 0h1m396 0h8m-410.5 .5v202m4.5-201.5h1m-.5 197.5v8"/><path stroke="#07060A" stroke-opacity=".52" d="M9.5 4v2m-5.5 3.5h1m4 0h1"/><rect x="0" y="0" width="415" height="4" fill="url(#frh)"/><rect x="0" y="212" width="415" height="4" fill="url(#frh)"/><rect x="0" y="0" width="4" height="216" fill="url(#frv)"/><rect x="411" y="0" width="4" height="216" fill="url(#frv)"/><rect width="394" height="2" fill="url(#rv14d)" transform="translate(10 19)"/><path stroke="#0A0C12" d="M0 .5h8m399 0h8m-414.5 .5v7m414-7v7m-406-3v2m398-2v3m-406.5 .5h5m401 0h9m-391 164h7m1 0h11m-21 1h2m19 0h1m-24 1h2m22.5-.5v2m-25.5-.5h1m0 1h2m20 0h2m-22 1h4m14 0h2m-16 1h2m11 0h1m-14 1h2m11 0h2m-16 1h1m15 0h1m-42 27h9m397 0h9m-414.5 .5v7m8-7v7m398-7v7m8-7v7m-414.5 .5h9m397 0h9"/><path stroke="#161A24" d="M7.5 2v2m406-2v5m-400.5-3.5h1m8 0h1m8 0h1m8 0h1m8 0h1m8 0h1m8 0h1m8 0h1m8 0h1m8 0h1m8 0h1m8 0h1m8 0h1m8 0h1m8 0h1m8 0h1m8 0h1m8 0h1m8 0h1m8 0h1m8 0h1m8 0h1m8 0h1m8 0h1m8 0h1m8 0h1m8 0h1m8 0h1m8 0h1m8 0h1m8 0h1m8 0h1m8 0h1m8 0h1m8 0h1m8 0h1m8 0h1m8 0h1m8 0h1m8 0h1m8 0h1m8 0h1m8 0h1m8 0h1m-394 1h400m-399.5 .5v2m-5.5 .5h3m403 0h6m-406.5 201.5v5m406-5v5m-411.5 .5h6m400 0h6"/><path stroke="#171A22" d="M8 .5h399"/><path stroke="#22180F" d="M19 54.5h5m135 0h3m136 0h3m-281.5 .5v5m3.5-4.5h2m133 0h1m1.5-.5v2m1.5-1.5h1m134 0h1m1.5-.5v2m1.5-1.5h1m-279 1h2m132.5-.5v3m6-3v3m132.5-2.5h1m5 0h1m-280 1h2m135 0h2m134 0h7m-280 1h2m271 0h1m2.5-.5v2m2.5-1.5h1m-280 1h2m133 0h1m3 0h1m134 0h1m3 0h1m-283 1h6m134 0h3m136 0h3m-282.5 51.5v6m139.5-5.5h5m133 0h7m-280.5 .5v5m134.5-4.5h1m5 0h1m132 0h1m1 0h1m3 0h1m-278.5 .5v4m133.5-3.5h5m133 0h7m-146 1h1m5 0h1m-143.5 .5v2m137.5-1.5h5m133 0h7m-146 1h1m5 0h1m132 0h1m1 0h1m3 0h1m-285 1h7m133 0h5m133 0h7m-143 36h1m-2 1h3m-3.5 .5v3m4-3v3m-5.5 .5h7m-4 1h1"/><path stroke="#242A38" d="M13 2.5h1m8 0h1m8 0h1m8 0h1m8 0h1m8 0h1m8 0h1m8 0h1m8 0h1m8 0h1m8 0h1m8 0h1m8 0h1m8 0h1m8 0h1m8 0h1m8 0h1m8 0h1m8 0h1m8 0h1m8 0h1m8 0h1m8 0h1m8 0h1m8 0h1m8 0h1m8 0h1m8 0h1m8 0h1m8 0h1m8 0h1m8 0h1m8 0h1m8 0h1m8 0h1m8 0h1m8 0h1m8 0h1m8 0h1m8 0h1m8 0h1m8 0h1m8 0h1m8 0h1m-389 1h1m8 0h1m8 0h1m8 0h1m8 0h1m8 0h1m8 0h1m8 0h1m8 0h1m8 0h1m8 0h1m8 0h1m8 0h1m8 0h1m8 0h1m8 0h1m8 0h1m8 0h1m8 0h1m8 0h1m8 0h1m8 0h1m8 0h1m8 0h1m8 0h1m8 0h1m8 0h1m8 0h1m8 0h1m8 0h1m8 0h1m8 0h1m8 0h1m8 0h1m8 0h1m8 0h1m8 0h1m8 0h1m8 0h1m8 0h1m8 0h1m8 0h1m8 0h1m8 0h1m-104 43h1m100 0h1m-371 2h1m138 0h1m138 0h1m-154 8h1m138 0h1m-140 1h2m137 0h2m-172 1h34m105 0h34m-142 1h2m137 0h2m-141 1h1m138 0h1m-265 8h1m138 0h1m138 0h1m-288 2h1m100 0h1m37 0h1m100 0h1m37 0h1m100 0h1m-51.5 1.5v27m-2.5 .5h5m-4 1h3m-2 1h1m-329 3h1m100 0h1m-93 2h1m138 0h1m138 0h1m-182 8h1m138 0h1m-141 1h2m137 0h2m-143 1h33m106 0h16m1 0h16m-170 1h2m137 0h2m13.5-.5v40m-153.5-38.5h1m138 0h1m-237 8h1m138 0h1m138 0h1m-288 2h1m100 0h1m37 0h1m100 0h1m37 0h1m100 0h1m-232 20h1m96 8h1m-2 1h2m-4 1h16m1 0h1m-16 1h2m-1 1h1m-98 8h1m-10 2h1m100 0h1"/><path stroke="#331A10" d="M9 16.5h45m57 37h7m271 0h7m-285 58h7m-106 83h7m183 0h7m-197 10h7"/><path stroke="#36240F" d="M40.5 182v2m-11.5-.5h1"/><path stroke="#363E4F" d="M280 33.5h1m125 0h3m-131.5 2.5v3m131-2v3m-131 2v3m131-2v3m-131 2v3m131-2v3m-131 2v3m131-2v3m-131 2v3m131-2v3m-131 2v3m131-2v3m-131 2v3m131-2v3m-131 2v3m130.5-1.5h1m-128 1h3m3 0h3m3 0h3m3 0h3m3 0h3m3 0h3m3 0h3m3 0h3m3 0h3m3 0h3m3 0h3m3 0h3m3 0h3m3 0h3m3 0h3m3 0h3m3 0h3m3 0h3m3 0h3m3 0h3m3 0h3m3 0h2"/><path stroke="#3F4A5D" d="M28.5 45v26m139-26v26m139-26v26m-278 32v26m139-26v26m139-26v26m-139 16v26m-129.5 10.5h3"/><path stroke="#4A5461" d="M4 20.5h6m2 0h12m2 0h12m2 0h12m2 0h12m2 0h12m2 0h12m2 0h12m2 0h12m2 0h12m2 0h12m2 0h12m2 0h12m2 0h12m2 0h12m2 0h12m2 0h12m2 0h12m2 0h12m2 0h12m2 0h12m2 0h12m2 0h12m2 0h12m2 0h12m2 0h12m2 0h12m2 0h12m2 0h12m2 0h7m-395 24h105m34 0h105m34 0h105m-382.5 .5v26m104-26v26m35-26v26m104-26v26m35-26v26m104-26v26m-382.5 .5h105m34 0h105m34 0h105m-383 31h105m34 0h105m34 0h105m-382.5 .5v26m104-26v26m35-26v26m104-26v26m35-26v26m104-26v26m-382.5 .5h105m34 0h105m34 0h105m-244 15h105m-104.5 .5v26m104-26v26m-104.5 .5h105"/><path stroke="#4D5668" d="M122 57.5h30m109 0h16m1 0h13m-166 58h29m110 0h12m2 0h15m-29 42h12"/><path stroke="#553A18" d="M39.5 182v2"/><path stroke="#596578" d="M43 174.5h1m-5 1h5m-22 1h4m12 0h4m-5 1h3m-4 1h3m-3 1h3m-1 1h3"/><path stroke="#5C3E0C" d="M3 3.5h1m2 0h1m402 0h1m2 0h1m-410 3h1m2 0h1m402 0h1m2 0h1m-395 40h1m100 0h1m37 0h1m100 0h1m-102 58h1m100 0h1m37 0h1m100 0h1m-241 42h1m100 0h1m-256 64h1m2 0h1m402 0h1m2 0h1m-410 3h1m2 0h1m402 0h1m2 0h1"/><path stroke="#6E3E22" d="M6 8.5h2m-2 1h2m1 0h45m-48 1h2m1 0h45m-48 1h2m1 0h45m-44 1h43m-47 1h2m1 0h45m-48 1h2m1 0h45m-48 1h2m1 0h45m-48 1h2m103 32h7m271 0h7m-285 1h7m271 0h7m-284 1h5m273 0h5m-284 1h7m271 0h7m-285 1h7m271 0h7m-285 54h7m-7 1h7m-6 1h5m-6 1h7m-7 1h7m-106 79h7m183 0h7m-197 1h7m183 0h7m-196 1h5m185 0h5m-196 1h7m183 0h7m-197 1h7m183 0h7m-197 6h7m-7 1h7m-6 1h5m-6 1h7m-7 1h7"/><path stroke="#765426" d="M37 182.5h2m-3 1h3"/><path stroke="#788496" d="M13 1.5h1m8 0h1m8 0h1m8 0h1m8 0h1m8 0h1m8 0h1m8 0h1m8 0h1m8 0h1m8 0h1m8 0h1m8 0h1m8 0h1m8 0h1m8 0h1m8 0h1m8 0h1m8 0h1m8 0h1m8 0h1m8 0h1m8 0h1m8 0h1m8 0h1m8 0h1m8 0h1m8 0h1m8 0h1m8 0h1m8 0h1m8 0h1m8 0h1m8 0h1m8 0h1m8 0h1m8 0h1m8 0h1m8 0h1m8 0h1m8 0h1m8 0h1m8 0h1m8 0h1m-390 2h1m8 0h1m8 0h1m8 0h1m8 0h1m8 0h1m8 0h1m8 0h1m8 0h1m8 0h1m8 0h1m8 0h1m8 0h1m8 0h1m8 0h1m8 0h1m8 0h1m8 0h1m8 0h1m8 0h1m8 0h1m8 0h1m8 0h1m8 0h1m8 0h1m8 0h1m8 0h1m8 0h1m8 0h1m8 0h1m8 0h1m8 0h1m8 0h1m8 0h1m8 0h1m8 0h1m8 0h1m8 0h1m8 0h1m8 0h1m8 0h1m8 0h1m8 0h1m8 0h1m-371.5 41.5v2m139-2v2m139-2v2m-186 0v22m139-22v22m139-22v22m-370-20v18m139-18v18m139-18v18m-278 2v2m139-2v2m139-2v2m-286.5-.5h7m3 0h89m40 0h7m3 0h89m40 0h7m3 0h89m-368.5 32.5v2m139-2v2m139-2v2m-186 0v22m139-22v22m139-22v22m-370-20v18m139-18v18m139-18v18m-278 2v2m139-2v2m139-2v2m-286.5-.5h7m3 0h89m40 0h7m3 0h89m40 0h7m3 0h89m-229.5 16.5v2m92 0v22m-92-20v18m0 2v2m-8.5-.5h7m3 0h89m-218 4h4m-23 1h6m1 0h12m-12 1h11m-8 1h7m-6 1h5m-5 1h5m-6 1h8m-7 1h7"/><path stroke="#8C6414" d="M6 17.5h3"/><path stroke="#8E5630" d="M9 8.5h45m57 39h7m271 0h7m-285 58h7m-106 83h7m183 0h7m-197 10h7"/><path stroke="#987038" d="M31 172.5h1m-3 1h2m-4 1h2m-3 1h1m6 7h4m-3 1h2"/><path stroke="#9AA6B6" d="M7 1.5h1m405 0h1m-409.5 .5v2m7.5-1.5h1m8 0h1m8 0h1m8 0h1m8 0h1m8 0h1m8 0h1m8 0h1m8 0h1m8 0h1m8 0h1m8 0h1m8 0h1m8 0h1m8 0h1m8 0h1m8 0h1m8 0h1m8 0h1m8 0h1m8 0h1m8 0h1m8 0h1m8 0h1m8 0h1m8 0h1m8 0h1m8 0h1m8 0h1m8 0h1m8 0h1m8 0h1m8 0h1m8 0h1m8 0h1m8 0h1m8 0h1m8 0h1m8 0h1m8 0h1m8 0h1m8 0h1m8 0h1m8 0h1m10.5-.5v2m-402.5-.5h3m3 0h6m3 0h6m3 0h6m3 0h6m3 0h6m3 0h6m3 0h6m3 0h6m3 0h6m3 0h6m3 0h6m3 0h6m3 0h6m3 0h6m3 0h6m3 0h6m3 0h6m3 0h6m3 0h6m3 0h6m3 0h6m3 0h6m3 0h6m3 0h6m3 0h6m3 0h6m3 0h6m3 0h6m3 0h6m3 0h6m3 0h6m3 0h6m3 0h6m3 0h6m3 0h6m3 0h6m3 0h6m3 0h6m3 0h6m3 0h6m3 0h6m3 0h6m3 0h6m3 0h6m-405 1h5m401 0h5m-408.5 .5v2m406-2v2m-409.5 .5h1m405 0h1m-112 38h1m100 0h1m-103 1h1m100 0h1m-370 1h1m138 0h1m138 0h1m-280 1h1m138 0h1m138 0h1m-184 9h1m138 0h1m-234 10h1m138 0h1m138 0h1m-280 1h1m138 0h1m138 0h1m-287 1h1m100 0h1m37 0h1m100 0h1m37 0h1m100 0h1m-381 1h1m100 0h1m37 0h1m100 0h1m37 0h1m100 0h1m-52 2h1m-328 31h1m100 0h1m-103 1h1m100 0h1m-92 1h1m138 0h1m138 0h1m-280 1h1m138 0h1m138 0h1m-28 9h1m-124 1h1m121 0h1m16 0h1m-267 9h1m138 0h1m138 0h1m-280 1h1m138 0h1m138 0h1m-287 1h1m100 0h1m37 0h1m100 0h1m37 0h1m100 0h1m-381 1h1m100 0h1m37 0h1m100 0h1m37 0h1m100 0h1m-231 19h1m-2 1h1m111 9h1m-2 1h1m-111 9h1m-2 1h1m-9 1h1m100 0h1m-103 1h1m100 0h1m-232 6h1m-1 1h4m-2 1h3m-3 1h3m-5 1h4m-3 1h4m-24 27h1m405 0h1m-409.5 .5v2m406-2v2m-408.5 .5h5m401 0h5m-408.5 .5v2m406-2v2m-409.5 .5h1m405 0h1"/><path stroke="#AE7446" d="M9 12.5h1m43 0h1m57 38h1m5 0h1m271 0h1m5 0h1m-285 58h1m5 0h1m-106 83h1m5 0h1m183 0h1m5 0h1m-197 10h1m5 0h1"/><path stroke="#AEBAC8" d="M281 32.5h124m-124 1h124m-124 1h124m-276 16h19m-19 1h19m-19 1h19m-19 1h19m-19 1h19m-19 1h19m-19 1h19m200 27h61m-61 1h61m-61 1h61m-61 1h61m-61 1h61m-61 1h61m-61 1h61m-282 19h23m-23 1h23m-23 1h23m-23 1h23m-23 1h23m-23 1h23m-23 1h23m129 19h73m-73 1h73m-73 1h73m-73 1h73m-73 1h73m-73 1h73m-73 1h73"/><path stroke="#B98A22" d="M3 2.5h1m2 0h1m402 0h1m2 0h1m-411 1h1m2 0h1m402 0h1m2 0h1m-409 2h1m2 0h1m402 0h1m2 0h1m-411 1h1m2 0h1m402 0h1m2 0h1m-403.5 1.5v9m9.5 28.5h1m100 0h1m37 0h1m100 0h1m-242 1h1m100 0h1m37 0h1m100 0h1m-101 57h1m100 0h1m37 0h1m100 0h1m-242 1h1m100 0h1m37 0h1m100 0h1m-240 41h1m100 0h1m-103 1h1m100 0h1m-255 63h1m2 0h1m402 0h1m2 0h1m-411 1h1m2 0h1m402 0h1m2 0h1m-409 2h1m2 0h1m402 0h1m2 0h1m-411 1h1m2 0h1m402 0h1m2 0h1"/><path stroke="#B99052" d="M26 182.5h7m-7 1h3m1 0h4"/><path stroke="#BCC7D4" d="M8 2.5h3m3 0h6m3 0h6m3 0h6m3 0h6m3 0h6m3 0h6m3 0h6m3 0h6m3 0h6m3 0h6m3 0h6m3 0h6m3 0h6m3 0h6m3 0h6m3 0h6m3 0h6m3 0h6m3 0h6m3 0h6m3 0h6m3 0h6m3 0h6m3 0h6m3 0h6m3 0h6m3 0h6m3 0h6m3 0h6m3 0h6m3 0h6m3 0h6m3 0h6m3 0h6m3 0h6m3 0h6m3 0h6m3 0h6m3 0h6m3 0h6m3 0h6m3 0h6m3 0h6m3 0h6m-381 43h1m138 0h1m138 0h1m-286 1h8m131 0h8m131 0h8m-287 1h8m131 0h8m131 0h8m-286 1h8m131 0h8m131 0h8m-286 1h9m130 0h9m130 0h9m-287 1h9m130 0h9m130 0h9m-287 1h9m130 0h9m130 0h9m-287 1h9m130 0h9m130 0h9m-287 1h9m130 0h9m130 0h9m-286.5 .5v8m6.5-7.5h2m130 0h2m4 0h3m130 0h2m4 0h3m-278.5 .5v7m130.5-6.5h1m6 0h2m130 0h1m6 0h2m-284 1h2m142.5-.5v4m139-4v4m-283.5-2.5h2m136.5-.5v2m-138.5-.5h2m-2 1h2m137 0h2m-5 1h1m6 0h2m130 0h1m6 0h2m-148 1h2m4 0h3m130 0h2m4 0h3m-287 1h9m130 0h9m130 0h9m-287 1h9m130 0h9m130 0h9m-287 1h9m130 0h9m130 0h9m-287 1h9m130 0h9m130 0h9m-287 1h9m130 0h9m130 0h9m-287 1h8m131 0h8m131 0h8m-286 1h8m131 0h8m131 0h8m-285 1h8m131 0h8m131 0h8m-279 1h1m138 0h1m138 0h1m-279 33h1m138 0h1m138 0h1m-286 1h8m131 0h8m131 0h8m-287 1h8m131 0h8m131 0h8m-286 1h8m131 0h8m131 0h8m-286 1h9m130 0h9m130 0h9m-287 1h9m130 0h9m130 0h9m-287 1h9m130 0h9m130 0h9m-287 1h9m130 0h9m130 0h9m-287 1h9m130 0h9m130 0h9m-285 1h7m130 0h1m6 0h2m138.5-.5v8m-284.5-6.5h2m2 0h3m138.5-.5v6m-145.5-4.5h2m4.5-.5v6m-6.5-4.5h2m135 4h1m6 0h2m-148 1h9m130 0h9m130 0h9m-287 1h9m130 0h9m130 0h9m-287 1h9m130 0h9m130 0h9m-287 1h9m130 0h9m130 0h9m-287 1h9m130 0h9m130 0h9m-287 1h8m131 0h8m131 0h8m-286 1h8m131 0h8m131 0h8m-285 1h8m131 0h8m131 0h8m-279 1h1m138 0h1m138 0h1m-140 17h1m-8 1h8m-9 1h8m-8 1h8m-8 1h9m-9 1h9m-9 1h9m-9 1h9m-9 1h9m-9 1h3m2 0h4m-9 1h2m4 0h3m-8.5 .5v3m6.5-2.5h2m-6 1h2m2 0h2m-6 1h2m2 0h2m-.5 .5v2m-8.5 .5h3m2 0h4m-9 1h9m-9 1h9m-9 1h9m-9 1h9m-9 1h9m-9 1h8m-8 1h8m-7 1h8m-1 1h1m-135 3h12m-21 1h5m2 0h10m-13 7h1"/><path stroke="#D7DFE7" d="M29 46.5h89m50 0h89m50 0h89m-367 1h82m7.5-.5v7m49.5-6.5h90m49 0h82m7.5-.5v7m-367.5-5.5h82m57 0h90m49 0h82m-360 1h82m57 0h90m49 0h82m-360 1h82m57 0h90m49 0h82m-360 1h82m57 0h90m49 0h82m-360 1h82m57 0h90m49 0h82m-360 1h82m57 0h90m49 0h82m-360 1h90m49 0h90m49 0h90m-368 1h90m49 0h90m49 0h90m-368 1h90m49 0h90m49 0h90m-368 1h90m49 0h90m49 0h90m-368 1h90m49 0h90m49 0h90m-368 1h90m49 0h90m49 0h90m-368 1h90m49 0h90m49 0h90m-368 1h90m49 0h90m49 0h90m-368 1h90m49 0h90m49 0h90m-368 1h90m49 0h90m49 0h90m-368 1h90m49 0h90m49 0h90m-368 1h90m49 0h90m49 0h90m-368 1h90m49 0h90m49 0h90m-368 1h90m49 0h90m49 0h90m-368 1h90m49 0h90m49 0h90m-368 1h89m50 0h89m50 0h89m-367 35h89m50 0h89m50 0h89m-367 1h82m7.5-.5v7m49.5-6.5h90m49 0h90m-368 1h82m57 0h90m49 0h90m-368 1h82m57 0h90m49 0h90m-368 1h82m57 0h90m49 0h90m-368 1h82m57 0h90m49 0h90m-368 1h82m57 0h90m49 0h90m-368 1h82m57 0h90m49 0h90m-368 1h90m49 0h90m49 0h90m-368 1h90m49 0h90m49 0h90m-368 1h90m49 0h90m49 0h90m-368 1h90m49 0h90m49 0h90m-368 1h90m49 0h90m49 0h90m-368 1h90m49 0h90m49 0h90m-368 1h90m49 0h90m49 0h90m-368 1h90m49 0h90m49 0h90m-368 1h90m49 0h90m49 0h90m-368 1h90m49 0h90m49 0h90m-368 1h90m49 0h90m49 0h90m-368 1h90m49 0h90m49 0h90m-368 1h90m49 0h90m49 0h90m-368 1h90m49 0h90m49 0h90m-368 1h90m49 0h90m49 0h90m-368 1h89m50 0h89m50 0h89m-228 19h89m-89 1h90m-90 1h90m-90 1h90m-90 1h90m-90 1h90m-90 1h90m-90 1h90m-90 1h90m-90 1h90m-90 1h90m-90 1h90m-90 1h90m-90 1h90m-90 1h90m-90 1h90m-90 1h90m-90 1h90m-90 1h90m-90 1h90m-90 1h90m-90 1h90m-90 1h90m-90 1h89"/><path stroke="#DCAD3C" d="M6 12.5h2m269 21h3m125 0h1m-128.5 .5v2m131-2v3m-131 2v3m131-2v3m-131 2v3m131-2v3m-131 2v3m131-2v3m-131.5 2.5h1m130.5 .5v3m-131.5-1.5h1m-.5 3.5v3m131-2v3m-131 2v3m131-2v3m-131 2v3m131-2v3m-130.5 1.5h3m3 0h3m3 0h3m3 0h3m3 0h3m3 0h3m3 0h3m3 0h3m3 0h3m3 0h3m3 0h3m3 0h2m4 0h3m3 0h3m3 0h3m3 0h3m3 0h3m3 0h3m3 0h3m3 0h3m3 0h3m3 0h3"/><path stroke="#E2EAF2" d="M8 1.5h3m1 0h1m1 0h6m1 0h1m1 0h6m1 0h1m1 0h6m1 0h1m1 0h6m1 0h1m1 0h6m1 0h1m1 0h6m1 0h1m1 0h6m1 0h1m1 0h6m1 0h1m1 0h6m1 0h1m1 0h6m1 0h1m1 0h6m1 0h1m1 0h6m1 0h1m1 0h6m1 0h1m1 0h6m1 0h1m1 0h6m1 0h1m1 0h6m1 0h1m1 0h6m1 0h1m1 0h6m1 0h1m1 0h6m1 0h1m1 0h6m1 0h1m1 0h6m1 0h1m1 0h6m1 0h1m1 0h6m1 0h1m1 0h6m1 0h1m1 0h6m1 0h1m1 0h6m1 0h1m1 0h6m1 0h1m1 0h6m1 0h1m1 0h6m1 0h1m1 0h6m1 0h1m1 0h6m1 0h1m1 0h6m1 0h1m1 0h6m1 0h1m1 0h6m1 0h1m1 0h6m1 0h1m1 0h6m1 0h1m1 0h6m1 0h1m1 0h6m1 0h1m1 0h6m1 0h1m1 0h6m1 0h1m1 0h6m1 0h1m1 0h6m1 0h1m1 0h6m1 0h1m1 0h6m-396 1h1m8 0h1m8 0h1m8 0h1m8 0h1m8 0h1m8 0h1m8 0h1m8 0h1m8 0h1m8 0h1m8 0h1m8 0h1m8 0h1m8 0h1m8 0h1m8 0h1m8 0h1m8 0h1m8 0h1m8 0h1m8 0h1m8 0h1m8 0h1m8 0h1m8 0h1m8 0h1m8 0h1m8 0h1m8 0h1m8 0h1m8 0h1m8 0h1m8 0h1m8 0h1m8 0h1m8 0h1m8 0h1m8 0h1m8 0h1m8 0h1m8 0h1m8 0h1m8 0h1m-375 171h5"/><path stroke="#F0CC6A" d="M2 2.5h1m2 0h1m402 0h1m2 0h1m-410 3h1m2 0h1m402 0h1m2 0h1m-407 2h4m-3.5 .5v10m11.5 27.5h1m100 0h1m37 0h1m100 0h1m-102 58h1m100 0h1m37 0h1m100 0h1m-241 42h1m100 0h1m-256 64h1m2 0h1m402 0h1m2 0h1m-410 3h1m2 0h1m402 0h1m2 0h1"/><path stroke="#FFFFFF" d="M1 1.5h6m4 0h1m8 0h1m8 0h1m8 0h1m8 0h1m8 0h1m8 0h1m8 0h1m8 0h1m8 0h1m8 0h1m8 0h1m8 0h1m8 0h1m8 0h1m8 0h1m8 0h1m8 0h1m8 0h1m8 0h1m8 0h1m8 0h1m8 0h1m8 0h1m8 0h1m8 0h1m8 0h1m8 0h1m8 0h1m8 0h1m8 0h1m8 0h1m8 0h1m8 0h1m8 0h1m8 0h1m8 0h1m8 0h1m8 0h1m8 0h1m8 0h1m8 0h1m8 0h1m8 0h1m8 0h6m-411.5 .5v5m406-5v5m-388.5 38.5h7m3 0h89m40 0h7m3 0h89m38 0h1m1 0h7m3 0h90m-379.5 1.5v23m8.5-22.5h1m129.5-.5v12m8.5-11.5h1m129.5-.5v12m8.5-11.5h1m-281 7h1m137 0h1m138 0h1m-282 1h3m2.5-.5v6m133.5-5.5h1m1 0h1m1 0h1m134 0h1m1 0h1m1 0h1m-282.5 .5v4m137.5-3.5h2m1 0h2m1.5-.5v3m132.5-2.5h2m1 0h2m1.5-.5v3m-145-2v2m3.5-1.5h1m-3 1h3m134 0h2m1 0h2m-146 1h2m1 0h1m3 0h2m130 0h2m1 0h1m1 0h1m1 0h2m-147.5 .5v10m1.5-9.5h1m3 0h2m131.5-.5v10m1.5-9.5h1m3 0h2m-284 1h7m133 0h4m135 0h4m-276 6h1m138 0h1m138 0h1m-187 2h1m138 0h1m138 0h1m-380 34h1m1 0h7m3 0h90m39 0h7m3 0h89m40 0h7m3 0h89m-378.5 1.5v14m8.5-13.5h1m129.5-.5v9m8.5-8.5h1m129.5-.5v10m8.5-9.5h1m-285.5 6.5v6m143.5-5.5h1m139.5-.5v3m-280-2v5m134.5-4.5h5m1 0h1m132 0h1m1 0h3m-276.5 .5v5m130.5-4.5h2m5 0h2m-11 1h1m1 0h1m1 0h5m1 0h1m111 0h1m16 0h1m1 0h9m-282.5 .5v2m134.5-1.5h2m5 0h2m130.5-.5v3m8-3v3m-147.5-1.5h1m1 0h5m1 0h1m132 0h1m1 0h3m-146 1h2m5 0h2m-148 1h9m130.5-.5v9m1.5-8.5h6m131 0h9m-286.5 .5v8m278-8v8m-269.5-2.5h1m138 0h1m138 0h1m-187 2h1m138 0h1m138 0h1m-239 18h7m3 0h89m-100.5 1.5v13m8.5-12.5h1m-5 7h1m0 1h1m-4 1h3m1.5-.5v3m-4-2v2m116.5-1.5h1m-113 2h1m-9 1h4m1 0h4m-8.5 .5v9m3.5-8.5h2m3 6h1m91 2h1m-257 39h6m400 0h6m-411.5 .5v5m406-5v5"/><g stroke="#FFF7D6"><g transform="translate(0 10)"><use href="#q0" x="13"/><use href="#q1" x="17"/><use href="#q2" x="21"/><use href="#q3" x="25"/><use href="#q4" x="29"/><use href="#q5" x="35"/><use href="#q6" x="39"/><use href="#q7" x="43"/><use href="#q1" x="47"/></g><use href="#q43" x="113" y="48"/><use href="#q30" x="391" y="48"/><use href="#q58" x="113" y="106"/><use href="#q43" x="14" y="189"/><use href="#q58" x="204" y="189"/><use href="#q30" x="14" y="199"/></g><g stroke="#4E3D2A"><g transform="translate(0 10)"><use href="#q8" x="308"/><use href="#q5" x="312"/><use href="#q6" x="316"/><use href="#q5" x="320"/><use href="#q9" x="327"/><use href="#q10" x="331"/><use href="#q11" x="335"/><use href="#q12" x="339"/><use href="#q13" x="351"/><use href="#q14" x="359"/><use href="#q11" x="364"/><use href="#q6" x="368"/><use href="#q6" x="375"/><use href="#q11" x="379"/><use href="#q0" x="386"/><use href="#q1" x="390"/><use href="#q5" x="394"/><use href="#q10" x="398"/><use href="#q3" x="402"/></g><g transform="translate(0 36)"><use href="#q25" x="283"/><use href="#q11" x="287"/><use href="#q26" x="291"/><use href="#q27" x="295"/><use href="#q1" x="302"/><use href="#q10" x="306"/><use href="#q11" x="310"/><use href="#q26" x="314"/><use href="#q8" x="318"/><use href="#q5" x="325"/><use href="#q1" x="329"/><use href="#q1" x="333"/><use href="#q11" x="337"/><use href="#q26" x="341"/><use href="#q14" x="345"/><use href="#q6" x="350"/><use href="#q13" x="360"/><use href="#q28" x="368"/><use href="#q27" x="375"/><use href="#q3" x="379"/><use href="#q29" x="383"/><use href="#q7" x="387"/><use href="#q11" x="391"/><use href="#q14" x="395"/><use href="#q0" x="400"/></g><g transform="translate(0 51)"><use href="#q27" x="131"/><use href="#q3" x="135"/><use href="#q5" x="139"/><use href="#q8" x="143"/></g><g transform="translate(0 84)"><use href="#q30" x="350"/><use href="#q31" x="354"/><use href="#q31" x="358"/><use href="#q32" x="365"/><use href="#q27" x="369"/><use href="#q11" x="373"/><use href="#q33" x="377"/><use href="#q3" x="381"/><use href="#q0" x="385"/><use href="#q3" x="392"/><use href="#q5" x="396"/><use href="#q1" x="400"/><use href="#q2" x="404"/></g><g transform="translate(0 109)"><use href="#q8" x="129"/><use href="#q27" x="133"/><use href="#q7" x="137"/><use href="#q9" x="141"/><use href="#q6" x="145"/></g><g transform="translate(0 134)"><use href="#q32" x="281"/><use href="#q5" x="285"/><use href="#q0" x="289"/><use href="#q6" x="293"/><use href="#q6" x="300"/><use href="#q2" x="304"/><use href="#q3" x="308"/><use href="#q6" x="315"/><use href="#q2" x="319"/><use href="#q27" x="323"/><use href="#q3" x="327"/><use href="#q0" x="331"/><use href="#q2" x="335"/><use href="#q11" x="339"/><use href="#q10" x="343"/><use href="#q8" x="347"/></g><g transform="translate(0 60)"><use href="#q8" x="32"/><use href="#q27" x="36"/><use href="#q7" x="40"/><use href="#q9" x="44"/><use href="#q6" x="48"/><use href="#q4" x="52"/><use href="#q5" x="58"/><use href="#q27" x="62"/><use href="#q41" x="66"/><use href="#q42" x="70"/><use href="#q6" x="72"/><use href="#q11" x="76"/><use href="#q4" x="80"/><use href="#q10" x="86"/><use href="#q1" x="171"/><use href="#q27" x="175"/><use href="#q5" x="179"/><use href="#q6" x="183"/><use href="#q3" x="187"/><use href="#q0" x="191"/><use href="#q46" x="195"/><use href="#q0" x="199"/><use href="#q1" x="203"/><use href="#q2" x="207"/><use href="#q3" x="211"/><use href="#q8" x="215"/><use href="#q26" x="219"/><use href="#q10" x="223"/><use href="#q3" x="227"/><use href="#q27" x="231"/><use href="#q1" x="310"/><use href="#q27" x="314"/><use href="#q5" x="318"/><use href="#q6" x="322"/><use href="#q3" x="326"/><use href="#q0" x="330"/><use href="#q46" x="334"/><use href="#q32" x="338"/><use href="#q27" x="342"/><use href="#q11" x="346"/><use href="#q33" x="350"/><use href="#q3" x="354"/></g><g transform="translate(0 118)"><use href="#q1" x="310"/><use href="#q27" x="314"/><use href="#q5" x="318"/><use href="#q6" x="322"/><use href="#q3" x="326"/><use href="#q0" x="330"/><use href="#q46" x="334"/><use href="#q1" x="338"/><use href="#q11" x="342"/><use href="#q10" x="346"/><use href="#q10" x="350"/><use href="#q3" x="354"/><use href="#q1" x="358"/><use href="#q6" x="362"/><use href="#q11" x="366"/><use href="#q27" x="370"/></g><g transform="translate(0 116)"><use href="#q0" x="171"/><use href="#q26" x="175"/><use href="#q27" x="179"/><use href="#q52" x="183"/><use href="#q3" x="187"/><use href="#q25" x="191"/><use href="#q46" x="195"/><use href="#q0" x="32"/><use href="#q26" x="36"/><use href="#q27" x="40"/><use href="#q52" x="44"/><use href="#q3" x="48"/><use href="#q25" x="52"/><use href="#q46" x="56"/></g><g transform="translate(0 123)"><use href="#q33" x="171"/><use href="#q5" x="175"/><use href="#q0" x="179"/><use href="#q3" x="183"/><use href="#q10" x="187"/><use href="#q7" x="191"/><use href="#q14" x="195"/><use href="#q3" x="200"/><use href="#q0" x="204"/><use href="#q42" x="208"/><use href="#q32" x="210"/><use href="#q5" x="214"/><use href="#q27" x="218"/><use href="#q53" x="222"/><use href="#q26" x="226"/><use href="#q3" x="230"/><use href="#q6" x="234"/><use href="#q30" x="32"/><use href="#q31" x="36"/><use href="#q30" x="40"/><use href="#q28" x="44"/><use href="#q55" x="48"/><use href="#q31" x="52"/><use href="#q56" x="56"/><use href="#q55" x="60"/><use href="#q30" x="64"/><use href="#q57" x="68"/><use href="#q42" x="72"/><use href="#q4" x="74"/><use href="#q8" x="80"/></g><g transform="translate(0 160)"><use href="#q0" x="171"/><use href="#q10" x="175"/><use href="#q5" x="179"/><use href="#q1" x="183"/><use href="#q41" x="187"/><use href="#q60" x="191"/><use href="#q32" x="196"/><use href="#q5" x="200"/><use href="#q29" x="204"/><use href="#q3" x="208"/><use href="#q27" x="212"/><use href="#q8" x="216"/><use href="#q26" x="220"/><use href="#q6" x="224"/><use href="#q25" x="228"/></g><g transform="translate(0 189)"><use href="#q25" x="22"/><use href="#q11" x="26"/><use href="#q26" x="30"/><use href="#q27" x="34"/><use href="#q0" x="38"/><use href="#q61" x="42"/><use href="#q6" x="47"/><use href="#q5" x="51"/><use href="#q27" x="55"/><use href="#q29" x="59"/><use href="#q3" x="63"/><use href="#q6" x="67"/><use href="#q60" x="71"/><use href="#q27" x="76"/><use href="#q3" x="80"/><use href="#q29" x="84"/><use href="#q7" x="88"/><use href="#q11" x="92"/><use href="#q14" x="96"/><use href="#q0" x="101"/><use href="#q5" x="108"/><use href="#q14" x="112"/><use href="#q8" x="117"/><use href="#q6" x="124"/><use href="#q2" x="128"/><use href="#q27" x="132"/><use href="#q3" x="136"/><use href="#q0" x="140"/><use href="#q2" x="144"/><use href="#q11" x="148"/><use href="#q10" x="152"/><use href="#q8" x="156"/><use href="#q1" x="212"/><use href="#q11" x="216"/><use href="#q4" x="220"/><use href="#q4" x="226"/><use href="#q7" x="232"/><use href="#q6" x="236"/><use href="#q6" x="240"/><use href="#q3" x="244"/><use href="#q8" x="248"/><use href="#q60" x="252"/><use href="#q0" x="257"/><use href="#q11" x="261"/><use href="#q8" x="268"/><use href="#q27" x="272"/><use href="#q7" x="276"/><use href="#q9" x="280"/><use href="#q6" x="284"/><use href="#q7" x="291"/><use href="#q0" x="295"/><use href="#q27" x="302"/><use href="#q3" x="306"/><use href="#q52" x="310"/><use href="#q7" x="314"/><use href="#q3" x="318"/><use href="#q12" x="322"/><use href="#q3" x="328"/><use href="#q8" x="332"/><use href="#q10" x="339"/><use href="#q7" x="343"/><use href="#q41" x="347"/><use href="#q3" x="351"/><use href="#q1" x="358"/><use href="#q11" x="362"/><use href="#q8" x="366"/><use href="#q3" x="370"/></g><g transform="translate(0 199)"><use href="#q8" x="22"/><use href="#q3" x="26"/><use href="#q32" x="30"/><use href="#q10" x="34"/><use href="#q11" x="38"/><use href="#q25" x="42"/><use href="#q3" x="46"/><use href="#q8" x="50"/><use href="#q33" x="57"/><use href="#q25" x="61"/><use href="#q6" x="68"/><use href="#q2" x="72"/><use href="#q3" x="76"/><use href="#q6" x="83"/><use href="#q3" x="87"/><use href="#q27" x="91"/><use href="#q27" x="95"/><use href="#q5" x="99"/><use href="#q9" x="103"/><use href="#q11" x="107"/><use href="#q27" x="111"/><use href="#q4" x="115"/><use href="#q4" x="124"/><use href="#q11" x="130"/><use href="#q8" x="134"/><use href="#q26" x="138"/><use href="#q10" x="142"/><use href="#q3" x="146"/></g></g><g stroke="#22180F"><g transform="translate(0 9)"><use href="#q15" x="60"/><use href="#q16" x="66"/><use href="#q17" x="72"/><use href="#q18" x="76"/><use href="#q19" x="81"/><use href="#q20" x="86"/><use href="#q21" x="92"/><use href="#q16" x="98"/><use href="#q22" x="104"/><use href="#q23" x="109"/><use href="#q15" x="115"/><use href="#q16" x="121"/><use href="#q17" x="127"/><use href="#q18" x="131"/><use href="#q19" x="136"/><use href="#q20" x="141"/><use href="#q21" x="147"/><use href="#q16" x="153"/><use href="#q22" x="159"/></g><g transform="translate(0 50)"><use href="#q34" x="32"/><use href="#q35" x="38"/><use href="#q36" x="44"/><use href="#q37" x="54"/><use href="#q38" x="60"/><use href="#q16" x="66"/><use href="#q39" x="72"/><use href="#q36" x="78"/><use href="#q40" x="84"/><use href="#q34" x="171"/><use href="#q35" x="177"/><use href="#q36" x="183"/><use href="#q37" x="193"/><use href="#q44" x="199"/><use href="#q35" x="205"/><use href="#q36" x="211"/><use href="#q15" x="217"/><use href="#q38" x="223"/><use href="#q45" x="229"/><use href="#q36" x="233"/><use href="#q16" x="239"/><use href="#q47" x="310"/><use href="#q16" x="316"/><use href="#q48" x="322"/><use href="#q49" x="328"/><use href="#q36" x="334"/><use href="#q37" x="340"/></g><g transform="translate(0 108)"><use href="#q34" x="310"/><use href="#q35" x="316"/><use href="#q36" x="322"/><use href="#q44" x="332"/><use href="#q48" x="338"/><use href="#q45" x="344"/><use href="#q45" x="348"/><use href="#q36" x="352"/><use href="#q44" x="358"/><use href="#q19" x="364"/><use href="#q48" x="369"/><use href="#q16" x="375"/></g><g transform="translate(0 106)"><use href="#q50" x="171"/><use href="#q21" x="177"/><use href="#q37" x="183"/><use href="#q36" x="189"/><use href="#q45" x="195"/><use href="#q17" x="199"/><use href="#q51" x="203"/><use href="#q36" x="209"/><use href="#q37" x="215"/><use href="#q34" x="32"/><use href="#q35" x="38"/><use href="#q36" x="44"/><use href="#q16" x="54"/><use href="#q36" x="60"/><use href="#q54" x="66"/><use href="#q48" x="72"/><use href="#q16" x="78"/><use href="#q19" x="84"/></g><g transform="translate(0 150)"><use href="#q59" x="171"/><use href="#q45" x="177"/><use href="#q36" x="181"/><use href="#q16" x="187"/><use href="#q19" x="193"/><use href="#q37" x="198"/></g></g><use href="#q62" x="33" y="170"/></g></svg>
