<svg xmlns="http://www.w3.org/2000/svg" width="830" height="288" viewBox="0 0 830 288" role="img" aria-labelledby="t d" shape-rendering="crispEdges"><title id="t">Tanner Golden</title><desc id="d">Infrastructure for AI research. Reproducibility, supply-chain hygiene, and CI that fails for the right reasons. Account: @tannergolden. Followers: 14. Repositories: 7. Stars earned: 0. Language: Python. Member since: 2016.</desc><!--markdown-kit v1 new-years-day H2 dark still--><g transform="scale(2)"><defs><pattern id="pd" width="8" height="8" patternUnits="userSpaceOnUse"><rect x="4" y="4" width="1" height="1" fill="#172036"/></pattern><pattern id="mqh" width="4" height="3" patternUnits="userSpaceOnUse"><path stroke="#121B38" d="M2 1.5h1"/><path stroke="#946511" d="M0 2.5h4"/><path stroke="#C08A1C" d="M0 .5h1m1 0h2"/><path stroke="#E0B03A" d="M1 .5h1"/><path stroke="#F2D27A" d="M1 1.5h1m1 0h1"/><path stroke="#FFFAEE" d="M0 1.5h1"/></pattern><pattern id="mqv" width="3" height="4" patternUnits="userSpaceOnUse"><path stroke="#121B38" d="M1 2.5h1"/><path stroke="#946511" d="M2.5 0v4"/><path stroke="#C08A1C" d="M0 .5h1m-.5 1.5v2"/><path stroke="#E0B03A" d="M0 1.5h1"/><path stroke="#F2D27A" d="M1 1.5h1m-1 2h1"/><path stroke="#FFFAEE" d="M1 .5h1"/></pattern><rect id="mqH" width="415" height="3" fill="url(#mqh)"/><rect id="mqV" width="3" height="138" fill="url(#mqv)"/><g id="q0"><path stroke="#116366" d="M32 7.5h1m-1 2h1m-1 2h1"/><path stroke="#35A8A3" d="M31 6.5h1m-1 2h1m-1 2h1"/><path stroke="#59636F" d="M16.5 7v2"/><path stroke="#8C1F58" d="M0 1.5h1m41 1h1m-37 1h1m29 1h1m-25 1h1m17 0h1m-13 1h1m5 0h1"/><path stroke="#946511" d="M3 2.5h1m35 1h1m-31 1h1m5 1h1m17 0h1m-13 1h1m5 0h1m-10 5h1m-1.5 .5v2"/><path stroke="#B53176" d="M1 1.5h1m1 0h1m40 0h1m-43 1h1m36 0h1m3 0h1m-35 1h1m-3 1h2m6 0h1m17 0h1m3 0h2m-26 1h2m6 0h1m5 0h1m3 0h2m-14 1h2m4 0h2"/><path stroke="#C08A1C" d="M0 .5h1m41 1h1m-37 1h1m-3 1h2m30 0h1m3 0h2m-32 1h1m1 0h1m17 0h1m4 0h1m-25 1h1m6 0h1m5 0h1m9 0h1m-19 1h2m4 0h2m4 0h2m-12.5 3.5v2m-2.5 .5h2m-2 1h1"/><path stroke="#D85395" d="M4 2.5h2m34 0h2m-32 1h1m24 0h1m-25 1h1m22 0h1m-19 1h2m4 0h2m4 0h2"/><path stroke="#E0B03A" d="M1 .5h1m42 0h1m-43 1h1m40 0h1m-37 2h2m28 0h2m-26 1h2m16 0h2m-14 1h2m4 0h2m-12 5h1m-2 1h3"/><path stroke="#F2D27A" d="M16.5 9v2"/></g><g id="q1"><path stroke="#116366" d="M0 1.5h1m41 1h1m-37 1h1m29 1h1m-25 1h1m17 0h1m-13 1h1m5 0h1"/><path stroke="#1B8585" d="M1 1.5h1m1 0h1m40 0h1m-43 1h1m36 0h1m3 0h1m-35 1h1m-3 1h2m6 0h1m17 0h1m3 0h2m-26 1h2m6 0h1m5 0h1m3 0h2m-14 1h2m4 0h2"/><path stroke="#35A8A3" d="M4 2.5h2m34 0h2m-32 1h1m24 0h1m-25 1h1m22 0h1m-19 1h2m4 0h2m4 0h2"/><path stroke="#59636F" d="M3 2.5h1m35 1h1m-31 1h1m5 1h1m17 0h1m-13 1h1m5 0h1m-11.5 .5v2"/><path stroke="#86909C" d="M0 .5h1m41 1h1m-37 1h1m-3 1h2m30 0h1m3 0h2m-32 1h1m1 0h1m17 0h1m4 0h1m-25 1h1m6 0h1m5 0h1m9 0h1m-19 1h2m4 0h2m4 0h2m-12 5h1m-1.5 .5v2"/><path stroke="#8C1F58" d="M32 7.5h1m-1 2h1m-1 2h1"/><path stroke="#B3BCC6" d="M1 .5h1m42 0h1m-43 1h1m40 0h1m-37 2h2m28 0h2m-26 1h2m16 0h2m-14 1h2m4 0h2m-9.5 4.5v2m-2.5 .5h2m-2 1h1"/><path stroke="#D85395" d="M31 6.5h1m-1 2h1m-1 2h1"/><path stroke="#D9DFE6" d="M16 9.5h1m-2 1h2m-3 1h3"/></g><g id="q2"><path stroke="#946511" d="M0 1.5h2"/><path stroke="#C08A1C" d="M-1-.5h1m1.5-.5v2m-2.5 .5h1"/><path stroke="#E0B03A" d="M0-.5h1m-2 1h1"/><path stroke="#F2D27A" d="M0 .5h1"/></g><path id="q3" d="M0 .5h5m-2.5 .5v6"/><path id="q4" d="M1 .5h3m-3.5 .5v2m4-2v2m-4.5 .5h5m-4.5 .5v3m4-3v3"/><path id="q5" d="M0 .5h1m3.5-.5v3m-4.5-1.5h2m-1.5 .5v5m1.5-4.5h1m0 1h2m-.5 .5v3"/><path id="q6" d="M0 .5h5m-4.5 .5v2m-.5 .5h4m-3.5 .5v2m-.5 .5h5"/><path id="q7" d="M0 .5h4m-3.5 .5v2m4-2v2m-4.5 .5h4m-3.5 .5v3m1.5-2.5h1m0 1h1m0 1h1"/><path id="q8" d="M1 .5h3m-3.5 .5v5m3.5-4.5h1m-3 2h3m-.5 .5v2m-3.5 .5h4"/><path id="q9" d="M1 .5h3m-3.5 .5v5m4-5v5m-3.5 .5h3"/><path id="q10" d="M.5 0v6m-.5 .5h5"/><path id="q11" d="M0 .5h3m-2.5 .5v5m2.5-4.5h1m.5 .5v3m-1.5 .5h1m-4 1h3"/><pattern id="pafoil3n" width="4" height="7" patternUnits="userSpaceOnUse"><path fill="#FCEFC4" d="M0 0h4v1h-4zM0 3h4v1h-4z"/><path fill="#F2D27A" d="M0 1h4v1h-4zM0 4h4v1h-4z"/><path fill="#E0B03A" d="M0 2h4v1h-4zM0 5h4v1h-4z"/><path fill="#C08A1C" d="M0 6h4v1h-4z"/></pattern><path id="q13" d="M1 .5h2m-3 1h1m0 1h1m0 1h1m-3 1h2"/><path id="q14" d="M0 .5h3m-3 1h1m-1 1h2m-2 1h1m-1 1h3"/><path id="q15" d="M1 .5h2m-2.5 .5v3m.5 .5h2"/><path id="q16" d="M0 .5h3m-1.5 .5v4"/><path id="q17" d="M0 .5h3m-1.5 .5v3m-1.5 .5h3"/><path id="q18" d="M1 .5h1m-1.5 .5v3m2-3v3m-1.5 .5h1"/><path id="q19" d="M0 .5h1m2.5-.5v2m-3.5-.5h2m-1.5 .5v3m1.5-2.5h2m-.5 .5v2"/><path id="q20" d="M1 .5h1m-2 1h1m1 0h1m-3 1h3m-2.5 .5v2m2-2v2"/><path id="q21" d="M0 2.5h3"/><path id="q22" d="M0 .5h3m-1.5 .5v5m-1.5 .5h3"/><path id="q23" d="M0 2.5h1m1 0h2m-4 1h2m2.5-.5v4m-4-3v3"/><path id="q24" d="M2 .5h2m-2.5 .5v2m-1.5 .5h3m-1.5 .5v3"/><path id="q25" d="M0 2.5h1m1 0h2m-4 1h2m2 0h1m-4.5 .5v3"/><path id="q26" d="M1 2.5h3m0 1h1m-4 1h4m-5 1h1m3 0h1m-4 1h4"/><path id="q27" d="M1 2.5h4m-5 1h1m0 1h3m0 1h1m-5 1h4"/><path id="q28" d="M1.5 0v2m-1.5 .5h3m-1.5 .5v3m1.5-.5h1m-2 1h1"/><path id="q29" d="M.5 2v4m4-4v3m-1.5 .5h2m-4 1h2m1 0h1"/><path id="q30" d="M1 2.5h3m-3.5 .5v3m3.5-.5h1m-4 1h3"/><path id="q31" d="M1 2.5h3m-4 1h1m3 0h1m-5 1h5m-5 1h1m0 1h3"/><path id="q32" d="M1 2.5h3m-3.5 .5v3m4-3v3m-3.5 .5h3"/><path id="q33" d="M.5 0v3m1.5-.5h2m-4 1h2m2.5-.5v4m-4-3v3"/><path id="q34" d="M0 6.5h1"/><path id="q35" d="M0 2.5h4m-3.5 .5v2m4-2v2m-4.5 .5h4m-3.5 .5v3"/><path id="q36" d="M4.5 0v3m-3.5-.5h2m-2.5 .5v3m2.5-2.5h2m-.5 .5v2m-3.5 .5h4"/><path id="q37" d="M1 .5h1m-2 2h2m-.5 .5v3m-1.5 .5h3"/><path id="q38" d="M.5 0v3m1.5-.5h2m-4 1h2m2.5-.5v3m-4-2v2m-.5 .5h4"/><path id="q39" d="M0 .5h2m-.5 .5v5m-1.5 .5h3"/><path id="q40" d="M.5 2v3m4-3v3m-3.5 .5h4m-.5 .5v2m-4.5-.5h1m0 1h3"/><path id="q41" d="M1.5 5v2m-1.5 .5h1"/><path id="q42" d="M0 3.5h3"/><path id="q43" d="M1 2.5h4m-4.5 .5v2m4-2v2m-3.5 .5h4m-.5 .5v2m-4.5-.5h1m0 1h3"/><path id="q44" d="M1 .5h3m-3.5 .5v5m3.5-4.5h1m-1 4h1m-4 1h3"/><g id="q45"><path stroke="#35A8A3" d="M0-1.5h2m0 3h2m-7 1h1m4 1h2"/><path stroke="#76CBC4" d="M-1-2.5h1m0 3h2"/><path stroke="#B3BCC6" d="M0-2.5h2m0 3h2m-8 1h2m5 1h1m-5 2h1"/><path stroke="#B53176" d="M4 1.5h1"/><path stroke="#C08A1C" d="M1 4.5h1"/><path stroke="#D85395" d="M2-1.5h2m-7 1h1m0 3h2"/><path stroke="#D9DFE6" d="M-2-1.5h2m0 1h2m-2 2h2m0 1h1m-6 1h1"/><path stroke="#E0B03A" d="M2-2.5h2m0 3h1m-7 1h2m0 3h1"/><path stroke="#EC8BBA" d="M4-.5h1m-7 1h2m0 3h2"/><path stroke="#F2D27A" d="M0-3.5h2m0 3h2m-8 1h2m0 3h2"/><path stroke="#F6F8FB" d="M-1-3.5h1m-2 1h1m-2 1h1m-2 1h1m1 0h2m0 3h2"/><path stroke="#FFFFFF" d="M-3-2.5h1"/></g><path id="q46" d="M0-8.5h1m-6 1h1m10 1h1m-15 3h1m17 0h1m-22 4h1m21 2h1m-22 4h1m18 1h1m-15 4h1m9 0h1m-6 1h1"/><path id="q47" d="M-4-7.5h1m8 1h1m-14 2h1m16 1h1m-20 4h1m19 2h1m-19.5 2.5v2m16.5-.5h2m-14.5 2.5v2m10-2v2m-5.5 .5h1"/><path id="q48" d="M0-7.5h1m-5 1h1m8 1h1m-13 2h1m14 0h1m-18 4h1m17 1h2m-18.5 2.5v2m14.5-.5h2m-14 3h2m7.5-.5v2m-4-1v2"/><path id="q50" d="M-4.5-7v2m5.5-1.5h1m3.5-.5v2m-14 1v2m18-2v2m-19.5 .5h1m-2 1h1m21.5-.5v2m-22 3v2m22-2v2m-22 2v2m21-1v2m-18 1v2m15.5-1.5h1m0 1h1m-13.5 .5v3m7-3v2m-4-1v3"/><path id="q51" d="M-4-6.5h1m3 0h1m3 1h1m3.5 .5v2m-16.5-.5h1m17 2h1m-22 5h2m19 0h2m-21.5 2.5v2m18.5-.5h1m0 1h1m-17.5 1.5v2m15-2v2m-12 0v2m7-2v2m-4-1v2"/><path id="q52" d="M0-7.5h2m-4.5 .5v2m6.5-1.5h1m-5 1h1m2.5-.5v2m-11.5-.5h3m3 0h1m7 0h2m-13 1h1m9 0h2m-15 1h2m0 1h1m11 0h4m-16 2h1m11 0h1m-16 1h3m13 0h2m-19 1h1m18 0h2m-18 1h2m10 0h1m-14 1h1m13 0h2m-16.5 .5v2m4.5-1.5h1m7 0h1m3 0h1m-14 1h1m2 0h1m1.5-.5v6m2-6v3m2.5-2.5h1m3 0h1m-15.5 .5v2m3-2v4m8.5-3.5h1m.5 .5v2m-14.5-.5h1m9.5-.5v3m-7.5-.5h1m2 1h1"/><g id="q54"><path stroke="#35A8A3" d="M8 3.5h1m-9 4h1"/><path stroke="#402778" d="M10 .5h1"/><path stroke="#7E5CC0" d="M3 2.5h1"/><path stroke="#86909C" d="M3 1.5h1"/><path stroke="#8C1F58" d="M10 9.5h1"/><path stroke="#C08A1C" d="M2 .5h1"/><path stroke="#D9DFE6" d="M2 1.5h1m4 7h1"/><path stroke="#F2D27A" d="M1 .5h1"/></g><g id="q55"><path stroke="#116366" d="M8 3.5h1m-9 4h1"/><path stroke="#402778" d="M3 2.5h1"/><path stroke="#7E5CC0" d="M10 .5h1"/><path stroke="#86909C" d="M2 1.5h1m4 7h1"/><path stroke="#C08A1C" d="M1 .5h1"/><path stroke="#D85395" d="M10 9.5h1"/><path stroke="#D9DFE6" d="M2 2.5h1"/><path stroke="#F2D27A" d="M1 1.5h1"/></g><g id="q56"><path stroke="#402778" d="M7 4.5h1"/><path stroke="#7E5CC0" d="M8 4.5h1"/><path stroke="#86909C" d="M7 1.5h1"/><path stroke="#8C1F58" d="M8 5.5h1"/><path stroke="#C08A1C" d="M9 3.5h1m1 3h1"/><path stroke="#D85395" d="M7 5.5h1m2 3h1"/><path stroke="#D9DFE6" d="M0 5.5h1"/><path stroke="#F2D27A" d="M10 6.5h1"/></g><g id="q57"><path stroke="#7E5CC0" d="M7 4.5h1"/><path stroke="#86909C" d="M0 5.5h1"/><path stroke="#8C1F58" d="M7 5.5h1m2 3h1"/><path stroke="#C08A1C" d="M10 6.5h1"/><path stroke="#D85395" d="M7 6.5h1"/><path stroke="#D9DFE6" d="M7 1.5h1"/><path stroke="#F2D27A" d="M9 3.5h1m0 4h1"/></g><path id="q58" d="M.5 0v4m2-4v4m-2.5 .5h3"/><path id="q59" d="M1 .5h3m-3.5 .5v5m3.5-4.5h1m-3 1h3m-3 1h1m1 0h1m-3 1h3m-4 2h4"/><path id="q60" d="M0 .5h3m-3 1h1m-1 1h2m-1.5 .5v2"/><path id="q61" d="M.5 0v4m-.5 .5h3"/><path id="q62" d="M.5 0v3m4-3v3m-2.5-.5h1m-3 1h2m1 0h2m-5 1h1m3 0h1"/><path id="q63" d="M0 .5h2m-2 1h1m1 0h1m-3 1h2m-1.5 .5v2m2-2v2"/><path id="q64" d="M1 .5h1m-2 1h2m-.5 .5v4m-1.5 .5h3"/><path id="q65" d="M3 .5h1m-2 1h2m-3 1h1m1.5-.5v2m-3.5-.5h1m-1 1h5m-1.5 .5v2"/><path id="q66" d="M0 .5h2m-2 1h1m1 0h1m-3 1h2m-1.5 .5v2"/><path id="q67" d="M0 .5h5m-1 1h1m-2 1h1m-2 1h1m-1.5 .5v3"/><path id="q68" d="M0 .5h2m-1.5 .5v3m2-3v3m-2.5 .5h2"/><path id="q69" d="M1 .5h3m-3.5 .5v3m3.5-2.5h1m-2 1h2m-3 1h1m1.5-.5v3m-4.5-1.5h2m-2 1h1m0 1h3"/><path id="q70" d="M1 .5h2m-2.5 .5v3m2-2v2m-1.5 .5h2"/><path id="q71" d="M0 .5h4m-3.5 .5v2m4-2v2m-4.5 .5h4m-3.5 .5v3"/><path id="q72" d="M0 .5h1m3 0h1m-5 1h2m1 0h2m-4.5 .5v3m1.5-2.5h1m1.5-.5v3"/><path id="q73" d="M0 .5h2m-2 1h1m1 0h1m-3 1h2m-2 1h1m1 0h1m-3 1h2"/><path id="q74" d="M1 .5h3m-4 1h1m3.5-.5v2m-1.5 .5h1m-2 1h1m-2 1h1m-2 1h5"/><path id="q75" d="M2 .5h2m-3 1h1m-2 1h1m-1 1h4m-3.5 .5v2m4-2v2m-3.5 .5h3"/></defs><rect x="0" y="0" width="415" height="29" fill="#04060D"/><rect x="0" y="29" width="415" height="29" fill="#070B17"/><rect x="0" y="58" width="415" height="28" fill="#0B1122"/><rect x="0" y="86" width="415" height="29" fill="#10182E"/><rect x="0" y="115" width="415" height="29" fill="#16203B"/><rect x="0" y="0" width="415" height="144" fill="url(#pd)"/><ellipse cx="350.5" cy="56.5" rx="8" ry="8" fill="#F2D27A" fill-opacity=".08"/><ellipse cx="350.5" cy="56.5" rx="5.33" ry="5.33" fill="#F2D27A" fill-opacity=".08"/><ellipse cx="350.5" cy="56.5" rx="2.67" ry="2.67" fill="#F2D27A" fill-opacity=".12"/><path stroke="#26304D" d="M325 28.5h1m0 1h1m-28 2h1m98 9h1m-389 4h1"/><path stroke="#43507A" d="M285 21.5h1m28 32h1m-298 10h1"/><path stroke="#FCEFC4" d="M307 63.5h1"/><path stroke="#FFF6DC" d="M324 32.5h1m-7 6h1m-2 1h1m1 0h1m-2 1h1m65 16h1m-2 1h1m1 0h1m-2 1h1"/><path stroke="#FFF6DC" stroke-opacity=".48" d="M318 37.5h1m-3 2h1m3 0h1m-3 2h1m65 14h1m-3 2h1m3 0h1m-3 2h1"/><path stroke="#FFFFFF" d="M8 29.5h1m265 3h1m43 7h1m65 18h1"/><g stroke="#FCEFC4"><use href="#q46" x="318" y="34"/></g><g stroke="#F2D27A"><use href="#q47" x="318" y="34"/></g><g stroke="#C08A1C"><use href="#q48" x="318" y="34"/></g><g stroke="#F8C5DC"><use href="#q50" x="392" y="28"/></g><g stroke="#EC8BBA"><use href="#q51" x="392" y="28"/></g><g stroke="#B53176"><use href="#q52" x="392" y="28"/></g><use href="#mqH" x="0" y="0"/><use href="#mqH" x="0" y="141"/><use href="#mqV" x="0" y="3"/><use href="#mqV" x="412" y="3"/><path stroke="#0A1022" d="M345 68.5h12m-12 1h12m-12 2h12m-12 1h12m-12 1h12m-12 2h12m-12 1h12m-12 1h1m1 0h1m1 0h1m1 0h1m1 0h1m1 0h2m-12 1h12m-12 1h1m1 0h1m1 0h1m1 0h1m1 0h1m1 0h2m-12 1h12m-12 1h1m1 0h1m1 0h1m1 0h1m1 0h1m1 0h2m-12 1h12m-24 1h5m7 0h1m1 0h1m1 0h1m1 0h1m1 0h1m1 0h2m-24 1h5m7 0h12m-43.5 .5v22m19.5-21.5h1m1 0h1m1 0h1m7 0h1m1 0h1m1 0h1m1 0h1m1 0h1m1 0h2m-42 1h8m10 0h5m7 0h12m-42 1h8m10 0h1m1 0h1m1 0h1m7 0h1m1 0h1m1 0h1m1 0h1m1 0h1m1 0h2m-42 1h1m1 0h1m1 0h1m1 0h9m3 0h5m7 0h12m-42 1h15m3 0h1m1 0h1m1 0h1m2 0h4m1 0h1m1 0h1m1 0h1m1 0h1m1 0h1m1 0h2m-42 1h1m1 0h1m1 0h1m1 0h3m1 0h1m1 0h1m1 0h1m3 0h5m2 0h4m1 0h12m5 0h10m-57 1h17m1 0h1m1 0h1m1 0h1m3 0h1m1 0h1m1 0h1m1 0h1m1 0h1m1 0h1m1 0h1m1 0h2m5 0h12m-59 1h1m1 0h1m1 0h1m1 0h3m1 0h1m1 0h1m1 0h1m1 0h1m1 0h5m1 0h5m1 0h14m3 0h1m1 0h1m1 0h1m1 0h1m1 0h4m-67.5 .5v7m8.5-6.5h17m1 0h1m1 0h3m1 0h1m1 0h1m1 0h1m1 0h1m1 0h1m1 0h1m1 0h1m1 0h1m1 0h4m3 0h10m1 0h1m-69.5 .5v2m3.5-1.5h3m4 0h1m1 0h1m1 0h1m1 0h3m1 0h1m1 0h1m1 0h1m1 0h1m1 0h5m1 0h5m1 0h12m1 0h1m3 0h1m1 0h1m1 0h1m1 0h1m1 0h4m-66 1h1m1 0h1m4 0h17m1 0h1m1 0h3m1 0h1m1 0h1m1 0h1m1 0h1m1 0h1m1 0h1m1 0h1m1 0h1m1 0h6m1 0h10m1 0h1m22 0h11m-99 1h3m4 0h1m1 0h1m1 0h1m1 0h3m1 0h1m1 0h1m1 0h1m1 0h1m1 0h5m1 0h5m1 0h12m1 0h1m1 0h1m1 0h1m1 0h1m1 0h1m1 0h1m1 0h4m9 0h11m2 0h11m-92 1h17m1 0h1m1 0h1m1 0h1m1 0h1m1 0h1m1 0h1m1 0h1m1 0h1m1 0h1m1 0h1m1 0h1m1 0h6m1 0h10m1 0h1m1 0h6m2 0h11m2 0h1m1 0h1m1 0h1m1 0h1m1 0h1m1 0h1m-92 1h1m1 0h1m1 0h1m1 0h3m1 0h1m1 0h1m1 0h1m1 0h1m1 0h5m1 0h5m1 0h12m1 0h1m1 0h1m1 0h1m1 0h1m1 0h1m1 0h1m1 0h4m1 0h6m2 0h1m1 0h1m1 0h1m1 0h1m1 0h1m1 0h1m2 0h11m-92 1h17m1 0h1m1 0h1m1 0h1m1 0h1m1 0h1m1 0h1m1 0h1m1 0h1m1 0h1m1 0h1m1 0h1m1 0h6m1 0h10m1 0h1m1 0h1m1 0h1m1 0h2m2 0h11m2 0h1m1 0h1m1 0h1m1 0h1m1 0h1m1 0h1m-109 1h3m4 0h3m3.5-.5v2m3.5-1.5h1m1 0h1m1 0h1m1 0h3m1 0h1m1 0h1m1 0h1m1 0h1m1 0h5m1 0h5m1 0h14m1 0h1m1 0h1m1 0h1m1 0h1m1 0h1m1 0h4m1 0h6m2 0h1m1 0h1m1 0h1m1 0h1m1 0h1m1 0h1m2 0h11m-109 1h3m5 0h1m8 0h17m1 0h1m1 0h1m1 0h1m1 0h1m1 0h1m1 0h1m1 0h1m1 0h1m1 0h1m1 0h1m1 0h1m1 0h6m1 0h10m1 0h1m1 0h1m1 0h1m1 0h2m2 0h11m2 0h1m1 0h1m1 0h1m1 0h1m1 0h1m1 0h1m-108 1h1m4 0h5m1 0h2m3 0h1m1 0h1m1 0h1m1 0h3m1 0h1m1 0h1m1 0h1m1 0h1m1 0h5m1 0h5m1 0h12m1 0h1m1 0h1m1 0h1m1 0h1m1 0h1m1 0h1m1 0h4m1 0h6m2 0h1m1 0h1m1 0h1m1 0h1m1 0h1m1 0h1m2 0h11m-110 1h6m1 0h1m1 0h1m1 0h1m1 0h2m3 0h17m1 0h1m1 0h1m1 0h1m1 0h1m1 0h1m1 0h1m1 0h1m1 0h1m1 0h1m1 0h1m1 0h1m1 0h6m1 0h10m1 0h1m1 0h1m1 0h1m1 0h2m2 0h11m2 0h1m1 0h1m1 0h1m1 0h1m1 0h1m1 0h1m2.5-.5v5m-112.5-3.5h1m1 0h1m1 0h2m1 0h5m1 0h2m3 0h1m1 0h1m1 0h1m1 0h3m1 0h1m1 0h1m1 0h1m1 0h1m1 0h5m1 0h5m1 0h12m1 0h1m1 0h1m1 0h1m1 0h1m1 0h1m1 0h1m1 0h4m1 0h6m2 0h1m1 0h1m1 0h1m1 0h1m1 0h1m1 0h1m2 0h11m-110 1h6m1 0h1m1 0h1m1 0h1m1 0h2m3 0h17m1 0h1m1 0h1m1 0h1m1 0h1m1 0h1m1 0h1m1 0h1m1 0h1m1 0h1m1 0h1m1 0h1m1 0h6m1 0h10m1 0h1m1 0h1m1 0h1m1 0h2m2 0h11m2 0h1m1 0h1m1 0h1m1 0h1m1 0h1m1 0h1m-110 1h6m1 0h5m1 0h2m3 0h17m1 0h5m1 0h5m1 0h16m1 0h12m1 0h6m2 0h11m2 0h11m-106 1h1m2 0h2m13 0h13m4 0h2m1 0h5m1 0h2m8 0h2m6 0h2m3 0h6m1 0h6m2 0h1m1 0h2m6 0h1m2 0h3m1 0h4"/><path stroke="#116366" d="M406 107.5h1m-350 1h1m1 0h1m5 0h1m1 0h1m-60 1h1m143 0h1m95 0h1m89 0h1"/><path stroke="#121B38" d="M344.5 68v2m0 1v3m0 1v33m1.5-30.5h1m1 0h1m3 0h1m-1 2h1m1 0h1m-7 2h1m-16.5 1.5v24m15.5-23.5h1m1 0h1m3 0h1m-42.5 1.5v22m23.5-21.5h1m15 0h1m-38.5 .5v21m19.5-19.5h1m-17 1h1m15 1h1m1 0h1m13 0h1m1 0h1m-33 1h1m3 0h1m1 0h1m34.5-.5v17m-27.5-15.5h1m1 0h1m5 0h1m9 0h1m1 0h1m-37 1h1m7 0h1m1 0h1m9.5-.5v16m24.5-15.5h1m3 0h1m1 0h1m7.5-.5v3m-43.5-1.5h1m7 0h1m5 0h1m1 0h1m21 0h1m-69.5 .5v2m12.5-1.5h1m1 0h1m1 0h1m3 0h1m1 0h1m1 0h1m28 0h1m5 0h1m3 0h1m-59 1h1m24 0h1m11 0h1m3 0h1m1 0h1m19 0h1m3 0h3m16.5-.5v13m-67.5-11.5h1m1 0h1m32 0h1m3 0h1m1 0h1m6 0h3m3.5-.5v12m-42.5-10.5h1m5 0h1m3 0h1m1 0h1m1 0h1m17 0h1m1.5-.5v11m22.5-10.5h1m3 0h1m1 0h1m-78 1h1m3 0h1m26 0h1m1 0h1m3 0h1m1 0h1m1 0h1m1 0h1m14 0h1m1 0h1m1 0h1m1 0h1m1 0h1m-51 1h1m3 0h1m1 0h1m3 0h1m1 0h1m17 0h1m24 0h1m3 0h1m1 0h1m1 0h1m-88 1h1m1 0h1m3 0h1m1 0h1m1 0h1m1 0h1m32 0h1m3 0h1m1 0h1m14 0h1m1 0h1m1 0h1m3 0h1m-88 1h1m28 0h1m5 0h1m9 0h1m3 0h1m17 0h1m3 0h1m1 0h1m20 0h1m3 0h1m1 0h1m-108 1h1m1 0h1m23 0h1m1 0h1m1 0h1m1 0h1m28 0h1m3 0h1m3 0h1m1 0h1m14 0h1m5 0h1m1 0h1m-96.5 .5v4m8.5-3.5h1m30 0h1m3 0h1m1 0h1m3 0h1m3 0h1m1 0h1m1 0h1m17 0h1m3 0h1m20 0h1m1 0h1m8.5-.5v5m-110.5-3.5h1m1 0h1m15 0h1m1 0h1m1 0h1m3 0h1m3 0h1m28 0h1m26 0h1m1 0h1m3 0h1m-86 1h1m1 0h1m26 0h1m5 0h1m7 0h1m27 0h1m1 0h1m20 0h1m1 0h1"/><path stroke="#1D2B55" d="M342 61.5h1m15 0h1m-17 1h3m2 0h3m1 0h2m2 0h4m-16.5 .5v2m2.5-1.5h1m1.5-.5v3m2-3v3m3.5-2.5h1m3 0h2m-15 1h1m7 0h1m3.5-.5v3m2-3v3m-16.5-1.5h2m7 0h1m-10 1h4m1 0h3m1 0h3m-12 1h17m7.5 1.5v9m-32-1v6m-27 4v6m93-4v6"/><path stroke="#2F437A" d="M294 109.5h26m2 0h1m5 0h9m8 0h24m14 0h12m3 0h12"/><path stroke="#35A8A3" d="M314 107.5h1m39 0h1m48 1h1m-348 1h1m1 0h1m5 0h1m1 0h1m65 0h1m33 0h1m80 0h1m72 0h1"/><path stroke="#402778" d="M361 107.5h1m-139 1h1m1 0h1m105 0h1m14 0h1m55 0h1m-243 1h1m40 0h1m14 0h1m156 0h1"/><path stroke="#5470A8" d="M294 108.5h7m5 0h1m5 0h7m13 0h5m10 0h9m1 0h7m1 0h4m15 0h2m1 0h7m5 0h2m3 0h3m-84 1h1m13 0h1m31 0h1m25 0h1"/><path stroke="#59636F" d="M348 61.5h5m-48 47h1m5 0h1"/><path stroke="#76CBC4" d="M344 70.5h1m1 0h2m1 0h2m1 0h2m1 0h2m-13 4h1m1 0h2m1 0h2m1 0h2m1 0h2"/><path stroke="#7E5CC0" d="M332 107.5h1m20 0h1m-268 2h1m72 0h1m62 0h1m1 0h1m17 0h1m16 0h1"/><path stroke="#86909C" d="M350.5 42v19m-46.5 47.5h1m5 0h1m-274 1h1m72 0h1m73 0h1"/><path stroke="#8C1F58" d="M45 108.5h1m1 0h1m144 0h1m1 0h1m-168 1h1m315 0h1"/><path stroke="#946511" d="M305.5 97v3m6-2v2m-7 0v2m6-2v2"/><path stroke="#9AAFD6" d="M294 107.5h2m1 0h4m1 0h1m3 0h3m1 0h4m1 0h4m14 0h3m11 0h6m4 0h3m2 0h1m2 0h3m16 0h1m2 0h6m6 0h1m4 0h2m-84 1h1m5 0h3m14 0h1m10 0h1m7 0h1m18 0h1m2 0h1m7 0h1m3 0h1m2 0h1m7 0h1m-89 1h1m2 0h4m11 0h4m1 0h1m25 0h3m2 0h6m1 0h1m13 0h2"/><path stroke="#B3BCC6" d="M305.5 94v2m6-2v3m-8 5v7m6-6v6m-8.5-.5h1m5 0h1"/><path stroke="#C08A1C" d="M75 55.5h1m-1.5 .5v2m.5 .5h1m242 17h1m.5 .5v2m-1.5 .5h3m45 0h2m-49.5 .5v2m2-2v2m45.5-1.5h2m-2 1h2m-50 1h4m44 0h3m-49.5 .5v2m2-2v2m44.5-1.5h3m-3 1h3m-51 1h5m43 0h3m-51 1h1m1 0h1m1 0h1m43 0h4m-4 1h4m-4 1h4m-4 1h4m-4 1h4m-67 8h1m-1 1h2m4 0h1m-7 1h2m4 0h2m8 9h1m87 0h1m-389 1h1m123 0h1m110 0h1m13 0h1m10 0h1m7 0h1"/><path stroke="#C9B27E" d="M4 110.5h407m-309.5 .5v26m54-26v26m66-26v26m66-26v26m51-26v26"/><path stroke="#D85395" d="M44 109.5h1m1 0h1m46 0h1m7 0h1m73 0h1m15 0h1m1 0h1m180 0h1"/><path stroke="#D9DFE6" d="M301.5 96v4m3.5-3.5h1m1.5 .5v3m3.5-2.5h1m-9.5 2.5v2m6-2v2m-12.5 5.5h1m63 0h1m-59 1h1m5 0h1m-273 1h1m72 0h1m5 0h1m67 0h1m25 0h1m25 0h1"/><path stroke="#E0B03A" d="M3 3.5h409m-408.5 .5v136m408-136v136m-338.5-84.5h2m-2 1h1m-2 1h1m-2 1h1m245.5 17.5v2m-1.5 .5h2m47.5-.5v3m-49-2v2m-1.5 .5h3m46 0h2m-50.5 .5v2m2-2v2m46.5-1.5h2m-2 1h2m-52 1h4m46 0h2m-52 1h1m1 0h1m46 0h3m-3 1h3m-3 1h3m-3 1h3m-3 1h3m-63.5 7.5v3m6-2v2m-5.5 .5h1m5.5-.5v2m-306.5 38.5h409"/><path stroke="#EC8BBA" d="M345 70.5h1m2 0h1m2 0h1m2 0h1m-10 4h1m2 0h1m2 0h1m2 0h1"/><path stroke="#F2D27A" d="M73 54.5h1m-3 1h2m-1 1h1m245.5 12.5v6m31.5 2.5h1m-5 2h1m3 0h1m-1 2h1m3 0h1m-7 4h1m-1 2h1m1 0h1m-31 1h1m-3 2h1m9 0h1m1 2h1m15 1h1m-17 1h1m34 0h1m-26 1h1m1 0h1m5 0h1m5 0h1m-39 1h1m7 0h1m1 0h1m30 0h1m1 0h1m-18 1h1m5 0h1m56 0h1m-90 1h1m3 0h1m3 0h1m9 1h1m5 0h1m35 0h1m1 0h1m-14 1h1m24 0h1m-84 1h1m34 0h1m5 0h1m3 0h1m44 0h1m3 0h1m-86 1h1m48 0h1m20 0h1m1 0h1m-55 1h1m13 0h1m52 0h1m1 0h1m-45 1h1m3 0h1m1 0h1m3 0h1m18 0h1m3 0h1m-57 1h1m9 0h1m3 0h1m54 0h1m2 3h1m-391 1h1m57 0h1m47 0h1m17 0h1m110 0h1m13 0h1m10 0h1m102 0h1"/><path stroke="#F3EAD4" d="M354 77.5h1m-7 2h1m-3 2h1m5 0h1m-7 2h1m5 0h1m-19 2h1m11 0h1m3 0h1m3 0h1m-19 2h1m9 0h1m5 0h1m1 0h1m-39 1h1m29 1h1m1 0h1m5 0h1m-39 1h1m23 1h1m5 0h1m1 0h1m1 0h1m-35 1h1m3 0h1m3 0h1m40 0h1m-26 1h1m11 0h1m1 0h1m14 1h1m-68 2h3m13 0h1m1 0h1m44 0h1m-58 1h3m23 0h1m1 0h1m62 0h1m-82 1h1m9 0h1m7 1h1m13 0h1m48 0h1m-84 1h1m42 0h1m-24 1h1m9 0h1m-29 1h1m1 0h1m36 0h1m-51 1h1m70 0h1m26 0h1m-80 1h1m3 0h1m36 0h1m-26 1h1m9 0h1m1 0h1m17 0h1m24 0h1m5 0h1"/><path stroke="#F6F8FB" d="M301 93.5h5m1 0h5m-10.5 .5v2m6-2v3"/><path stroke="#FFFAEE" d="M318 76.5h1m-2 3h1m1 0h1m-4 3h1m1 0h1m1 0h1m-6 3h1m1 0h1m1 0h1m1 0h1m-18 12h1m5 1h1m-8 3h1m5 1h1"/><g transform="translate(0 4)"><use href="#q0" x="5"/><use href="#q1" x="50"/><use href="#q0" x="95"/><use href="#q1" x="140"/><use href="#q0" x="185"/><use href="#q1" x="230"/><use href="#q0" x="275"/><use href="#q1" x="320"/><use href="#q0" x="365"/><use href="#q2" x="5"/><use href="#q2" x="50"/><use href="#q2" x="95"/><use href="#q2" x="140"/><use href="#q2" x="185"/><use href="#q2" x="230"/><use href="#q2" x="275"/><use href="#q2" x="320"/><use href="#q2" x="365"/><use href="#q2" x="408"/></g><g stroke="url(#pafoil3n)"><use href="#q3" transform="translate(24 29) scale(3)"/><use href="#q4" transform="translate(42 29) scale(3)"/><use href="#q5" transform="translate(60 29) scale(3)"/><use href="#q5" transform="translate(78 29) scale(3)"/><use href="#q6" transform="translate(96 29) scale(3)"/><use href="#q7" transform="translate(114 29) scale(3)"/><use href="#q8" transform="translate(144 29) scale(3)"/><use href="#q9" transform="translate(162 29) scale(3)"/><use href="#q10" transform="translate(180 29) scale(3)"/><use href="#q11" transform="translate(198 29) scale(3)"/><use href="#q6" transform="translate(216 29) scale(3)"/><use href="#q5" transform="translate(234 29) scale(3)"/></g><g stroke="#F2D27A"><g transform="translate(0 55)"><use href="#q13" x="24"/><use href="#q14" x="28"/><use href="#q15" x="32"/><use href="#q16" x="36"/><use href="#q17" x="40"/><use href="#q18" x="44"/><use href="#q19" x="48"/><use href="#q20" x="56"/><use href="#q21" x="60"/><use href="#q20" x="64"/></g></g><g stroke="#F3F5FB"><g transform="translate(0 66)"><use href="#q22" x="24"/><use href="#q23" x="28"/><use href="#q24" x="34"/><use href="#q25" x="39"/><use href="#q26" x="45"/><use href="#q27" x="51"/><use href="#q28" x="57"/><use href="#q25" x="62"/><use href="#q29" x="68"/><use href="#q30" x="74"/><use href="#q28" x="80"/><use href="#q29" x="85"/><use href="#q25" x="91"/><use href="#q31" x="97"/><use href="#q24" x="107"/><use href="#q32" x="112"/><use href="#q25" x="118"/><use href="#q4" x="128"/><use href="#q22" x="134"/><use href="#q25" x="142"/><use href="#q31" x="148"/><use href="#q27" x="154"/><use href="#q31" x="160"/><use href="#q26" x="166"/><use href="#q25" x="172"/><use href="#q30" x="178"/><use href="#q33" x="184"/><use href="#q34" x="190"/><use href="#q7" x="196"/><use href="#q31" x="202"/><use href="#q35" x="208"/><use href="#q25" x="214"/><use href="#q32" x="220"/><use href="#q36" x="226"/><use href="#q29" x="232"/><use href="#q30" x="238"/><use href="#q37" x="244"/><use href="#q38" x="248"/><use href="#q37" x="254"/><use href="#q39" x="258"/><use href="#q37" x="262"/><use href="#q28" x="266"/><use href="#q40" x="271"/><use href="#q41" x="277"/></g><g transform="translate(0 77)"><use href="#q27" x="24"/><use href="#q29" x="30"/><use href="#q35" x="36"/><use href="#q35" x="42"/><use href="#q39" x="48"/><use href="#q40" x="52"/><use href="#q42" x="58"/><use href="#q30" x="62"/><use href="#q33" x="68"/><use href="#q26" x="74"/><use href="#q37" x="80"/><use href="#q23" x="84"/><use href="#q33" x="94"/><use href="#q40" x="100"/><use href="#q43" x="106"/><use href="#q37" x="112"/><use href="#q31" x="116"/><use href="#q23" x="122"/><use href="#q31" x="128"/><use href="#q41" x="134"/><use href="#q26" x="141"/><use href="#q23" x="147"/><use href="#q36" x="153"/><use href="#q44" x="163"/><use href="#q22" x="169"/><use href="#q28" x="177"/><use href="#q33" x="182"/><use href="#q26" x="188"/><use href="#q28" x="194"/><use href="#q24" x="203"/><use href="#q26" x="208"/><use href="#q37" x="214"/><use href="#q39" x="218"/><use href="#q27" x="222"/><use href="#q24" x="232"/><use href="#q32" x="237"/><use href="#q25" x="243"/><use href="#q28" x="253"/><use href="#q33" x="258"/><use href="#q31" x="264"/><use href="#q25" x="274"/><use href="#q37" x="280"/><use href="#q43" x="284"/><use href="#q33" x="290"/><use href="#q28" x="296"/></g><g transform="translate(0 88)"><use href="#q25" x="24"/><use href="#q31" x="30"/><use href="#q26" x="36"/><use href="#q27" x="42"/><use href="#q32" x="48"/><use href="#q23" x="54"/><use href="#q27" x="60"/><use href="#q34" x="66"/></g><g transform="translate(0 122)"><use href="#q59" x="8"/><use href="#q28" x="14"/><use href="#q26" x="19"/><use href="#q23" x="25"/><use href="#q23" x="31"/><use href="#q31" x="37"/><use href="#q25" x="43"/><use href="#q43" x="49"/><use href="#q32" x="55"/><use href="#q39" x="61"/><use href="#q36" x="65"/><use href="#q31" x="71"/><use href="#q23" x="77"/><use href="#q64" x="105"/><use href="#q65" x="109"/><use href="#q67" x="159"/><use href="#q69" x="225"/><use href="#q71" x="291"/><use href="#q40" x="297"/><use href="#q28" x="303"/><use href="#q33" x="308"/><use href="#q32" x="314"/><use href="#q23" x="320"/><use href="#q74" x="342"/><use href="#q69" x="348"/><use href="#q64" x="354"/><use href="#q75" x="358"/></g></g><g stroke="#AEB9D8"><g transform="translate(0 114)"><use href="#q20" x="8"/><use href="#q15" x="12"/><use href="#q15" x="16"/><use href="#q18" x="20"/><use href="#q58" x="24"/><use href="#q19" x="28"/><use href="#q16" x="33"/><use href="#q60" x="105"/><use href="#q18" x="109"/><use href="#q61" x="113"/><use href="#q61" x="117"/><use href="#q18" x="121"/><use href="#q62" x="125"/><use href="#q14" x="131"/><use href="#q63" x="135"/><use href="#q13" x="139"/><use href="#q63" x="159"/><use href="#q14" x="163"/><use href="#q66" x="167"/><use href="#q18" x="171"/><use href="#q13" x="175"/><use href="#q17" x="179"/><use href="#q16" x="183"/><use href="#q18" x="187"/><use href="#q63" x="191"/><use href="#q17" x="195"/><use href="#q14" x="199"/><use href="#q13" x="203"/><use href="#q13" x="225"/><use href="#q16" x="229"/><use href="#q20" x="233"/><use href="#q63" x="237"/><use href="#q13" x="241"/><use href="#q14" x="248"/><use href="#q20" x="252"/><use href="#q63" x="256"/><use href="#q19" x="260"/><use href="#q14" x="265"/><use href="#q68" x="269"/><use href="#q61" x="291"/><use href="#q20" x="295"/><use href="#q19" x="299"/><use href="#q70" x="304"/><use href="#q58" x="308"/><use href="#q20" x="312"/><use href="#q70" x="316"/><use href="#q14" x="320"/><use href="#q72" x="342"/><use href="#q14" x="348"/><use href="#q72" x="352"/><use href="#q73" x="358"/><use href="#q14" x="362"/><use href="#q63" x="366"/><use href="#q13" x="373"/><use href="#q17" x="377"/><use href="#q19" x="381"/><use href="#q15" x="386"/><use href="#q14" x="390"/></g></g><path stroke="#D85395" d="M366 68.5h1m-33 8h1m-28 10h1"/><path stroke="#F2D27A" d="M336 93.5h1m12 8h1"/><path stroke="#F3EAD4" d="M336 95.5h1m20 5h1"/><path stroke="#D85395" d="M349 74.5h1"/><path stroke="#D85395" d="M364 87.5h1m35 1h1"/><path stroke="#F2D27A" d="M355 104.5h1"/><path stroke="#05070D" stroke-opacity=".16" d="M301 108.5h3m3 0h3m-9 1h1m3 0h1m1 0h1m3 0h1"/><path stroke="#05070D" stroke-opacity=".32" d="M302 109.5h3m3 0h3"/><path stroke="#FFF6DC" d="M46 29.5h1m152 0h1m-155 1h1m1 0h1m150 0h1m1 0h1m-155 1h1m152 0h1"/><path stroke="#FFFFFF" d="M46 30.5h1m152 0h1"/><path stroke="#FFF6DC" d="M97 29.5h1m-2 1h1m1 0h1m-2 1h1"/><path stroke="#FFFFFF" d="M97 30.5h1"/><path stroke="#FFF6DC" d="M148 29.5h1m-2 1h1m1 0h1m-2 1h1"/><path stroke="#FFFFFF" d="M148 30.5h1"/><path stroke="#F2D27A" d="M347 49.5h1m5 0h1m-11 4h1m13 0h1m-15 6h1m13 0h1m-14 3h1m11 0h1m-12 1h1m1 0h1m1 0h1m3 0h1m3 0h1m-14 1h1m7 0h1m3 0h1m-14 1h1m3 0h1m1 0h1m1 0h1m-8 1h1m3 0h1m3 0h1m3 0h1"/><path stroke="#FCEFC4" d="M347 50.5h1m5 0h1m-10 3h1m11 0h1m-13 6h1m11 0h1m-14 3h1m3 0h1m1 0h1m1 0h1m1 0h1m1 0h1m1 0h1m-11 2h1m1 0h1m6 1h1m-14 1h1m1 0h1m1 0h1m1 0h1m1 0h1m1 0h1"/><path stroke="#FFFFFF" d="M348 50.5h1m3 0h1m-9 4h1m11 0h1m-13 4h1m11 0h1m-9 4h1m3 0h1"/><use href="#q45" x="350" y="56"/><use href="#q54" x="318" y="14"/><use href="#q56" x="396" y="12"/></g></svg>
