<svg xmlns="http://www.w3.org/2000/svg" width="360" height="386" viewBox="0 0 360 386" role="img" aria-labelledby="t d" shape-rendering="crispEdges"><title id="t">banners</title><desc id="d">Blueprint headers and footers a README draws for itself. Measured nightly, never fetched, so they are up for as long as GitHub is. Project: tannergolden/banners. Release: v1.0.0. Stars: 0. Forks: 0. Open issues: 0. Language: Python. License: MIT.</desc><!--markdown-kit v1 valentines-day H2 dark narrow still--><g transform="scale(2)"><defs><pattern id="pd" width="8" height="8" patternUnits="userSpaceOnUse"><rect x="4" y="4" width="1" height="1" fill="#221028"/></pattern><pattern id="rbh" width="8" height="3" patternUnits="userSpaceOnUse"><path stroke="#4E0C24" d="M0 2.5h4m1 0h3"/><path stroke="#7A1231" d="M0 1.5h3m3 0h2"/><path stroke="#A8183D" d="M0 .5h3m1 0h1m1 0h2"/><path stroke="#F4A5CB" d="M3 .5h1m1 0h1m-3 1h3m-2 1h1"/></pattern><pattern id="rbv" width="3" height="8" patternUnits="userSpaceOnUse"><path stroke="#4E0C24" d="M2.5 0v3m0 2v3"/><path stroke="#7A1231" d="M1.5 0v4m0 2v2"/><path stroke="#A8183D" d="M.5 0v3m0 2v3"/><path stroke="#F4A5CB" d="M0 3.5h1m1 0h1m-3 1h3m-2 1h1"/></pattern><rect id="rbH" width="180" height="3" fill="url(#rbh)"/><rect id="rbV" width="3" height="187" fill="url(#rbv)"/><g id="q0"><path stroke="#7A1231" d="M32.5 3v2m-24-1v2m21.5-.5h2m-26 1h2m22 0h1m-25 1h1"/><path stroke="#922A6C" d="M16.5 5v2m-2.5 .5h2m-2 1h1"/><path stroke="#A48E8B" d="M0 .5h2m31 0h2m-33 1h3m25 0h3m-28 1h6m13 0h5m-18 1h13"/><path stroke="#A8183D" d="M31 2.5h1m-25 1h1m22 0h2m-26 1h2m21 0h3m-27 1h3m21 0h1m-25 1h1"/><path stroke="#C0468E" d="M15 4.5h1m5 0h1m1 0h1m-10 1h2m4.5-.5v2m4-2v2m-11.5-.5h3m-3 1h1m7 0h1m1 0h1m-2 1h1"/><path stroke="#CBB7B1" d="M22 6.5h2m-2 1h1"/><path stroke="#D22B47" d="M29 2.5h1m-25 1h1m22 0h2m-26 1h2m22 0h1m-25 1h1"/><path stroke="#E274AF" d="M13 4.5h1m-2 1h2m-2 1h1"/><path stroke="#FFFFFF" d="M21 5.5h3m-3 1h1"/></g><g id="q1"><path stroke="#7A1231" d="M24.5 5v2m-2.5 .5h2m-2 1h1"/><path stroke="#922A6C" d="M32.5 3v2m-24-1v2m21.5-.5h2m-26 1h2m22 0h1m-25 1h1"/><path stroke="#A48E8B" d="M0 .5h2m31 0h2m-33 1h3m25 0h3m-28 1h6m13 0h5m-18 1h13"/><path stroke="#A8183D" d="M23 4.5h1m-2 1h2m-3 1h3m-3 1h1"/><path stroke="#C0468E" d="M31 2.5h1m-25 1h1m22 0h2m-26 1h2m5 0h1m1 0h1m13 0h3m-27 1h3m4.5-.5v2m4-2v2m12.5-1.5h1m-25 1h1m7 1h1m1 0h1m-2 1h1"/><path stroke="#CBB7B1" d="M14 6.5h2m-2 1h1"/><path stroke="#D22B47" d="M21 4.5h1m-2 1h2m-2 1h1"/><path stroke="#E274AF" d="M29 2.5h1m-25 1h1m22 0h2m-26 1h2m22 0h1m-25 1h1"/><path stroke="#FFFFFF" d="M13 5.5h3m-3 1h1"/></g><g id="q2"><path stroke="#4E0C24" d="M0 .5h1"/><path stroke="#7A1231" d="M.5 1v2"/><path stroke="#A8183D" d="M-1.5-1v3m4-3v3"/><path stroke="#D22B47" d="M-.5-1v2m2-2v2"/></g><path id="q3" d="M0 .5h4m-3.5 .5v2m4-2v2m-4.5 .5h4m-3.5 .5v2m4-2v2m-4.5 .5h4"/><path id="q4" d="M1 .5h3m-3.5 .5v2m4-2v2m-4.5 .5h5m-4.5 .5v3m4-3v3"/><path id="q5" d="M0 .5h1m3.5-.5v3m-4.5-1.5h2m-1.5 .5v5m1.5-4.5h1m0 1h2m-.5 .5v3"/><path id="q6" d="M0 .5h5m-4.5 .5v2m-.5 .5h4m-3.5 .5v2m-.5 .5h5"/><path id="q7" d="M0 .5h4m-3.5 .5v2m4-2v2m-4.5 .5h4m-3.5 .5v3m1.5-2.5h1m0 1h1m0 1h1"/><path id="q8" d="M1 .5h4m-4.5 .5v2m.5 .5h3m.5 .5v2m-4.5 .5h4"/><pattern id="pafoil3n" width="4" height="7" patternUnits="userSpaceOnUse"><path fill="#FDD8E7" d="M0 0h4v1h-4zM0 3h4v1h-4z"/><path fill="#F4A5CB" d="M0 1h4v1h-4zM0 4h4v1h-4z"/><path fill="#E274AF" d="M0 2h4v1h-4zM0 5h4v1h-4zM0 6h4v1h-4z"/></pattern><path id="q10" stroke-width="2.33" d="M-.67 .5h5.33m-5.33 1h2.33m1.67 0h2.33m-6.33 1h2.33m1.67 0h2.33m-6.33 1h5.33m-5.33 1h2.33m1.67 0h2.33m-6.33 1h2.33m1.67 0h2.33m-6.33 1h5.33"/><path id="q11" stroke-width="2.33" d="M.33 .5h4.33m-5.33 1h2.33m1.67 0h2.33m-6.33 1h2.33m1.67 0h2.33m-6.33 1h6.33m-6.33 1h2.33m1.67 0h2.33m-6.33 1h2.33m1.67 0h2.33m-6.33 1h2.33m1.67 0h2.33"/><path id="q12" stroke-width="2.33" d="M-.67 .5h2.33m1.67 0h2.33m-6.33 1h3.33m.67 0h2.33m-6.33 1h2.33m-.33 0h2.33m-.33 0h2.33m-6.33 1h2.33m.67 0h3.33m-6.33 1h2.33m1.67 0h2.33m-6.33 1h2.33m1.67 0h2.33m-6.33 1h2.33m1.67 0h2.33"/><path id="q13" stroke-width="2.33" d="M-.67 .5h6.33m-6.33 1h2.33m-2.33 1h2.33m-2.33 1h5.33m-5.33 1h2.33m-2.33 1h2.33m-2.33 1h6.33"/><path id="q14" stroke-width="2.33" d="M-.67 .5h5.33m-5.33 1h2.33m1.67 0h2.33m-6.33 1h2.33m1.67 0h2.33m-6.33 1h5.33m-5.33 1h2.33m-.33 0h2.33m-4.33 1h2.33m.67 0h2.33m-5.33 1h2.33m1.67 0h2.33"/><path id="q15" stroke-width="2.33" d="M.33 .5h5.33m-6.33 1h2.33m-2.33 1h2.33m-1.33 1h4.33m-1.33 1h2.33m-2.33 1h2.33m-6.33 1h5.33"/><path id="q16" stroke-width="1.67" d="M-.33 .5h4.67m-4.67 1h1.67m2.33 0h1.67m-5.67 1h1.67m2.33 0h1.67m-5.67 1h4.67m-4.67 1h1.67m2.33 0h1.67m-5.67 1h1.67m2.33 0h1.67m-5.67 1h4.67"/><path id="q17" stroke-width="1.67" d="M.67 .5h3.67m-4.67 1h1.67m2.33 0h1.67m-5.67 1h1.67m2.33 0h1.67m-5.67 1h5.67m-5.67 1h1.67m2.33 0h1.67m-5.67 1h1.67m2.33 0h1.67m-5.67 1h1.67m2.33 0h1.67"/><path id="q18" stroke-width="1.67" d="M-.33 .5h1.67m2.33 0h1.67m-5.67 1h2.67m1.33 0h1.67m-5.67 1h1.67m.33 0h1.67m.33 0h1.67m-5.67 1h1.67m1.33 0h2.67m-5.67 1h1.67m2.33 0h1.67m-5.67 1h1.67m2.33 0h1.67m-5.67 1h1.67m2.33 0h1.67"/><path id="q19" stroke-width="1.67" d="M-.33 .5h5.67m-5.67 1h1.67m-1.67 1h1.67m-1.67 1h4.67m-4.67 1h1.67m-1.67 1h1.67m-1.67 1h5.67"/><path id="q20" stroke-width="1.67" d="M-.33 .5h4.67m-4.67 1h1.67m2.33 0h1.67m-5.67 1h1.67m2.33 0h1.67m-5.67 1h4.67m-4.67 1h1.67m.33 0h1.67m-3.67 1h1.67m1.33 0h1.67m-4.67 1h1.67m2.33 0h1.67"/><path id="q21" stroke-width="1.67" d="M.67 .5h4.67m-5.67 1h1.67m-1.67 1h1.67m-.67 1h3.67m-.67 1h1.67m-1.67 1h1.67m-5.67 1h4.67"/><path id="q22" d="M1 .5h2m-3 1h1m0 1h1m0 1h1m-3 1h2"/><path id="q23" d="M0 .5h3m-3 1h1m-1 1h2m-2 1h1m-1 1h3"/><path id="q24" d="M1 .5h2m-2.5 .5v3m.5 .5h2"/><path id="q25" d="M0 .5h3m-1.5 .5v4"/><path id="q26" d="M0 .5h3m-1.5 .5v3m-1.5 .5h3"/><path id="q27" d="M1 .5h1m-1.5 .5v3m2-3v3m-1.5 .5h1"/><path id="q28" d="M0 .5h1m2.5-.5v2m-3.5-.5h2m-1.5 .5v3m1.5-2.5h2m-.5 .5v2"/><path id="q29" d="M1 .5h1m-2 1h1m1 0h1m-3 1h3m-2.5 .5v2m2-2v2"/><path id="q30" d="M0 2.5h3"/><path id="q31" d="M0 .5h2m-.5 .5v5m-1.5 .5h3"/><path id="q32" d="M.5 2v4m4-4v3m-1.5 .5h2m-4 1h2m1 0h1"/><path id="q33" d="M1 2.5h3m-4 1h1m3 0h1m-5 1h5m-5 1h1m0 1h3"/><path id="q34" d="M0 2.5h4m-3.5 .5v2m4-2v2m-4.5 .5h4m-3.5 .5v3"/><path id="q35" d="M0 2.5h1m1 0h2m-4 1h2m2 0h1m-4.5 .5v3"/><path id="q36" d="M1 .5h1m-2 2h2m-.5 .5v3m-1.5 .5h3"/><path id="q37" d="M0 2.5h1m1 0h2m-4 1h2m2.5-.5v4m-4-3v3"/><path id="q38" d="M1.5 0v2m-1.5 .5h3m-1.5 .5v3m1.5-.5h1m-2 1h1"/><path id="q39" d="M.5 0v3m1.5-.5h2m-4 1h2m2.5-.5v4m-4-3v3"/><path id="q40" d="M1 2.5h3m0 1h1m-4 1h4m-5 1h1m3 0h1m-4 1h4"/><path id="q41" d="M4.5 0v3m-3.5-.5h2m-2.5 .5v3m2.5-2.5h2m-.5 .5v2m-3.5 .5h4"/><path id="q42" d="M1 2.5h4m-5 1h1m0 1h3m0 1h1m-5 1h4"/><path id="q43" d="M2 .5h2m-2.5 .5v2m-1.5 .5h3m-1.5 .5v3"/><path id="q44" d="M1 2.5h3m-3.5 .5v3m4-3v3m-3.5 .5h3"/><path id="q45" d="M0 .5h3m-2.5 .5v5m2.5-4.5h1m.5 .5v3m-1.5 .5h1m-4 1h3"/><path id="q46" d="M0 .5h1m3 0h1m-5 1h2m1 0h2m-4.5 .5v5m2-5v2m2-2v5"/><path id="q47" d="M.5 2v4m4-4v4m-2-2v2m-1.5 .5h1m1 0h1"/><path id="q48" d="M0 6.5h1"/><path id="q49" d="M1 2.5h4m-4.5 .5v2m4-2v2m-3.5 .5h4m-.5 .5v2m-4.5-.5h1m0 1h3"/><path id="q50" d="M.5 2v3m4-3v3m-3.5 .5h4m-.5 .5v2m-4.5-.5h1m0 1h3"/><path id="q51" d="M1.5 5v2m-1.5 .5h1"/><path id="q52" d="M.5 2v3m4-3v3m-3.5 .5h1m1 0h1m-2 1h1"/><path id="q53" d="M1 2.5h3m-3.5 .5v3m3.5-.5h1m-4 1h3"/><path id="q54" d="M1 .5h3m-3.5 .5v5m3.5-4.5h1m-3 2h3m-.5 .5v2m-3.5 .5h4"/><path id="q55" d="M.5 0v3m4-3v3m-4.5 .5h5m-4.5 .5v3m4-3v3"/><path id="q56" d="M.5 0v3m1.5-.5h2m-4 1h2m2.5-.5v3m-4-2v2m-.5 .5h4"/><path id="q57" d="M0 .5h2m-2 1h1m1 0h1m-3 1h2m-1.5 .5v2"/><path id="q58" d="M0 .5h2m-2 1h1m1 0h1m-3 1h2m-1.5 .5v2m2-2v2"/><path id="q59" d="M2.5 0v4m-2.5-.5h1m0 1h1"/><path id="q60" d="M4.5 0v2m-1.5 .5h1m-2 1h1m-2 1h1m-1.5 .5v2"/><path id="q61" d="M.5 0v4m-.5 .5h3"/><path id="q62" d="M1 .5h1m-2 1h2m-.5 .5v4m-1.5 .5h3"/><path id="q63" d="M1 .5h3m-3.5 .5v3m3.5-2.5h1m-2 1h2m-3 1h1m1.5-.5v3m-4.5-1.5h2m-2 1h1m0 1h3"/><path id="q64" d="M0 .5h3m-3 1h1m-1 1h2m-1.5 .5v2"/><path id="q65" d="M.5 0v2m2-2v2m-2.5 .5h2m-1.5 .5v2m2-2v2"/><path id="q66" d="M.5 0v4m2-4v4m-2.5 .5h3"/><path id="q67" d="M1 .5h2m-2.5 .5v3m2-2v2m-1.5 .5h2"/><path id="q68" d="M0 .5h4m-3.5 .5v2m4-2v2m-4.5 .5h4m-3.5 .5v3"/><path id="q69" d="M0 .5h3m-1.5 .5v5m-1.5 .5h3"/><path id="q70" d="M0 .5h5m-2.5 .5v6"/></defs><rect x="0" y="0" width="180" height="39" fill="#0B0410"/><rect x="0" y="39" width="180" height="38" fill="#10061A"/><rect x="0" y="77" width="180" height="39" fill="#170A22"/><rect x="0" y="116" width="180" height="38" fill="#1F0E2B"/><rect x="0" y="154" width="180" height="39" fill="#281335"/><rect x="0" y="0" width="180" height="193" fill="url(#pd)"/><ellipse cx="163" cy="57" rx="10.4" ry="10.4" fill="#FFF0F3" fill-opacity=".04"/><ellipse cx="163" cy="57" rx="6.93" ry="6.93" fill="#FFF0F3" fill-opacity=".03"/><ellipse cx="163" cy="57" rx="3.47" ry="3.47" fill="#FFF0F3" fill-opacity=".03"/><path stroke="#5A3F63" d="M125 61.5h1m-83 2h1"/><path stroke="#FFFFFF" d="M58 61.5h1"/><g stroke="#E274AF" stroke-opacity=".12"><use href="#q10" transform="translate(22 28) scale(3)"/><use href="#q11" transform="translate(40 28) scale(3)"/><use href="#q12" transform="translate(58 28) scale(3)"/><use href="#q12" transform="translate(76 28) scale(3)"/><use href="#q13" transform="translate(94 28) scale(3)"/><use href="#q14" transform="translate(112 28) scale(3)"/><use href="#q15" transform="translate(130 28) scale(3)"/></g><g stroke="#E274AF" stroke-opacity=".22"><use href="#q16" transform="translate(22 28) scale(3)"/><use href="#q17" transform="translate(40 28) scale(3)"/><use href="#q18" transform="translate(58 28) scale(3)"/><use href="#q18" transform="translate(76 28) scale(3)"/><use href="#q19" transform="translate(94 28) scale(3)"/><use href="#q20" transform="translate(112 28) scale(3)"/><use href="#q21" transform="translate(130 28) scale(3)"/></g><use href="#rbH" x="0" y="0"/><use href="#rbH" x="0" y="190"/><use href="#rbV" x="0" y="3"/><use href="#rbV" x="177" y="3"/><path stroke="#7A1231" d="M85 121.5h1m35 0h1m-107 1h1m17 0h1m22 0h1m27 0h1m11 0h1m23 0h1m10 0h1m24 0h1m6 0h1"/><path stroke="#922A6C" d="M70 55.5h1m-2 1h1m41 66h1m26 0h1"/><path stroke="#A8183D" d="M85 120.5h1m35 0h1m-39 1h2m34 0h2m-107 1h1m17 0h1m22 0h1m39 0h1m34 0h1m24 0h1m6 0h1"/><path stroke="#C0468E" d="M3 3.5h174m-173.5 .5v185m173-185v185m-106.5-134.5h1m-2 1h1m40 67h1m26 0h1m-135 67h174"/><path stroke="#D22B47" d="M83 120.5h1m35 0h1m-114 2h1m36 0h1m22 0h1m4 0h1m33 0h1"/><path stroke="#D9A6BB" d="M4 123.5h172m-37.5 .5v21m-134.5 .5h172m-127.5 .5v21m44-21v21m-88.5 .5h172m-79.5 .5v21"/><path stroke="#E274AF" d="M68.5 54v2m-41.5 66.5h1m118 0h1"/><path stroke="#F6EDE8" d="M161.5 54v4m.5 .5h1m-1 1h2"/><path stroke="#FCEFC4" d="M160.5 55v3m-.5 .5h2m-1 1h1"/><path stroke="#FFFBF8" d="M161 53.5h2m-3 1h1m-1.5 .5v4m.5 .5h1m0 1h4"/><g transform="translate(0 4)"><use href="#q0" x="5"/><use href="#q1" x="39"/><use href="#q0" x="73"/><use href="#q1" x="107"/><use href="#q0" x="141"/><use href="#q2" x="5"/><use href="#q2" x="39"/><use href="#q2" x="73"/><use href="#q2" x="107"/><use href="#q2" x="141"/><use href="#q2" x="172"/></g><g stroke="url(#pafoil3n)"><use href="#q3" transform="translate(22 28) scale(3)"/><use href="#q4" transform="translate(40 28) scale(3)"/><use href="#q5" transform="translate(58 28) scale(3)"/><use href="#q5" transform="translate(76 28) scale(3)"/><use href="#q6" transform="translate(94 28) scale(3)"/><use href="#q7" transform="translate(112 28) scale(3)"/><use href="#q8" transform="translate(130 28) scale(3)"/></g><g stroke="#F4A5CB"><g transform="translate(0 54)"><use href="#q22" x="22"/><use href="#q23" x="26"/><use href="#q24" x="30"/><use href="#q25" x="34"/><use href="#q26" x="38"/><use href="#q27" x="42"/><use href="#q28" x="46"/><use href="#q29" x="54"/><use href="#q30" x="58"/><use href="#q29" x="62"/></g></g><g stroke="#FFF4F7"><g transform="translate(0 66)"><use href="#q3" x="22"/><use href="#q31" x="28"/><use href="#q32" x="32"/><use href="#q33" x="38"/><use href="#q34" x="44"/><use href="#q35" x="50"/><use href="#q36" x="56"/><use href="#q37" x="60"/><use href="#q38" x="66"/><use href="#q39" x="75"/><use href="#q33" x="81"/><use href="#q40" x="87"/><use href="#q41" x="93"/><use href="#q33" x="99"/><use href="#q35" x="105"/><use href="#q42" x="111"/><use href="#q40" x="121"/><use href="#q37" x="127"/><use href="#q41" x="133"/></g><g transform="translate(0 76)"><use href="#q43" x="22"/><use href="#q44" x="27"/><use href="#q44" x="33"/><use href="#q38" x="39"/><use href="#q33" x="44"/><use href="#q35" x="50"/><use href="#q42" x="56"/><use href="#q40" x="66"/><use href="#q7" x="76"/><use href="#q6" x="82"/><use href="#q4" x="88"/><use href="#q45" x="94"/><use href="#q46" x="100"/><use href="#q6" x="106"/><use href="#q41" x="116"/><use href="#q35" x="122"/><use href="#q40" x="128"/><use href="#q47" x="134"/><use href="#q42" x="140"/><use href="#q43" x="150"/><use href="#q44" x="155"/><use href="#q35" x="161"/></g><g transform="translate(0 86)"><use href="#q36" x="22"/><use href="#q38" x="26"/><use href="#q42" x="31"/><use href="#q33" x="37"/><use href="#q31" x="43"/><use href="#q43" x="47"/><use href="#q48" x="52"/><use href="#q46" x="58"/><use href="#q33" x="64"/><use href="#q40" x="70"/><use href="#q42" x="76"/><use href="#q32" x="82"/><use href="#q35" x="88"/><use href="#q33" x="94"/><use href="#q41" x="100"/><use href="#q37" x="110"/><use href="#q36" x="116"/><use href="#q49" x="120"/><use href="#q39" x="126"/><use href="#q38" x="132"/><use href="#q31" x="137"/><use href="#q50" x="141"/><use href="#q51" x="147"/></g><g transform="translate(0 96)"><use href="#q37" x="22"/><use href="#q33" x="28"/><use href="#q52" x="34"/><use href="#q33" x="40"/><use href="#q35" x="46"/><use href="#q43" x="56"/><use href="#q33" x="61"/><use href="#q38" x="67"/><use href="#q53" x="72"/><use href="#q39" x="78"/><use href="#q33" x="84"/><use href="#q41" x="90"/><use href="#q51" x="96"/><use href="#q42" x="103"/><use href="#q44" x="109"/><use href="#q38" x="119"/><use href="#q39" x="124"/><use href="#q33" x="130"/><use href="#q50" x="136"/><use href="#q40" x="146"/><use href="#q35" x="152"/><use href="#q33" x="158"/></g><g transform="translate(0 106)"><use href="#q32" x="22"/><use href="#q34" x="28"/><use href="#q43" x="38"/><use href="#q44" x="43"/><use href="#q35" x="49"/><use href="#q40" x="59"/><use href="#q42" x="65"/><use href="#q31" x="75"/><use href="#q44" x="79"/><use href="#q37" x="85"/><use href="#q49" x="91"/><use href="#q40" x="101"/><use href="#q42" x="107"/><use href="#q54" x="117"/><use href="#q36" x="123"/><use href="#q38" x="127"/><use href="#q55" x="132"/><use href="#q32" x="138"/><use href="#q56" x="144"/><use href="#q36" x="154"/><use href="#q42" x="158"/><use href="#q48" x="164"/></g><g transform="translate(0 134)"><use href="#q38" x="8"/><use href="#q40" x="13"/><use href="#q37" x="19"/><use href="#q37" x="25"/><use href="#q33" x="31"/><use href="#q35" x="37"/><use href="#q49" x="43"/><use href="#q44" x="49"/><use href="#q31" x="55"/><use href="#q41" x="59"/><use href="#q33" x="65"/><use href="#q37" x="71"/><use href="#q60" x="77"/><use href="#q56" x="83"/><use href="#q40" x="89"/><use href="#q37" x="95"/><use href="#q37" x="101"/><use href="#q33" x="107"/><use href="#q35" x="113"/><use href="#q42" x="119"/><use href="#q52" x="142"/><use href="#q62" x="148"/><use href="#q48" x="152"/><use href="#q63" x="154"/><use href="#q48" x="160"/><use href="#q63" x="162"/></g><g transform="translate(0 156)"><use href="#q63" x="8"/><use href="#q63" x="52"/><use href="#q63" x="96"/></g><g transform="translate(0 178)"><use href="#q68" x="8"/><use href="#q50" x="14"/><use href="#q38" x="20"/><use href="#q39" x="25"/><use href="#q44" x="31"/><use href="#q37" x="37"/><use href="#q46" x="100"/><use href="#q69" x="106"/><use href="#q70" x="110"/></g></g><g stroke="#D6B2C3"><g transform="translate(0 127)"><use href="#q57" x="8"/><use href="#q58" x="12"/><use href="#q27" x="16"/><use href="#q59" x="20"/><use href="#q23" x="24"/><use href="#q24" x="28"/><use href="#q25" x="32"/><use href="#q58" x="142"/><use href="#q23" x="146"/><use href="#q61" x="150"/><use href="#q23" x="154"/><use href="#q29" x="158"/><use href="#q22" x="162"/><use href="#q23" x="166"/></g><g transform="translate(0 149)"><use href="#q22" x="8"/><use href="#q25" x="12"/><use href="#q29" x="16"/><use href="#q58" x="20"/><use href="#q22" x="24"/><use href="#q64" x="52"/><use href="#q27" x="56"/><use href="#q58" x="60"/><use href="#q65" x="64"/><use href="#q22" x="68"/><use href="#q27" x="96"/><use href="#q57" x="100"/><use href="#q23" x="104"/><use href="#q28" x="108"/><use href="#q26" x="116"/><use href="#q22" x="120"/><use href="#q22" x="124"/><use href="#q66" x="128"/><use href="#q23" x="132"/><use href="#q22" x="136"/></g><g transform="translate(0 171)"><use href="#q61" x="8"/><use href="#q29" x="12"/><use href="#q28" x="16"/><use href="#q67" x="21"/><use href="#q66" x="25"/><use href="#q29" x="29"/><use href="#q67" x="33"/><use href="#q23" x="37"/><use href="#q61" x="100"/><use href="#q26" x="104"/><use href="#q24" x="108"/><use href="#q23" x="112"/><use href="#q28" x="116"/><use href="#q22" x="121"/><use href="#q23" x="125"/></g></g><path stroke="#FFF0F3" d="M44 28.5h1m-2 1h1m1 0h1m-2 1h1"/><path stroke="#FFFFFF" d="M44 29.5h1"/><path stroke="#FFF0F3" d="M95 28.5h1m-2 1h1m1 0h1m-2 1h1"/><path stroke="#FFFFFF" d="M95 29.5h1"/></g></svg>
