<svg xmlns="http://www.w3.org/2000/svg" width="830" height="302" viewBox="0 0 830 302" role="img" aria-labelledby="t d" shape-rendering="crispEdges"><title id="t">banners</title><desc id="d">Blueprint headers and footers a README draws for itself. Measured nightly, never fetched, so they are up for as long as GitHub is. Project: tannergolden/banners. Release: v1.0.0. Stars: 0. Forks: 0. Open issues: 0. Language: Python. License: MIT.</desc><!--markdown-kit v1 valentines-day H2 dark still--><g transform="scale(2)"><defs><pattern id="pd" width="8" height="8" patternUnits="userSpaceOnUse"><rect x="4" y="4" width="1" height="1" fill="#221028"/></pattern><pattern id="rbh" width="8" height="3" patternUnits="userSpaceOnUse"><path stroke="#4E0C24" d="M0 2.5h4m1 0h3"/><path stroke="#7A1231" d="M0 1.5h3m3 0h2"/><path stroke="#A8183D" d="M0 .5h3m1 0h1m1 0h2"/><path stroke="#F4A5CB" d="M3 .5h1m1 0h1m-3 1h3m-2 1h1"/></pattern><pattern id="rbv" width="3" height="8" patternUnits="userSpaceOnUse"><path stroke="#4E0C24" d="M2.5 0v3m0 2v3"/><path stroke="#7A1231" d="M1.5 0v4m0 2v2"/><path stroke="#A8183D" d="M.5 0v3m0 2v3"/><path stroke="#F4A5CB" d="M0 3.5h1m1 0h1m-3 1h3m-2 1h1"/></pattern><rect id="rbH" width="415" height="3" fill="url(#rbh)"/><rect id="rbV" width="3" height="145" fill="url(#rbv)"/><g id="q0"><path stroke="#7A1231" d="M8.5 4v2m24-1v2m-26.5-.5h2m-2 1h1m23 0h2m-2 1h1"/><path stroke="#922A6C" d="M40.5 3v2m-2.5 .5h2m-23.5 .5v2m21.5-1.5h1m-25 2h2m-2 1h1"/><path stroke="#A48E8B" d="M0 .5h2m37 0h2m-39 1h3m31 0h3m-34 1h3m25 0h3m-28 1h5m15 0h5m-20 1h15"/><path stroke="#A8183D" d="M7 3.5h1m-2 1h2m23 0h1m-27 1h3m22 0h2m-27 1h1m23 0h3m-3 1h1"/><path stroke="#C0468E" d="M39 2.5h1m-2 1h2m-3 1h3m-25 1h1m5 0h1m1 0h1m13 0h1m-24 1h2m4.5-.5v2m4-2v2m-11.5-.5h3m-3 1h1m7 0h1m1 0h1m-2 1h1"/><path stroke="#CBB7B1" d="M22 7.5h2m-2 1h1"/><path stroke="#D22B47" d="M5 3.5h1m-2 1h2m23 0h1m-26 1h1m23 0h2m-2 1h1"/><path stroke="#E274AF" d="M37 2.5h1m-2 1h2m-2 1h1m-24 1h1m-2 1h2m-2 1h1"/><path stroke="#FFFFFF" d="M21 6.5h3m-3 1h1"/></g><g id="q1"><path stroke="#7A1231" d="M40.5 3v2m-2.5 .5h2m-15.5 .5v2m13.5-1.5h1m-17 2h2m-2 1h1"/><path stroke="#922A6C" d="M8.5 4v2m24-1v2m-26.5-.5h2m-2 1h1m23 0h2m-2 1h1"/><path stroke="#A48E8B" d="M0 .5h2m37 0h2m-39 1h3m31 0h3m-34 1h3m25 0h3m-28 1h5m15 0h5m-20 1h15"/><path stroke="#A8183D" d="M39 2.5h1m-2 1h2m-3 1h3m-17 1h1m13 0h1m-16 1h2m-3 1h3m-3 1h1"/><path stroke="#C0468E" d="M7 3.5h1m-2 1h2m23 0h1m-27 1h3m5 0h1m1 0h1m14 0h2m-27 1h1m6.5-.5v2m4-2v2m12.5-1.5h3m-3 1h1m-17 1h1m1 0h1m-2 1h1"/><path stroke="#CBB7B1" d="M14 7.5h2m-2 1h1"/><path stroke="#D22B47" d="M37 2.5h1m-2 1h2m-2 1h1m-16 1h1m-2 1h2m-2 1h1"/><path stroke="#E274AF" d="M5 3.5h1m-2 1h2m23 0h1m-26 1h1m23 0h2m-2 1h1"/><path stroke="#FFFFFF" d="M13 6.5h3m-3 1h1"/></g><g id="q2"><path stroke="#4E0C24" d="M0 .5h1"/><path stroke="#7A1231" d="M.5 1v2"/><path stroke="#A8183D" d="M-1.5-1v3m4-3v3"/><path stroke="#D22B47" d="M-.5-1v2m2-2v2"/></g><path id="q3" d="M0 .5h4m-3.5 .5v2m4-2v2m-4.5 .5h4m-3.5 .5v2m4-2v2m-4.5 .5h4"/><path id="q4" d="M1 .5h3m-3.5 .5v2m4-2v2m-4.5 .5h5m-4.5 .5v3m4-3v3"/><path id="q5" d="M0 .5h1m3.5-.5v3m-4.5-1.5h2m-1.5 .5v5m1.5-4.5h1m0 1h2m-.5 .5v3"/><path id="q6" d="M0 .5h5m-4.5 .5v2m-.5 .5h4m-3.5 .5v2m-.5 .5h5"/><path id="q7" d="M0 .5h4m-3.5 .5v2m4-2v2m-4.5 .5h4m-3.5 .5v3m1.5-2.5h1m0 1h1m0 1h1"/><path id="q8" d="M1 .5h4m-4.5 .5v2m.5 .5h3m.5 .5v2m-4.5 .5h4"/><pattern id="pafoil4n" width="4" height="7" patternUnits="userSpaceOnUse"><path fill="#FDD8E7" d="M0 0h4v1h-4zM0 3h4v1h-4z"/><path fill="#F4A5CB" d="M0 1h4v1h-4zM0 4h4v1h-4z"/><path fill="#E274AF" d="M0 2h4v1h-4zM0 5h4v1h-4zM0 6h4v1h-4z"/></pattern><path id="q10" stroke-width="2" d="M-.5 .5h5m-5 1h2m2 0h2m-6 1h2m2 0h2m-6 1h5m-5 1h2m2 0h2m-6 1h2m2 0h2m-6 1h5"/><path id="q11" stroke-width="2" d="M.5 .5h4m-5 1h2m2 0h2m-6 1h2m2 0h2m-6 1h6m-6 1h2m2 0h2m-6 1h2m2 0h2m-6 1h2m2 0h2"/><path id="q12" stroke-width="2" d="M-.5 .5h2m2 0h2m-6 1h3m1 0h2m-6 1h2m0 0h2m0 0h2m-6 1h2m1 0h3m-6 1h2m2 0h2m-6 1h2m2 0h2m-6 1h2m2 0h2"/><path id="q13" stroke-width="2" d="M-.5 .5h6m-6 1h2m-2 1h2m-2 1h5m-5 1h2m-2 1h2m-2 1h6"/><path id="q14" stroke-width="2" d="M-.5 .5h5m-5 1h2m2 0h2m-6 1h2m2 0h2m-6 1h5m-5 1h2m0 0h2m-4 1h2m1 0h2m-5 1h2m2 0h2"/><path id="q15" stroke-width="2" d="M.5 .5h5m-6 1h2m-2 1h2m-1 1h4m-1 1h2m-2 1h2m-6 1h5"/><path id="q16" stroke-width="1.5" d="M-.25 .5h4.5m-4.5 1h1.5m2.5 0h1.5m-5.5 1h1.5m2.5 0h1.5m-5.5 1h4.5m-4.5 1h1.5m2.5 0h1.5m-5.5 1h1.5m2.5 0h1.5m-5.5 1h4.5"/><path id="q17" stroke-width="1.5" d="M.75 .5h3.5m-4.5 1h1.5m2.5 0h1.5m-5.5 1h1.5m2.5 0h1.5m-5.5 1h5.5m-5.5 1h1.5m2.5 0h1.5m-5.5 1h1.5m2.5 0h1.5m-5.5 1h1.5m2.5 0h1.5"/><path id="q18" stroke-width="1.5" d="M-.25 .5h1.5m2.5 0h1.5m-5.5 1h2.5m1.5 0h1.5m-5.5 1h1.5m.5 0h1.5m.5 0h1.5m-5.5 1h1.5m1.5 0h2.5m-5.5 1h1.5m2.5 0h1.5m-5.5 1h1.5m2.5 0h1.5m-5.5 1h1.5m2.5 0h1.5"/><path id="q19" stroke-width="1.5" d="M-.25 .5h5.5m-5.5 1h1.5m-1.5 1h1.5m-1.5 1h4.5m-4.5 1h1.5m-1.5 1h1.5m-1.5 1h5.5"/><path id="q20" stroke-width="1.5" d="M-.25 .5h4.5m-4.5 1h1.5m2.5 0h1.5m-5.5 1h1.5m2.5 0h1.5m-5.5 1h4.5m-4.5 1h1.5m.5 0h1.5m-3.5 1h1.5m1.5 0h1.5m-4.5 1h1.5m2.5 0h1.5"/><path id="q21" stroke-width="1.5" d="M.75 .5h4.5m-5.5 1h1.5m-1.5 1h1.5m-.5 1h3.5m-.5 1h1.5m-1.5 1h1.5m-5.5 1h4.5"/><path id="q22" d="M1 .5h2m-3 1h1m0 1h1m0 1h1m-3 1h2"/><path id="q23" d="M0 .5h3m-3 1h1m-1 1h2m-2 1h1m-1 1h3"/><path id="q24" d="M1 .5h2m-2.5 .5v3m.5 .5h2"/><path id="q25" d="M0 .5h3m-1.5 .5v4"/><path id="q26" d="M0 .5h3m-1.5 .5v3m-1.5 .5h3"/><path id="q27" d="M1 .5h1m-1.5 .5v3m2-3v3m-1.5 .5h1"/><path id="q28" d="M0 .5h1m2.5-.5v2m-3.5-.5h2m-1.5 .5v3m1.5-2.5h2m-.5 .5v2"/><path id="q29" d="M1 .5h1m-2 1h1m1 0h1m-3 1h3m-2.5 .5v2m2-2v2"/><path id="q30" d="M0 2.5h3"/><path id="q31" d="M0 .5h2m-.5 .5v5m-1.5 .5h3"/><path id="q32" d="M.5 2v4m4-4v3m-1.5 .5h2m-4 1h2m1 0h1"/><path id="q33" d="M1 2.5h3m-4 1h1m3 0h1m-5 1h5m-5 1h1m0 1h3"/><path id="q34" d="M0 2.5h4m-3.5 .5v2m4-2v2m-4.5 .5h4m-3.5 .5v3"/><path id="q35" d="M0 2.5h1m1 0h2m-4 1h2m2 0h1m-4.5 .5v3"/><path id="q36" d="M1 .5h1m-2 2h2m-.5 .5v3m-1.5 .5h3"/><path id="q37" d="M0 2.5h1m1 0h2m-4 1h2m2.5-.5v4m-4-3v3"/><path id="q38" d="M1.5 0v2m-1.5 .5h3m-1.5 .5v3m1.5-.5h1m-2 1h1"/><path id="q39" d="M.5 0v3m1.5-.5h2m-4 1h2m2.5-.5v4m-4-3v3"/><path id="q40" d="M1 2.5h3m0 1h1m-4 1h4m-5 1h1m3 0h1m-4 1h4"/><path id="q41" d="M4.5 0v3m-3.5-.5h2m-2.5 .5v3m2.5-2.5h2m-.5 .5v2m-3.5 .5h4"/><path id="q42" d="M1 2.5h4m-5 1h1m0 1h3m0 1h1m-5 1h4"/><path id="q43" d="M2 .5h2m-2.5 .5v2m-1.5 .5h3m-1.5 .5v3"/><path id="q44" d="M1 2.5h3m-3.5 .5v3m4-3v3m-3.5 .5h3"/><path id="q45" d="M0 .5h3m-2.5 .5v5m2.5-4.5h1m.5 .5v3m-1.5 .5h1m-4 1h3"/><path id="q46" d="M0 .5h1m3 0h1m-5 1h2m1 0h2m-4.5 .5v5m2-5v2m2-2v5"/><path id="q47" d="M.5 2v4m4-4v4m-2-2v2m-1.5 .5h1m1 0h1"/><path id="q48" d="M0 6.5h1"/><path id="q49" d="M1 2.5h4m-4.5 .5v2m4-2v2m-3.5 .5h4m-.5 .5v2m-4.5-.5h1m0 1h3"/><path id="q50" d="M.5 2v3m4-3v3m-3.5 .5h4m-.5 .5v2m-4.5-.5h1m0 1h3"/><path id="q51" d="M1.5 5v2m-1.5 .5h1"/><path id="q52" d="M.5 2v3m4-3v3m-3.5 .5h1m1 0h1m-2 1h1"/><path id="q53" d="M1 2.5h3m-3.5 .5v3m3.5-.5h1m-4 1h3"/><path id="q54" d="M1 .5h3m-3.5 .5v5m3.5-4.5h1m-3 2h3m-.5 .5v2m-3.5 .5h4"/><path id="q55" d="M.5 0v3m4-3v3m-4.5 .5h5m-4.5 .5v3m4-3v3"/><path id="q56" d="M.5 0v3m1.5-.5h2m-4 1h2m2.5-.5v3m-4-2v2m-.5 .5h4"/><g id="q57"><path stroke="#0D0F14" d="M12 5.5h1"/><path stroke="#472116" d="M14.5 4v2m-.5 1.5h1m-8 1h1m5 0h1m-6 1h5m.5 1.5v3m-7.5 .5h1m5 0h1m-6 1h5"/><path stroke="#633021" d="M6 3.5h1m6.5-.5v3m-7 0v2m5.5-1.5h1m-3 1h2m-4 1h2m-4 1h1m-1.5 .5v4m6.5-2.5h1m-2 1h1m-2 1h1m-4 1h3m-4 2h1"/><path stroke="#7A1231" d="M23 11.5h1"/><path stroke="#922A6C" d="M17 11.5h1"/><path stroke="#946511" d="M8 2.5h1m1 0h1m1 0h1m1 1h1m2 0h1m-12 2h1m0 1h1m9 11h1"/><path stroke="#A76842" d="M12.5 3v2m-1.5 .5h1m-3 1h3m1 0h2m-8 1h3m2 0h1m-3 1h3m-2 2h1m-2 1h2m-3 1h1m2 0h1m-7 1h4m0 1h2m-2 3h1"/><path stroke="#A8183D" d="M8 10.5h1m14 0h1m-15 1h1m0 1h1m0 1h2"/><path stroke="#C0468E" d="M17 9.5h1m-2 2h1"/><path stroke="#C08A1C" d="M9 .5h1m-2 1h1m2 0h1m1 1h1m-7 1h1m-2 1h1m10 6h2m1 0h2m-2 1h1m-1.5 .5v3m-1 0v2"/><path stroke="#CBB7B1" d="M5 2.5h2m-3 1h1m-2 1h1m1 0h1m11.5-.5v5m-15-4v2m1.5-1.5h1m0 1h1m-3 1h1m0 1h2m11.5 3.5v5"/><path stroke="#D22B47" d="M13 7.5h1m8 1h1m0 1h1m-17 1h1"/><path stroke="#E0B03A" d="M11 .5h1m-3 1h2m1 0h1m-6 1h1m10.5 1.5v2m1 0v3m.5 .5h1m-5 1h1m2 0h1m2 0h1"/><path stroke="#E274AF" d="M16 9.5h1"/><path stroke="#F6EDE8" d="M5 3.5h1m-2 1h1m4 0h1m-7 1h1m1 0h1m-3 1h2m-1 1h2"/><path stroke="#FCABA6" d="M11.5 2v3m-3.5 .5h3m-3 1h1m1 4h1m3 0h2m-10 2h3m-3 3h1m0 1h2m1 0h2"/><path stroke="#FDD8E7" d="M9 2.5h1m-2 1h3m-4 1h2m1 0h1m-4 1h1m-1 4h1m-2 1h1m2 0h1m2 0h2m-8 1h3"/></g><g id="q58"><path stroke="#0D0F14" d="M12 5.5h1"/><path stroke="#472116" d="M14.5 4v2m-.5 1.5h1m-8 1h1m5 0h1m-6 1h5m.5 1.5v3m-7.5 .5h1m5 0h1m-6 1h5"/><path stroke="#633021" d="M6 3.5h1m6.5-.5v3m-7 0v2m5.5-1.5h1m-3 1h2m-4 1h2m-4 1h1m-1.5 .5v4m6.5-2.5h1m-2 1h1m-2 1h1m-4 1h3m-4 2h1"/><path stroke="#7A1231" d="M23 11.5h1"/><path stroke="#922A6C" d="M17 11.5h1"/><path stroke="#946511" d="M8 2.5h1m1 0h1m1 0h1m1 1h1m2 0h1m-12 2h1m0 1h1m9 11h1"/><path stroke="#A76842" d="M12.5 3v2m-1.5 .5h1m-3 1h3m1 0h2m-8 1h3m2 0h1m-3 1h3m-2 2h1m-2 1h2m-3 1h1m2 0h1m-7 1h4m0 1h2m-2 3h1"/><path stroke="#A8183D" d="M8 10.5h1m14 0h1m-15 1h1m0 1h1m0 1h2"/><path stroke="#C0468E" d="M17 9.5h1m-2 2h1"/><path stroke="#C08A1C" d="M9 .5h1m-2 1h1m2 0h1m1 1h1m-7 1h1m-2 1h1m10 6h2m1 0h2m-2 1h1m-1.5 .5v3m-1 0v2"/><path stroke="#CBB7B1" d="M17.5 4v5m-13.5-2.5h2m-3 1h1m-1.5 .5v2m1.5-1.5h1m1 0h1m-2 1h1m-3 1h1m0 1h1m12.5 .5v5"/><path stroke="#D22B47" d="M13 7.5h1m8 1h1m0 1h1m-17 1h1"/><path stroke="#E0B03A" d="M11 .5h1m-3 1h2m1 0h1m-6 1h1m10.5 1.5v2m1 0v3m.5 .5h1m-5 1h1m2 0h1m2 0h1"/><path stroke="#E274AF" d="M16 9.5h1"/><path stroke="#F6EDE8" d="M9 4.5h1m-6 3h2m-3 1h1m1 0h1m-3 1h2m-1 1h1"/><path stroke="#FCABA6" d="M11.5 2v3m-3.5 .5h3m-3 1h1m1 4h1m3 0h2m-10 2h3m-3 3h1m0 1h2m1 0h2"/><path stroke="#FDD8E7" d="M9 2.5h1m-2 1h3m-4 1h2m1 0h1m-4 1h1m-1 4h1m-2 1h1m2 0h1m2 0h2m-8 1h3"/></g><g id="q59"><path stroke="#EE6069" d="M7.5 4v3m-2.5 .5h2"/><path stroke="#F2D27A" d="M6 3.5h1m-2 1h2m-3 1h3m-3 1h3m-3 1h1"/><path stroke="#F2D27A" stroke-opacity=".07" d="M2 1.5h7m-8 1h4m1 0h4m-9 1h2m5 0h2m-10 1h2m7 0h2m-11 1h2m7 0h2m-11 1h2m7 0h2m-11 1h2m7 0h2m-11 1h2m7 0h2m-10 1h2m5 0h2m-9 1h4m1 0h4m-8 1h7"/><path stroke="#F2D27A" stroke-opacity=".13" d="M5 2.5h1m-3 1h1m3 0h1m-5.5 .5v3m6-3v3m-6.5 .5h2m3 0h2m-7 1h3m1 0h3m-6 1h5m-3 1h1"/><path stroke="#FCEFC4" d="M4 3.5h2m-3 1h2m-1.5 .5v2"/><path stroke="#FFFFFF" d="M5 8.5h1"/></g><g id="q60"><path stroke="#E0B03A" d="M6 3.5h1m-2 1h2m-3 1h3m-3 1h3m-3 1h1"/><path stroke="#EE6069" d="M7.5 4v3m-2.5 .5h2"/><path stroke="#F2D27A" stroke-opacity=".05" d="M2 1.5h7m-8 1h4m1 0h4m-9 1h2m5 0h2m-10 1h2m7 0h2m-11 1h2m7 0h2m-11 1h2m7 0h2m-11 1h2m7 0h2m-11 1h2m7 0h2m-10 1h2m5 0h2m-9 1h4m1 0h4m-8 1h7"/><path stroke="#F2D27A" stroke-opacity=".1" d="M5 2.5h1m-3 1h1m3 0h1m-5.5 .5v3m6-3v3m-6.5 .5h2m3 0h2m-7 1h3m1 0h3m-6 1h5m-3 1h1"/><path stroke="#FCEFC4" d="M4 3.5h2m-3 1h2m-1.5 .5v2"/><path stroke="#FFFFFF" d="M5 8.5h1"/></g><path id="q61" d="M0 .5h2m-2 1h1m1 0h1m-3 1h2m-1.5 .5v2"/><path id="q62" d="M0 .5h2m-2 1h1m1 0h1m-3 1h2m-1.5 .5v2m2-2v2"/><path id="q63" d="M2.5 0v4m-2.5-.5h1m0 1h1"/><path id="q64" d="M4.5 0v2m-1.5 .5h1m-2 1h1m-2 1h1m-1.5 .5v2"/><path id="q65" d="M.5 0v4m-.5 .5h3"/><path id="q66" d="M1 .5h1m-2 1h2m-.5 .5v4m-1.5 .5h3"/><path id="q67" d="M1 .5h3m-3.5 .5v3m3.5-2.5h1m-2 1h2m-3 1h1m1.5-.5v3m-4.5-1.5h2m-2 1h1m0 1h3"/><path id="q68" d="M0 .5h3m-3 1h1m-1 1h2m-1.5 .5v2"/><path id="q69" d="M.5 0v2m2-2v2m-2.5 .5h2m-1.5 .5v2m2-2v2"/><path id="q70" d="M.5 0v4m2-4v4m-2.5 .5h3"/><path id="q71" d="M1 .5h2m-2.5 .5v3m2-2v2m-1.5 .5h2"/><path id="q72" d="M0 .5h4m-3.5 .5v2m4-2v2m-4.5 .5h4m-3.5 .5v3"/><path id="q73" d="M0 .5h3m-1.5 .5v5m-1.5 .5h3"/><path id="q74" d="M0 .5h5m-2.5 .5v6"/></defs><rect x="0" y="0" width="415" height="30" fill="#0B0410"/><rect x="0" y="30" width="415" height="30" fill="#10061A"/><rect x="0" y="60" width="415" height="31" fill="#170A22"/><rect x="0" y="91" width="415" height="30" fill="#1F0E2B"/><rect x="0" y="121" width="415" height="30" fill="#281335"/><rect x="0" y="0" width="415" height="151" fill="url(#pd)"/><ellipse cx="318" cy="26" rx="15.6" ry="15.6" fill="#FFF0F3" fill-opacity=".04"/><ellipse cx="318" cy="26" rx="10.4" ry="10.4" fill="#FFF0F3" fill-opacity=".03"/><ellipse cx="318" cy="26" rx="5.2" ry="5.2" fill="#FFF0F3" fill-opacity=".03"/><path stroke="#34203D" d="M299 47.5h1m-285 22h1m174 0h1m131 3h1"/><path stroke="#5A3F63" d="M227 27.5h1m137 0h1m-152 24h1m98 16h1"/><path stroke="#F2D27A" stroke-opacity=".08" d="M371 35.5h3m-4 1h5m-6 1h2m3 0h2m-7 1h2m3 0h2m-7 1h2m3 0h2m-6 1h5m-4 1h3"/><path stroke="#F2D27A" stroke-opacity=".24" d="M371 37.5h3m-3 1h3m-3 1h3"/><path stroke="#FCEFC4" d="M359 40.5h1m-2 1h1m1 0h1m-2 1h1"/><path stroke="#FDD8E7" d="M326 35.5h1"/><path stroke="#FFF0F3" d="M314 16.5h1m-78 5h1m100 0h1m-2 1h1m1 0h1m-2 1h1m-15 25h1m-83 12h1"/><path stroke="#FFF0F3" stroke-opacity=".48" d="M338 20.5h1m-3 2h1m3 0h1m-3 2h1"/><path stroke="#FFFFFF" d="M384 19.5h1m-47 3h1m-86 14h1m105 5h1m-352 1h1m380 21h1"/><g stroke="#E274AF" stroke-opacity=".12"><use href="#q10" transform="translate(24 29) scale(4)"/><use href="#q11" transform="translate(48 29) scale(4)"/><use href="#q12" transform="translate(72 29) scale(4)"/><use href="#q12" transform="translate(96 29) scale(4)"/><use href="#q13" transform="translate(120 29) scale(4)"/><use href="#q14" transform="translate(144 29) scale(4)"/><use href="#q15" transform="translate(168 29) scale(4)"/></g><g stroke="#E274AF" stroke-opacity=".22"><use href="#q16" transform="translate(24 29) scale(4)"/><use href="#q17" transform="translate(48 29) scale(4)"/><use href="#q18" transform="translate(72 29) scale(4)"/><use href="#q18" transform="translate(96 29) scale(4)"/><use href="#q19" transform="translate(120 29) scale(4)"/><use href="#q20" transform="translate(144 29) scale(4)"/><use href="#q21" transform="translate(168 29) scale(4)"/></g><path stroke="#946511" d="M371 63.5h1m0 1h1m-2 1h1m0 1h1m-2 1h1m0 1h1m-2 1h1m0 1h1m-2 1h1m0 1h1m-2 1h1m1 0h1m-4 1h1m1 0h1m-2 1h1m1 0h1m-4 1h1m1 0h1m-2 1h1m1 0h1m-4 1h1m1 0h1m-2 1h1m1 0h1m-5 2h1m1 0h1m1 0h1m-4 1h1m1 0h1m1 0h1m-6 1h1m1 0h1m1 0h1m-4 1h1m1 0h1m1 0h1m-6 1h1m1 0h1m1 0h1m-4 1h1m1 0h1m1 0h1m-6 1h1m1 0h1m1 0h1m1 0h1m-8 1h1m1 0h1m1 0h1m1 0h1m-6 1h1m1 0h1m1 0h1m1 0h1m-8 1h1m1 0h1m1 0h1m1 0h1m-6 1h1m1 0h1m1 0h1m1 0h1m-8 1h1m1 0h1m1 0h1m1 0h1m1 0h1m-10 3h1m1 0h1m1 0h1m1 0h1m1 0h1m-10 1h1m1 0h1m1 0h1m1 0h1m1 0h1m1 0h1m-10 1h1m1 0h1m1 0h1m1 0h1m1 0h1m1 0h1m-12 1h1m1 0h1m1 0h1m1 0h1m1 0h1m1 0h1m-10 1h1m1 0h1m5 0h1m1 0h1m-12 1h1m9 0h1m1 0h1m-14 1h1m11 0h1m-14 1h1m13 0h1m0 1h1m-16 1h1m15 0h1m-18 1h1m17 0h1m-20 1h1m-2 1h1"/><path stroke="#C08A1C" d="M372.5 44v7m0 1v6m-.5 .5h2m-2 1h2m-2 1h2m-2 1h2m-2 1h2m-.5 .5v7m-.5 .5h2m-2 1h2m-2 1h2m-.5 .5v6m-.5 .5h2m-.5 1.5v4m-.5 .5h2m-2 1h2m-.5 .5v3m-.5 .5h2m-2 1h2m-1 1h1m-12 1h12m-1 2h2m-1 1h2m-2 1h2m-2 1h2m-2 1h2m-1 1h2m-2 1h2m-1 1h2m-2 1h2m-1 1h2m-1 1h1m-1 1h2m-1 1h2"/><path stroke="#E0B03A" d="M372.5 39v5m-1.5 7.5h2m-6 29h11m-15 14h19"/><path stroke="#F2D27A" d="M371.5 44v7m0 1v6m-1.5 .5h2m-2 1h2m-2 1h2m-2 1h2m-2 1h2m-1.5 .5v7m-1.5 .5h2m-2 1h2m-2 1h2m-1.5 .5v6m-1.5 .5h2m-1.5 1.5v4m-1.5 .5h2m-2 1h2m-1.5 .5v3m-1.5 .5h2m-2 1h2m-2 1h1m-2 3h2m-3 1h2m-2 1h2m-2 1h2m-2 1h2m-3 1h2m-2 1h2m-3 1h2m-2 1h2m-3 1h2m-2 1h1m-2 1h2m-3 1h2"/><ellipse cx="300.5" cy="97" rx="6.5" ry="6.5" fill="#F2D27A" fill-opacity=".08"/><ellipse cx="300.5" cy="97" rx="4.33" ry="4.33" fill="#F2D27A" fill-opacity=".08"/><ellipse cx="300.5" cy="97" rx="2.17" ry="2.17" fill="#F2D27A" fill-opacity=".11"/><ellipse cx="404.5" cy="97" rx="6.5" ry="6.5" fill="#F2D27A" fill-opacity=".08"/><ellipse cx="404.5" cy="97" rx="4.33" ry="4.33" fill="#F2D27A" fill-opacity=".08"/><ellipse cx="404.5" cy="97" rx="2.17" ry="2.17" fill="#F2D27A" fill-opacity=".11"/><use href="#rbH" x="0" y="0"/><use href="#rbH" x="0" y="148"/><use href="#rbV" x="0" y="3"/><use href="#rbV" x="412" y="3"/><path stroke="#0B0410" d="M329 91.5h1m55 0h1m3 0h1m12 0h1m3 0h1m-32 1h1m3 0h1m-66 1h1m3 0h1m43 1h1m3 0h1m-43 1h1m2 0h1m7 0h1m3 0h1m8 0h1m5 0h1m29 0h1m12 0h1m2 0h1m-28 1h1m5 0h1m-67 1h1m2 0h1m2 0h1m4 1h1m2 0h1m2 0h1m23 0h1m2 0h1m2 0h1m5 0h1m20 0h1m2 0h1m2 0h1m3 0h1m-64 1h1m2 0h1m2 0h1m29 0h1m2 0h1m-61 1h1m5 0h1m4 1h1m5 0h1m14 0h1m2 0h1m8 0h1m2 0h1m2 0h1m20 0h1m2 0h1m2 0h1m6 0h1m-64 1h1m2 0h1m38 0h1m-61 1h1m2 0h1m10 1h1m17 0h1m5 0h1m2 0h1m8 0h1m17 0h1m8 0h1m3 0h1m5 0h1m2 0h1m-73 1h1m2 0h1m35 0h1m2 0h1m2 0h1m-64 1h1"/><path stroke="#0D0F14" d="M324 99.5h8m13 0h10m29 0h11m2 0h5m5 0h2m-39 1h12m-69 1h9m35 1h11m-34 1h9m-41 9h1m103 0h1"/><path stroke="#170819" d="M332.5 94v13m23-13v13m40-13v13m14-13v13m-27-12v12m-60-11v11m46-10v10m-25-9v9"/><path stroke="#171A22" d="M325 90.5h7m14 0h9m30 0h10m3 0h11m-85 1h1m1 0h3m1 0h3m12 0h1m1 0h3m1 0h5m15 0h11m2 0h1m1 0h3m1 0h3m1 0h2m1 0h1m1 0h3m1 0h3m1 0h3m-110 1h1m13 0h8m2 0h9m12 0h11m14 0h1m1 0h3m1 0h3m1 0h3m1 0h12m1 0h13m-111 1h3m11 0h1m1 0h3m1 0h4m1 0h9m12 0h11m2 0h10m2 0h13m1 0h12m1 0h13m-97 1h10m12 0h8m14 0h1m1 0h3m1 0h3m1 0h2m1 0h13m-84.5 .5v4m4-4v4m10.5-3.5h10m11 0h1m1 0h3m1 0h4m13 0h12m33.5-.5v4m4-4v4m-72.5-2.5h10m13 0h12m-35 1h10m-46 2h5m99 0h5m-107 1h1m103 0h1m-105 2h1m103 0h1m-105 3h1m103 0h1m-108.5 2.5v4m2.5-3.5h2m1.5-.5v3m3-3v3m3-3v4m3-4v4m5.5-3.5h1m2.5-.5v4m3-4v4m3-4v2m6-2v2m3-2v4m3-4v2m5.5-1.5h1m2.5-.5v2m3-2v4m11.5-3.5h1m2.5-.5v4m2.5-3.5h1m8.5-.5v2m2.5-1.5h1m5.5-.5v4m2.5-3.5h1m2 0h1m2.5-.5v2m3-2v4m5.5-3.5h1m2 0h1m-109 2h1m14.5-.5v2m2.5-1.5h1m11 0h1m11.5-.5v2m3-2v2m11.5-1.5h1m5 0h1m5 0h1m2.5-.5v2m3-2v2m5.5-1.5h1m2.5-.5v2m8.5-1.5h1m8.5-.5v2m-101.5-.5h3m101 0h2m-110 1h2m1 0h3m1 0h99m1 0h3m1 0h3"/><path stroke="#240D27" d="M329.5 87v2m19-2v2m37-2v2m19-2v2m-30-1v2m-58-1v2m47-1v2m-28-1v2m-11.5 1.5h8m13 0h10m29 0h11m2 0h5m5 0h2m-84 1h2m1 0h2m1 0h1m14 0h2m1 0h2m1 0h2m16 0h12m3 0h2m1 0h2m1 0h2m1 0h1m3 0h2m1 0h1m5 0h2m-96 1h9m2 0h8m13 0h10m16 0h2m1 0h2m1 0h2m1 0h2m2 0h11m2 0h5m5 0h2m-95 1h2m1 0h2m1 0h2m2 0h8m13 0h10m2 0h11m2 0h12m2 0h11m2 0h5m5 0h2m-96 1h9m3 0h2m1 0h2m1 0h1m2 0h9m3 0h2m1 0h2m1 0h2m4 0h2m1 0h2m1 0h2m1 0h1m2 0h12m3 0h2m1 0h2m1 0h2m1 0h1m3 0h2m1 0h1m5 0h2m-96 1h9m13 0h2m1 0h2m1 0h2m14 0h11m3 0h2m1 0h2m1 0h2m1 0h2m-68 1h2m1 0h2m1 0h2m2 0h8m2 0h9m2 0h10m2 0h11m16 0h11m2 0h7m1 0h4m-84 1h2m1 0h2m1 0h1m2 0h9m3 0h2m1 0h2m1 0h2m4 0h2m1 0h2m1 0h2m1 0h1m2 0h12m3 0h2m1 0h2m1 0h2m1 0h1m3 0h2m1 0h2m2 0h1m1 0h2m-96 1h9m2 0h8m3 0h2m1 0h2m1 0h2m2 0h10m16 0h2m1 0h2m1 0h2m1 0h2m2 0h11m2 0h7m1 0h4m-95 1h2m1 0h2m1 0h2m2 0h8m13 0h10m2 0h11m2 0h12m2 0h11m2 0h7m1 0h4m-96 1h9m3 0h2m1 0h2m1 0h1m2 0h9m3 0h2m1 0h2m1 0h2m4 0h2m1 0h2m1 0h2m1 0h1m2 0h12m3 0h2m1 0h2m1 0h2m1 0h1m3 0h2m1 0h2m2 0h1m1 0h2m-96 1h9m2 0h8m3 0h2m1 0h2m1 0h2m2 0h10m2 0h11m3 0h2m1 0h2m1 0h2m1 0h2m2 0h11m2 0h7m1 0h4m-95 1h2m1 0h2m1 0h2m2 0h8m2 0h9m2 0h10m2 0h11m2 0h12m2 0h11m2 0h7m1 0h4m-113 8h1m7 0h1m7 0h1m7 0h1m7 0h1m7 0h1m7 0h1m7 0h1m7 0h1m7 0h1m7 0h1m7 0h1m7 0h1m7 0h1m7 0h1m-113 2h1m1 0h1m1 0h1m1 0h1m1 0h1m1 0h1m1 0h1m1 0h1m1 0h1m1 0h1m1 0h1m1 0h1m1 0h1m1 0h1m1 0h1m1 0h1m1 0h1m1 0h1m1 0h1m1 0h1m1 0h1m1 0h1m1 0h1m1 0h1m1 0h1m1 0h1m1 0h1m1 0h1m1 0h1m1 0h1m1 0h1m1 0h1m1 0h1m1 0h1m1 0h1m1 0h1m1 0h1m1 0h1m1 0h1m1 0h1m1 0h1m1 0h1m1 0h1m1 0h1m1 0h1m1 0h1m1 0h1m1 0h1m1 0h1m1 0h1m1 0h1m1 0h1m1 0h1m1 0h1m1 0h1m1 0h1m1 0h1"/><path stroke="#341438" d="M328.5 87v2m19-2v2m37-2v2m19-2v2m-30-1v2m-58-1v2m47-1v2m-28-1v2m-11 1v13m21-13v13m39-13v13m13-13v13m-27-12v12m-57-11v11m44-10v10m-23-9v9m-36.5 7.5h7m1 0h7m1 0h7m1 0h7m1 0h7m1 0h7m1 0h7m1 0h7m1 0h7m1 0h7m1 0h7m1 0h7m1 0h7m1 0h7m1 0h1m-114 1h114m-113 1h1m1 0h1m1 0h1m1 0h1m1 0h1m1 0h1m1 0h1m1 0h1m1 0h1m1 0h1m1 0h1m1 0h1m1 0h1m1 0h1m1 0h1m1 0h1m1 0h1m1 0h1m1 0h1m1 0h1m1 0h1m1 0h1m1 0h1m1 0h1m1 0h1m1 0h1m1 0h1m1 0h1m1 0h1m1 0h1m1 0h1m1 0h1m1 0h1m1 0h1m1 0h1m1 0h1m1 0h1m1 0h1m1 0h1m1 0h1m1 0h1m1 0h1m1 0h1m1 0h1m1 0h1m1 0h1m1 0h1m1 0h1m1 0h1m1 0h1m1 0h1m1 0h1m1 0h1m1 0h1m1 0h1m1 0h1m1 0h1"/><path stroke="#343948" d="M324 90.5h1m20 0h1m38 0h1m12 0h1m-74.5 .5v3m21-3v3m25.5-2.5h1m12.5-.5v3m13-3v3m-83.5-1.5h1m55.5-.5v3m-57-2v3m44.5-2.5h1m-24 1h1m21.5-.5v3m-23-2v3"/><path stroke="#472116" d="M329 86.5h1m18 0h1m36 0h1m18 0h1m-31 1h1m-59 1h1m46 1h1m-29 1h1"/><path stroke="#4C2151" d="M296 113.5h114"/><path stroke="#4F3785" d="M322 109.5h1m39 0h1m17 0h1m7 0h1m13 0h1m-97 2h1m3 0h1m19 0h1m1 0h1m49 0h1"/><path stroke="#59636F" d="M304 109.5h1m25 0h1m3 0h1m11 0h1m11 0h1m25 0h1m9 0h1m-77 2h1m41 0h1m1 0h1"/><path stroke="#633021" d="M328 86.5h1m18 0h1m36 0h1m18 0h1m-31 1h1m-59 1h1m46 1h1m-29 1h1"/><path stroke="#6D52AF" d="M321 109.5h1m39 0h1m17 0h1m7 0h1m13 0h1m-97 2h1m3 0h1m19 0h1m1 0h1m49 0h1"/><path stroke="#7A1231" d="M318 109.5h1m23 0h1m9 0h1m15 0h1m39 0h1m-93 2h1m17 0h1m5 0h1m5 0h1m31 0h1m1 0h1m11 0h1m3 0h1m-286 4h1m-102 1h1m11 0h1m6 0h1m12 0h1m13 0h1m8 0h1m10 0h1m33 0h1m44 0h1m59 0h1m8 0h1m8 0h1m12 0h1m8 0h1m13 0h1m11 0h1"/><path stroke="#86909C" d="M303 109.5h1m25 0h1m3 0h1m11 0h1m11 0h1m25 0h1m9 0h1m-77 2h1m41 0h1m1 0h1"/><path stroke="#922A6C" d="M73 63.5h1m-2 1h1m241 45h1m57 0h1m1 0h1m-27 2h1m3 0h1m15 0h1m37 0h1m1 0h1m-305 4h1m69 0h1m-72 1h1m23 0h1m11 0h1m33 0h1"/><path stroke="#927ACD" d="M322 108.5h1m38 0h1m17 0h1m8 0h1m12 0h1m-96 2h1m3 0h1m19 0h1m1 0h1m48 0h1"/><path stroke="#946511" d="M328 109.5h1m11 0h1m3 0h1m9 0h1m1 0h1m3 0h1m9 0h1m19 0h1m1 0h1m13 0h1m-81 2h1m11 0h1m15 0h1m1 0h1m1 0h1m11 0h1m19 0h1"/><path stroke="#A8183D" d="M317 109.5h1m23 0h1m9 0h1m15 0h1m39 0h1m-93 2h1m17 0h1m5 0h1m5 0h1m31 0h1m1 0h1m11 0h1m3 0h1m-285 3h1m-3 1h2m-102 1h1m11 0h1m6 0h1m12 0h1m13 0h1m8 0h1m10 0h1m78 0h1m59 0h1m8 0h1m8 0h1m12 0h1m8 0h1m13 0h1m11 0h1"/><path stroke="#B58DB6" d="M324 89.5h8m13 0h10m29 0h11m2 0h12m-39 1h12m-69 1h9m35 1h11m-34 1h9m-45 1h5m99 0h5m-107 7h1m103 0h1m-104.5 1.5v2m104-2v2m-104.5 1.5h1m103 0h1m-109 1h114m-109.5 1.5v2m104-2v2m-105.5 .5h1m103 0h1m-106 1h1m103 0h1"/><path stroke="#C0468E" d="M3 3.5h409m-408.5 .5v143m408-143v143m-338.5-84.5h1m-2 1h1m240 46h1m57 0h1m1 0h1m-27 2h1m3 0h1m15 0h1m39 0h1m-304 3h1m69 0h1m-73 1h2m68 0h2m-48 1h1m11 0h1m-136 31h409"/><path stroke="#C08A1C" d="M345 98.5h1m30 1h1m26 2h1m-34 1h1m-8 2h1m-45 2h1m-21 3h1m27 0h1m11 0h1m3 0h1m9 0h1m1 0h1m3 0h1m9 0h1m19 0h1m1 0h1m13 0h1m-81 2h1m11 0h1m15 0h1m1 0h1m1 0h1m11 0h1m19 0h1"/><path stroke="#D22B47" d="M318 108.5h1m22 0h1m9 0h1m15 0h1m40 0h1m-94 2h1m18 0h1m5 0h1m4 0h1m31 0h1m1 0h1m11 0h1m3 0h1m-287 4h1m-28 2h1m8 0h1m26 0h1m25 0h1m37 0h1m11 0h1m6 0h1m84 0h1"/><path stroke="#D9A6BB" d="M4 117.5h407m-262.5 .5v26m42-26v26m33-26v26m33-26v26m60-26v26m50-26v26"/><path stroke="#D9DFE6" d="M303 108.5h1m25 0h1m4 0h1m10 0h1m11 0h1m25 0h1m10 0h1m-77 2h1m40 0h1m1 0h1"/><path stroke="#E0B03A" d="M325 91.5h1m20 0h1m3 0h1m42 0h1m4 0h1m-28 1h1m-14 2h1m-31 14h1m11 0h1m2 0h1m9 0h1m2 0h1m2 0h1m9 0h1m20 0h2m14 0h1m-81 2h1m11 0h1m14 0h1m1 0h1m1 0h1m12 0h1m18 0h1"/><path stroke="#E274AF" d="M71.5 62v2m242.5 44.5h1m56 0h1m2 0h1m-28 2h1m3 0h1m15 0h1m38 0h2m-306 4h1m69 0h1m-125 2h1m114 0h1m43 0h1m54 0h1"/><path stroke="#F2D27A" d="M300 95.5h2m28 0h1m14 0h1m5 0h1m35 0h1m2 0h1m2 0h1m10 0h2m-105 1h1m68 0h1m5 0h1m28 0h1m-106 1h2m102 0h2m-106 1h2m46 0h1m2 0h1m11 0h1m20 0h1m15 0h1m3 0h2m-27 1h1m-64 1h1m10 1h1m23 0h1m2 0h1m11 0h1m26 0h1m6 0h1m5 0h1m-67 1h1m32 0h1m5 0h1m-67 1h1m10 1h1m2 0h1m17 0h1m5 0h1m8 0h1m26 0h1m2 0h1m9 0h1m-61 1h1m29 0h1m-58 1h1"/><path stroke="#F6EDE8" d="M315 22.5h2m-1.5 .5v4m-.5 .5h2m-1 1h2m-1 1h2m-1 1h1"/><path stroke="#FCEFC4" d="M314.5 23v2m-1.5 .5h2m-2 1h2m-1 1h1m-1 1h2m-1 1h2m0 1h1m-18.5 64.5v4m104-4v4"/><path stroke="#FFFBF8" d="M316 20.5h2m-4 1h3m-4 1h2m-2 1h1m-2 1h2m-1.5 .5v2m-.5 .5h2m-1 1h1m-1 1h2m-1 1h3m2 0h3m-6 1h4"/><path stroke="#FFFFFF" d="M300 96.5h1m103 0h1"/><g transform="translate(0 4)"><use href="#q0" x="5"/><use href="#q1" x="45"/><use href="#q0" x="85"/><use href="#q1" x="125"/><use href="#q0" x="165"/><use href="#q1" x="205"/><use href="#q0" x="245"/><use href="#q1" x="285"/><use href="#q0" x="325"/><use href="#q1" x="365"/><use href="#q2" x="5"/><use href="#q2" x="45"/><use href="#q2" x="85"/><use href="#q2" x="125"/><use href="#q2" x="165"/><use href="#q2" x="205"/><use href="#q2" x="245"/><use href="#q2" x="285"/><use href="#q2" x="325"/><use href="#q2" x="365"/><use href="#q2" x="405"/><use href="#q2" x="407"/></g><g stroke="url(#pafoil4n)"><use href="#q3" transform="translate(24 29) scale(4)"/><use href="#q4" transform="translate(48 29) scale(4)"/><use href="#q5" transform="translate(72 29) scale(4)"/><use href="#q5" transform="translate(96 29) scale(4)"/><use href="#q6" transform="translate(120 29) scale(4)"/><use href="#q7" transform="translate(144 29) scale(4)"/><use href="#q8" transform="translate(168 29) scale(4)"/></g><g stroke="#F4A5CB"><g transform="translate(0 62)"><use href="#q22" x="24"/><use href="#q23" x="28"/><use href="#q24" x="32"/><use href="#q25" x="36"/><use href="#q26" x="40"/><use href="#q27" x="44"/><use href="#q28" x="48"/><use href="#q29" x="56"/><use href="#q30" x="60"/><use href="#q29" x="64"/></g></g><g stroke="#FFF4F7"><g transform="translate(0 73)"><use href="#q3" x="24"/><use href="#q31" x="30"/><use href="#q32" x="34"/><use href="#q33" x="40"/><use href="#q34" x="46"/><use href="#q35" x="52"/><use href="#q36" x="58"/><use href="#q37" x="62"/><use href="#q38" x="68"/><use href="#q39" x="77"/><use href="#q33" x="83"/><use href="#q40" x="89"/><use href="#q41" x="95"/><use href="#q33" x="101"/><use href="#q35" x="107"/><use href="#q42" x="113"/><use href="#q40" x="123"/><use href="#q37" x="129"/><use href="#q41" x="135"/><use href="#q43" x="145"/><use href="#q44" x="150"/><use href="#q44" x="156"/><use href="#q38" x="162"/><use href="#q33" x="167"/><use href="#q35" x="173"/><use href="#q42" x="179"/><use href="#q40" x="189"/><use href="#q7" x="199"/><use href="#q6" x="205"/><use href="#q4" x="211"/><use href="#q45" x="217"/><use href="#q46" x="223"/><use href="#q6" x="229"/><use href="#q41" x="239"/><use href="#q35" x="245"/><use href="#q40" x="251"/><use href="#q47" x="257"/><use href="#q42" x="263"/><use href="#q43" x="273"/><use href="#q44" x="278"/><use href="#q35" x="284"/></g><g transform="translate(0 84)"><use href="#q36" x="24"/><use href="#q38" x="28"/><use href="#q42" x="33"/><use href="#q33" x="39"/><use href="#q31" x="45"/><use href="#q43" x="49"/><use href="#q48" x="54"/><use href="#q46" x="60"/><use href="#q33" x="66"/><use href="#q40" x="72"/><use href="#q42" x="78"/><use href="#q32" x="84"/><use href="#q35" x="90"/><use href="#q33" x="96"/><use href="#q41" x="102"/><use href="#q37" x="112"/><use href="#q36" x="118"/><use href="#q49" x="122"/><use href="#q39" x="128"/><use href="#q38" x="134"/><use href="#q31" x="139"/><use href="#q50" x="143"/><use href="#q51" x="149"/><use href="#q37" x="156"/><use href="#q33" x="162"/><use href="#q52" x="168"/><use href="#q33" x="174"/><use href="#q35" x="180"/><use href="#q43" x="190"/><use href="#q33" x="195"/><use href="#q38" x="201"/><use href="#q53" x="206"/><use href="#q39" x="212"/><use href="#q33" x="218"/><use href="#q41" x="224"/><use href="#q51" x="230"/><use href="#q42" x="237"/><use href="#q44" x="243"/><use href="#q38" x="253"/><use href="#q39" x="258"/><use href="#q33" x="264"/><use href="#q50" x="270"/><use href="#q40" x="280"/><use href="#q35" x="286"/><use href="#q33" x="292"/></g><g transform="translate(0 95)"><use href="#q32" x="24"/><use href="#q34" x="30"/><use href="#q43" x="40"/><use href="#q44" x="45"/><use href="#q35" x="51"/><use href="#q40" x="61"/><use href="#q42" x="67"/><use href="#q31" x="77"/><use href="#q44" x="81"/><use href="#q37" x="87"/><use href="#q49" x="93"/><use href="#q40" x="103"/><use href="#q42" x="109"/><use href="#q54" x="119"/><use href="#q36" x="125"/><use href="#q38" x="129"/><use href="#q55" x="134"/><use href="#q32" x="140"/><use href="#q56" x="146"/><use href="#q36" x="156"/><use href="#q42" x="160"/><use href="#q48" x="166"/></g><g transform="translate(0 129)"><use href="#q38" x="8"/><use href="#q40" x="13"/><use href="#q37" x="19"/><use href="#q37" x="25"/><use href="#q33" x="31"/><use href="#q35" x="37"/><use href="#q49" x="43"/><use href="#q44" x="49"/><use href="#q31" x="55"/><use href="#q41" x="59"/><use href="#q33" x="65"/><use href="#q37" x="71"/><use href="#q64" x="77"/><use href="#q56" x="83"/><use href="#q40" x="89"/><use href="#q37" x="95"/><use href="#q37" x="101"/><use href="#q33" x="107"/><use href="#q35" x="113"/><use href="#q42" x="119"/><use href="#q52" x="152"/><use href="#q66" x="158"/><use href="#q48" x="162"/><use href="#q67" x="164"/><use href="#q48" x="170"/><use href="#q67" x="172"/><use href="#q67" x="194"/><use href="#q67" x="227"/><use href="#q67" x="260"/><use href="#q72" x="320"/><use href="#q50" x="326"/><use href="#q38" x="332"/><use href="#q39" x="337"/><use href="#q44" x="343"/><use href="#q37" x="349"/><use href="#q46" x="370"/><use href="#q73" x="376"/><use href="#q74" x="380"/></g></g><g stroke="#D6B2C3"><g transform="translate(0 121)"><use href="#q61" x="8"/><use href="#q62" x="12"/><use href="#q27" x="16"/><use href="#q63" x="20"/><use href="#q23" x="24"/><use href="#q24" x="28"/><use href="#q25" x="32"/><use href="#q62" x="152"/><use href="#q23" x="156"/><use href="#q65" x="160"/><use href="#q23" x="164"/><use href="#q29" x="168"/><use href="#q22" x="172"/><use href="#q23" x="176"/><use href="#q22" x="194"/><use href="#q25" x="198"/><use href="#q29" x="202"/><use href="#q62" x="206"/><use href="#q22" x="210"/><use href="#q68" x="227"/><use href="#q27" x="231"/><use href="#q62" x="235"/><use href="#q69" x="239"/><use href="#q22" x="243"/><use href="#q27" x="260"/><use href="#q61" x="264"/><use href="#q23" x="268"/><use href="#q28" x="272"/><use href="#q26" x="280"/><use href="#q22" x="284"/><use href="#q22" x="288"/><use href="#q70" x="292"/><use href="#q23" x="296"/><use href="#q22" x="300"/><use href="#q65" x="320"/><use href="#q29" x="324"/><use href="#q28" x="328"/><use href="#q71" x="333"/><use href="#q70" x="337"/><use href="#q29" x="341"/><use href="#q71" x="345"/><use href="#q23" x="349"/><use href="#q65" x="370"/><use href="#q26" x="374"/><use href="#q24" x="378"/><use href="#q23" x="382"/><use href="#q28" x="386"/><use href="#q22" x="391"/><use href="#q23" x="395"/></g></g><path stroke="#E0B03A" stroke-opacity=".08" d="M305 113.5h3m89 0h3m9 0h1m-114 1h9m95 0h9"/><path stroke="#E0B03A" stroke-opacity=".16" d="M296 113.5h2m5 0h2m95 0h2m5 0h2"/><path stroke="#E0B03A" stroke-opacity=".28" d="M298 113.5h5m99 0h5"/><path stroke="#F2D27A" stroke-opacity=".08" d="M312.5 93v8m-12 3v3"/><path stroke="#F2D27A" stroke-opacity=".16" d="M300 92.5h1m-2 1h3m-1.5 6.5v4"/><path stroke="#F2D27A" stroke-opacity=".24" d="M298 94.5h5m-4.5 .5v4m4-4v4m-4.5 .5h5"/><path stroke="#F2D27A" stroke-opacity=".08" d="M403 87.5h2m-2 1h2m6.5-.5v5m-14.5-3.5h12m-15 1h1m2 0h4m7 0h1m-16 1h6m-6 1h5m-6 1h5m-5 1h4m-4 1h4m-4 1h4m-4 1h4m-4 1h4m-4 1h4m-4 1h5m-4 1h5m13.5-.5v5m-18.5-3.5h6m-5 1h7m7 0h2m-15 1h15m-13 1h13m-11 1h11"/><path stroke="#F2D27A" stroke-opacity=".16" d="M401 90.5h7m-9 1h11m-12 1h12m-13 1h13m1.5-.5v8m-15.5-6.5h5m7 0h2m-14 1h5m7 0h2m-14 1h4m9.5-.5v2m-13.5-.5h4m-4 1h5m7 0h2m-14 1h5m7 0h2m-13 1h13m-12 1h12m-11 1h11m-9 1h7"/><path stroke="#F2D27A" stroke-opacity=".24" d="M401 94.5h7m-7 1h2m3 0h2m-8 1h3m3 0h3m-9 1h3m3 0h3m-8 1h2m3 0h2m-7 1h7"/><path stroke="#FFF0F3" d="M53 29.5h1m-2 1h1m1 0h1m-2 1h1"/><path stroke="#FFFFFF" d="M53 30.5h1"/><path stroke="#FFF0F3" d="M121 29.5h1m-2 1h1m1 0h1m-2 1h1"/><path stroke="#FFFFFF" d="M121 30.5h1"/><path stroke="#FFFFFF" d="M372 38.5h1m-1 2h1m-1 18h1m0 9h1m-5 4h1m0 3h1m1 2h1m-5 12h1m3 5h1m1 0h2m-7 2h1m-5 1h1m-2 2h1m13 1h1m0 4h1m1 1h1"/><use href="#q57" x="386" y="12"/><use href="#q59" x="341" y="88"/></g></svg>
